Wengdings2.glyphspackage
{
color = 5;
glyphname = .notdef;
layers = (
{
layerId = m01;
shapes = (
{
closed = 1;
nodes = (
(896,0,l),
(896,1480,l),
(128,1480,l),
(128,0,l)
);
},
{
closed = 1;
nodes = (
(232,1410,l),
(792,1410,l),
(792,70,l),
(232,70,l)
);
}
);
userData = {
assembly = "NPUSHB[ ]	/* 15 values pushed */
7 128 1 4 128 1 174 0 0 4 179 0 5 179 3
PUSHW[ ]	/* 2 values pushed */
474 0
MDAP[1]	/* MoveDirectAbsPt */
MIRP[11110]	/* MoveIndirectRelPt */
MIRP[01101]	/* MoveIndirectRelPt */
SRP0[ ]	/* SetRefPoint0 */
MIRP[01101]	/* MoveIndirectRelPt */
SVTCA[0]	/* SetFreedomAndProjectionVectorToAxis */
MIAP[1]	/* MoveIndirectAbsPt */
MIRP[01110]	/* MoveIndirectRelPt */
MIRP[01101]	/* MoveIndirectRelPt */
SRP0[ ]	/* SetRefPoint0 */
MIRP[01101]	/* MoveIndirectRelPt */
IUP[1]	/* InterpolateUntPts */
IUP[0]	/* InterpolateUntPts */";
};
width = 1024;
}
);
note = .notdef;
unicode = (1,2,3,4,5,6,7,10,11,12,14,15,16,17,18,19,20,21,22,23,24,25,26,27,28,30,31,127,250,251,252,253,254,255);
}
{
color = 5;
glyphname = penballpoint;
layers = (
{
layerId = m01;
shapes = (
{
closed = 1;
nodes = (
(1225,674,l),
(1229,672,o),
(1231,672,o),
(1235,672,c),
(1252,668,o),
(1280,672,o),
(1288,678,cs),
(1296,684,o),
(1710,1029,o),
(1887,1227,c),
(1887,1225,o),
(1887,1225,o),
(1889,1221,c),
(1907,1204,l),
(1780,1063,o),
(1667,976,o),
(1530,855,c),
(1526,855,o),
(1524,851,o),
(1524,849,cs),
(1524,839,o),
(1534,825,o),
(1544,823,c),
(1548,823,o),
(1552,821,o),
(1554,823,cs),
(1613,874,o),
(1837,1061,o),
(1948,1194,c),
(1950,1194,o),
(1952,1196,o),
(1954,1198,c),
(1960,1208,l),
(1962,1209,o),
(1962,1211,o),
(1964,1215,c),
(1964,1221,o),
(1962,1231,o),
(1956,1235,c),
(1956,1239,l),
(1930,1263,l),
(1928,1267,o),
(1925,1267,o),
(1923,1269,c),
(1952,1303,o),
(1972,1332,o),
(1980,1350,cs),
(1984,1362,o),
(1988,1372,o),
(1990,1382,cs),
(2000,1447,o),
(1950,1497,o),
(1891,1507,cs),
(1875,1509,o),
(1857,1511,o),
(1839,1505,cs),
(1607,1443,o),
(1159,1095,o),
(1050,1007,c),
(1044,1005,o),
(1044,1001,o),
(1042,997,c),
(1024,983,o),
(1001,972,o),
(997,946,c),
(999,946,l),
(224,248,l),
(406,2,l),
(406,2,l)
);
},
{
closed = 1;
nodes = (
(113,-95,o),
(120,-93,o),
(136,-87,cs),
(388,-8,l),
(210,232,l),
(83,6,l),
(65,-20,o),
(63,-28,o),
(61,-34,c),
(57,-61,o),
(77,-89,o),
(105,-93,cs)
);
},
{
closed = 1;
nodes = (
(721,363,o),
(717,367,o),
(713,371,cs),
(707,377,l),
(703,383,o),
(701,387,o),
(703,393,c),
(703,397,o),
(707,401,o),
(709,403,cs),
(1134,757,l),
(1139,759,o),
(1143,759,o),
(1147,759,cs),
(1151,759,o),
(1155,757,o),
(1155,754,c),
(1165,742,l),
(1169,740,o),
(1169,734,o),
(1169,730,c),
(1167,726,o),
(1167,722,o),
(1165,720,cs),
(737,367,ls),
(733,363,o),
(729,363,o),
(725,363,cs)
);
}
);
userData = {
assembly = "NPUSHB[ ]	/* 21 values pushed */
32 34 45 46 62 4 42 55 0 32 36 60 66 68 6 7 15 49 57 3 51
PUSHW[ ]	/* 1 value pushed */
281
NPUSHB[ ]	/* 29 values pushed */
55 42 124 22 55 22 194 7 17 53 0 15 17 34 36 45 46 49 53 57 60 62 66 68 14 9 39 116 25
PUSHW[ ]	/* 2 values pushed */
526 9
MDAP[1]	/* MoveDirectAbsPt */
MIRP[11101]	/* MoveIndirectRelPt */
MIRP[01101]	/* MoveIndirectRelPt */
SRP1[ ]	/* SetRefPoint1 */
SLOOP[ ]	/* SetLoopVariable */
IP[ ]	/* InterpolatePts */
MDAP[1]	/* MoveDirectAbsPt */
MDAP[1]	/* MoveDirectAbsPt */
SVTCA[0]	/* SetFreedomAndProjectionVectorToAxis */
MDAP[1]	/* MoveDirectAbsPt */
MIRP[01101]	/* MoveIndirectRelPt */
IP[ ]	/* InterpolatePts */
SRP0[ ]	/* SetRefPoint0 */
MIRP[01101]	/* MoveIndirectRelPt */
MDAP[1]	/* MoveDirectAbsPt */
MIRP[01101]	/* MoveIndirectRelPt */
SLOOP[ ]	/* SetLoopVariable */
IP[ ]	/* InterpolatePts */
SRP1[ ]	/* SetRefPoint1 */
SLOOP[ ]	/* SetLoopVariable */
IP[ ]	/* InterpolatePts */
SRP1[ ]	/* SetRefPoint1 */
SRP2[ ]	/* SetRefPoint2 */
SLOOP[ ]	/* SetLoopVariable */
IP[ ]	/* InterpolatePts */
MDAP[1]	/* MoveDirectAbsPt */
IUP[1]	/* InterpolateUntPts */
IUP[0]	/* InterpolateUntPts */";
};
width = 2110;
}
);
note = penballpoint;
unicode = 33;
}
{
color = 5;
glyphname = penfountain;
layers = (
{
layerId = m01;
shapes = (
{
closed = 1;
nodes = (
(169,8,o),
(261,17,o),
(316,17,cs),
(412,17,o),
(600,40,o),
(680,133,cs),
(761,224,o),
(752,271,o),
(771,314,c),
(796,290,o),
(817,275,o),
(830,274,cs),
(834,274,o),
(837,274,o),
(839,276,cs),
(1241,591,l),
(1249,585,o),
(1256,580,o),
(1265,579,cs),
(1268,578,o),
(1272,578,o),
(1277,582,cs),
(1337,629,l),
(1337,631,l),
(1334,629,o),
(1331,629,o),
(1327,629,cs),
(1298,633,o),
(1266,669,o),
(1243,688,c),
(1188,646,l),
(1110,732,l),
(1164,774,l),
(1083,880,o),
(1021,977,o),
(1026,1017,cs),
(1026,1021,o),
(1028,1024,o),
(1028,1026,c),
(967,978,ls),
(964,975,o),
(962,973,o),
(961,970,cs),
(961,961,o),
(962,951,o),
(966,943,c),
(564,630,ls),
(562,628,o),
(561,626,o),
(559,621,cs),
(557,609,o),
(567,583,o),
(581,552,c),
(533,544,o),
(496,563,o),
(387,509,cs),
(278,453,o),
(208,277,o),
(186,184,cs),
(171,123,o),
(138,39,o),
(139,31,cs),
(136,17,o),
(150,10,o),
(160,10,cs)
);
},
{
closed = 1;
nodes = (
(441,217,l),
(451,212,o),
(459,208,o),
(469,207,cs),
(506,204,o),
(542,232,o),
(546,267,cs),
(551,306,o),
(524,342,o),
(485,347,cs),
(449,352,o),
(413,325,o),
(408,284,cs),
(408,277,o),
(408,265,o),
(410,255,c),
(239,122,l),
(257,203,o),
(316,400,o),
(417,449,cs),
(526,503,o),
(546,471,o),
(617,494,c),
(648,450,o),
(686,399,o),
(723,359,c),
(677,282,o),
(705,264,o),
(630,176,cs),
(572,108,o),
(408,84,o),
(315,83,cs),
(302,84,o),
(287,83,o),
(268,85,c)
);
},
{
closed = 1;
nodes = (
(1747,1232,l),
(1679,1320,o),
(1628,1398,o),
(1614,1447,c),
(1537,1412,o),
(1458,1363,o),
(1389,1308,cs),
(1095,1079,ls),
(1093,1079,o),
(1092,1074,o),
(1090,1070,cs),
(1086,1033,o),
(1145,932,o),
(1229,826,c)
);
},
{
closed = 1;
nodes = (
(1398,680,o),
(1401,680,o),
(1404,682,cs),
(1699,913,ls),
(1766,964,o),
(1834,1029,o),
(1887,1098,c),
(1870,1107,o),
(1852,1123,o),
(1829,1145,c),
(1310,740,l),
(1346,704,o),
(1376,683,o),
(1394,680,cs)
);
},
{
closed = 1;
nodes = (
(1958,1205,o),
(1975,1247,o),
(1979,1287,cs),
(1985,1336,o),
(1975,1381,o),
(1943,1423,cs),
(1910,1463,o),
(1869,1484,o),
(1822,1491,cs),
(1779,1494,o),
(1736,1487,o),
(1690,1474,c),
(1710,1419,o),
(1775,1328,o),
(1844,1249,cs),
(1871,1220,ls),
(1891,1197,o),
(1915,1179,o),
(1932,1163,c)
);
}
);
userData = {
assembly = "NPUSHB[ ]	/* 37 values pushed */
32 46 50 81 82 4 43 91 3 4 28 29 32 34 37 48 53 55 58 60 61 13 87 69 1 35 65 76 80 5 73 0 9 85 93 3 87
PUSHW[ ]	/* 1 value pushed */
281
NPUSHB[ ]	/* 58 values pushed */
91 75 66 69 200 73 43 124 18 91 73 18 194 0 6 11 89 4 6 9 11 29 34 35 37 46 48 50 53 55 58 60 80 81 82 85 89 93 21 40 71 0 3 61 65 76 5 1 75 66 71 127 67 40 116 21 67 21
PUSHW[ ]	/* 2 values pushed */
277 1
MDAP[1]	/* MoveDirectAbsPt */
MIRP[01101]	/* MoveIndirectRelPt */
IP[ ]	/* InterpolatePts */
SRP0[ ]	/* SetRefPoint0 */
MIRP[01101]	/* MoveIndirectRelPt */
MDAP[1]	/* MoveDirectAbsPt */
MIRP[01101]	/* MoveIndirectRelPt */
IP[ ]	/* InterpolatePts */
IP[ ]	/* InterpolatePts */
SRP2[ ]	/* SetRefPoint2 */
SLOOP[ ]	/* SetLoopVariable */
IP[ ]	/* InterpolatePts */
SRP1[ ]	/* SetRefPoint1 */
SRP2[ ]	/* SetRefPoint2 */
SLOOP[ ]	/* SetLoopVariable */
IP[ ]	/* InterpolatePts */
MDAP[1]	/* MoveDirectAbsPt */
MDAP[1]	/* MoveDirectAbsPt */
MDAP[1]	/* MoveDirectAbsPt */
SVTCA[0]	/* SetFreedomAndProjectionVectorToAxis */
MDAP[1]	/* MoveDirectAbsPt */
MIRP[01101]	/* MoveIndirectRelPt */
IP[ ]	/* InterpolatePts */
IP[ ]	/* InterpolatePts */
SRP0[ ]	/* SetRefPoint0 */
MIRP[01101]	/* MoveIndirectRelPt */
MDAP[1]	/* MoveDirectAbsPt */
MIRP[01101]	/* MoveIndirectRelPt */
IP[ ]	/* InterpolatePts */
IP[ ]	/* InterpolatePts */
MDAP[1]	/* MoveDirectAbsPt */
MIRP[01101]	/* MoveIndirectRelPt */
SLOOP[ ]	/* SetLoopVariable */
IP[ ]	/* InterpolatePts */
SRP1[ ]	/* SetRefPoint1 */
SRP2[ ]	/* SetRefPoint2 */
SLOOP[ ]	/* SetLoopVariable */
IP[ ]	/* InterpolatePts */
SRP1[ ]	/* SetRefPoint1 */
SRP2[ ]	/* SetRefPoint2 */
SLOOP[ ]	/* SetLoopVariable */
IP[ ]	/* InterpolatePts */
SRP1[ ]	/* SetRefPoint1 */
SRP2[ ]	/* SetRefPoint2 */
SLOOP[ ]	/* SetLoopVariable */
IP[ ]	/* InterpolatePts */
MDAP[1]	/* MoveDirectAbsPt */
IUP[1]	/* InterpolateUntPts */
IUP[0]	/* InterpolateUntPts */";
};
width = 2090;
}
);
note = penfountain;
unicode = 34;
}
{
color = 5;
glyphname = brush;
layers = (
{
layerId = m01;
shapes = (
{
closed = 1;
nodes = (
(399,-37,o),
(510,-16,o),
(601,38,c),
(616,43,o),
(629,51,o),
(639,60,c),
(656,71,o),
(674,86,o),
(689,101,cs),
(749,157,o),
(796,230,o),
(809,313,c),
(820,301,o),
(835,292,o),
(848,290,cs),
(893,283,o),
(945,339,o),
(975,395,cs),
(990,425,o),
(1000,440,o),
(1003,447,c),
(1022,473,o),
(1108,563,o),
(1136,580,cs),
(1164,599,o),
(1183,621,o),
(1187,649,c),
(1203,660,o),
(1230,692,o),
(1246,709,cs),
(1275,741,o),
(1304,775,o),
(1336,803,cs),
(1419,879,o),
(1607,1029,o),
(1690,1105,cs),
(1774,1184,ls),
(1847,1251,o),
(1929,1321,o),
(1989,1403,c),
(1994,1412,o),
(2004,1427,o),
(2006,1444,cs),
(2011,1478,o),
(1985,1506,o),
(1953,1509,c),
(1890,1521,o),
(1821,1457,o),
(1776,1423,cs),
(1695,1364,o),
(1620,1300,o),
(1538,1242,cs),
(1409,1148,o),
(1187,958,o),
(1045,881,c),
(1035,877,o),
(1030,872,o),
(1024,866,c),
(973,874,o),
(930,834,o),
(889,801,cs),
(811,732,o),
(762,709,o),
(669,687,cs),
(628,679,o),
(596,664,o),
(590,631,cs),
(588,619,o),
(590,606,o),
(596,593,c),
(506,606,o),
(439,591,o),
(373,548,c),
(368,543,l),
(287,485,o),
(255,387,o),
(222,298,cs),
(201,247,o),
(188,172,o),
(136,144,cs),
(117,135,o),
(104,135,o),
(78,139,cs),
(67,141,o),
(54,146,o),
(42,148,cs),
(35,150,o),
(29,148,o),
(27,141,c),
(18,81,o),
(201,-5,o),
(295,-20,cs)
);
},
{
closed = 1;
nodes = (
(248,38,o),
(194,62,o),
(145,92,c),
(153,94,o),
(160,98,o),
(168,101,c),
(224,133,o),
(244,199,o),
(261,243,cs),
(272,272,ls),
(295,333,o),
(295,339,o),
(308,369,c),
(327,346,o),
(349,337,o),
(375,329,c),
(370,279,o),
(399,240,o),
(450,217,cs),
(463,212,o),
(491,204,o),
(500,200,c),
(499,191,o),
(489,178,o),
(487,163,cs),
(482,128,o),
(506,92,o),
(553,71,c),
(476,30,o),
(390,15,o),
(306,28,cs)
);
}
);
userData = {
assembly = "NPUSHB[ ]	/* 14 values pushed */
3 0 3 8 26 34 35 43 45 47 48 50 11 14
PUSHW[ ]	/* 1 value pushed */
515
NPUSHB[ ]	/* 13 values pushed */
5 0 8 26 34 35 43 45 47 48 50 10 16
PUSHW[ ]	/* 2 values pushed */
524 5
MDAP[1]	/* MoveDirectAbsPt */
MIRP[00100]	/* MoveIndirectRelPt */
SLOOP[ ]	/* SetLoopVariable */
IP[ ]	/* InterpolatePts */
SVTCA[0]	/* SetFreedomAndProjectionVectorToAxis */
MDAP[1]	/* MoveDirectAbsPt */
MIRP[00100]	/* MoveIndirectRelPt */
SLOOP[ ]	/* SetLoopVariable */
IP[ ]	/* InterpolatePts */
MDAP[1]	/* MoveDirectAbsPt */
IUP[1]	/* InterpolateUntPts */
IUP[0]	/* InterpolateUntPts */";
};
width = 2073;
}
);
note = brush;
unicode = 35;
}
{
color = 5;
glyphname = crayon;
layers = (
{
layerId = m01;
shapes = (
{
closed = 1;
nodes = (
(939,355,l),
(935,359,o),
(933,368,o),
(935,377,cs),
(944,440,o),
(1057,572,o),
(1220,699,cs),
(1384,827,o),
(1538,905,o),
(1600,898,cs),
(1611,896,o),
(1616,893,o),
(1621,887,c),
(1766,1002,ls),
(1775,1011,o),
(1782,1018,o),
(1784,1032,cs),
(1789,1078,o),
(1760,1150,o),
(1703,1221,cs),
(1648,1290,o),
(1587,1336,o),
(1542,1341,cs),
(1528,1343,o),
(1519,1339,o),
(1510,1332,cs),
(494,539,l),
(501,541,o),
(506,541,o),
(513,542,cs),
(557,536,o),
(628,486,o),
(684,417,cs),
(738,349,o),
(760,277,o),
(754,233,cs),
(753,226,o),
(753,219,o),
(750,213,c),
(753,210,l)
);
},
{
closed = 1;
nodes = (
(171,-56,o),
(176,-54,o),
(178,-51,c),
(459,55,l),
(481,47,o),
(497,41,o),
(510,38,cs),
(524,37,o),
(534,40,o),
(544,45,cs),
(643,125,ls),
(654,132,o),
(659,143,o),
(661,155,cs),
(664,197,o),
(639,271,o),
(582,340,cs),
(525,410,o),
(464,457,o),
(418,460,cs),
(406,464,o),
(394,464,o),
(387,454,cs),
(299,388,l),
(293,386,o),
(288,384,o),
(285,380,c),
(274,372,o),
(271,361,o),
(269,349,cs),
(268,334,o),
(267,317,o),
(274,298,c),
(103,47,l),
(100,49,o),
(99,47,o),
(97,47,cs),
(94,47,o),
(94,41,o),
(92,37,cs),
(91,22,o),
(98,3,o),
(116,-20,cs),
(133,-40,o),
(153,-53,o),
(165,-55,cs)
);
},
{
closed = 1;
nodes = (
(1960,1151,l),
(1961,1153,o),
(1966,1154,o),
(1971,1158,cs),
(1978,1163,o),
(1982,1172,o),
(1984,1183,c),
(1988,1190,o),
(1987,1200,o),
(1989,1209,cs),
(1996,1261,o),
(1986,1341,o),
(1941,1400,cs),
(1889,1464,o),
(1823,1491,o),
(1773,1497,cs),
(1738,1500,o),
(1726,1497,o),
(1715,1493,c),
(1617,1417,l),
(1621,1419,o),
(1627,1417,o),
(1634,1417,cs),
(1677,1412,o),
(1742,1365,o),
(1797,1295,cs),
(1853,1224,o),
(1882,1152,o),
(1877,1107,cs),
(1875,1102,o),
(1875,1096,o),
(1873,1091,c),
(1875,1086,l)
);
}
);
userData = {
assembly = "NPUSHB[ ]	/* 48 values pushed */
24 1 2 3 6 7 8 9 11 12 14 15 17 18 20 21 24 26 27 29 30 32 21 4 194 0 0 2 3 4 7 8 9 11 12 14 15 17 18 20 21 26 27 29 30 32 20 6
PUSHW[ ]	/* 2 values pushed */
277 1
MDAP[1]	/* MoveDirectAbsPt */
MIRP[01101]	/* MoveIndirectRelPt */
SLOOP[ ]	/* SetLoopVariable */
IP[ ]	/* InterpolatePts */
SVTCA[0]	/* SetFreedomAndProjectionVectorToAxis */
MDAP[1]	/* MoveDirectAbsPt */
MIRP[01101]	/* MoveIndirectRelPt */
SLOOP[ ]	/* SetLoopVariable */
IP[ ]	/* InterpolatePts */
MDAP[1]	/* MoveDirectAbsPt */
IUP[1]	/* InterpolateUntPts */
IUP[0]	/* InterpolateUntPts */";
};
width = 2086;
}
);
note = crayon;
unicode = 36;
}
{
color = 5;
glyphname = scissorsoutline;
layers = (
{
layerId = m01;
shapes = (
{
closed = 1;
nodes = (
(671,0,o),
(740,28,o),
(797,88,cs),
(852,145,o),
(882,225,o),
(897,351,cs),
(904,417,o),
(908,455,o),
(916,470,c),
(1065,462,l),
(1179,524,l),
(1601,254,ls),
(1677,204,o),
(1757,180,o),
(1840,180,cs),
(1961,180,o),
(2078,240,o),
(2123,320,c),
(1511,716,l),
(2130,1089,l),
(2049,1193,o),
(1954,1245,o),
(1840,1245,cs),
(1762,1245,o),
(1674,1219,o),
(1577,1164,cs),
(1179,937,l),
(1084,998,l),
(927,998,l),
(920,1027,o),
(916,1089,o),
(908,1186,cs),
(894,1378,o),
(759,1480,o),
(598,1480,cs),
(436,1480,o),
(287,1347,o),
(287,1172,cs),
(287,1110,o),
(301,1060,o),
(330,1017,cs),
(389,930,o),
(491,875,o),
(591,858,cs),
(695,842,o),
(804,790,o),
(849,740,c),
(787,685,o),
(697,652,o),
(579,626,cs),
(472,602,ls),
(353,576,o),
(261,451,o),
(261,306,cs),
(261,145,o),
(396,0,o),
(574,0,cs)
);
},
{
closed = 1;
nodes = (
(700,133,o),
(783,223,o),
(783,315,cs),
(783,429,o),
(697,512,o),
(591,512,cs),
(489,512,o),
(401,434,o),
(401,327,cs),
(401,221,o),
(482,133,o),
(586,133,cs)
);
},
{
closed = 1;
nodes = (
(517,192,o),
(460,251,o),
(460,325,cs),
(460,396,o),
(522,453,o),
(593,453,cs),
(667,453,o),
(723,394,o),
(723,320,cs),
(723,247,o),
(659,192,o),
(591,192,cs)
);
},
{
closed = 1;
nodes = (
(723,975,o),
(806,1062,o),
(806,1167,cs),
(806,1276,o),
(726,1357,o),
(617,1357,cs),
(510,1357,o),
(425,1271,o),
(425,1167,cs),
(425,1062,o),
(512,975,o),
(617,975,cs)
);
},
{
closed = 1;
nodes = (
(538,1034,o),
(484,1096,o),
(484,1167,cs),
(484,1240,o),
(541,1297,o),
(614,1297,cs),
(686,1297,o),
(747,1240,o),
(747,1167,cs),
(747,1096,o),
(686,1034,o),
(614,1034,cs)
);
},
{
closed = 1;
nodes = (
(422,69,o),
(327,192,o),
(327,327,cs),
(327,462,o),
(422,545,o),
(572,567,cs),
(605,572,ls),
(690,583,o),
(759,607,o),
(814,643,cs),
(866,678,o),
(899,697,o),
(911,704,cs),
(1563,1072,ls),
(1682,1138,o),
(1779,1176,o),
(1857,1176,cs),
(1923,1176,o),
(1980,1150,o),
(2033,1096,c),
(1077,531,l),
(873,548,l),
(847,500,o),
(833,434,o),
(830,349,cs),
(825,180,o),
(731,69,o),
(574,69,cs)
);
},
{
closed = 1;
nodes = (
(847,840,o),
(740,889,o),
(584,925,cs),
(429,960,o),
(351,1039,o),
(351,1167,cs),
(351,1300,o),
(448,1423,o),
(602,1423,cs),
(759,1423,o),
(854,1295,o),
(854,1122,cs),
(854,1039,o),
(863,975,o),
(887,937,c),
(1077,937,l),
(1127,904,l),
(904,780,l)
);
},
{
closed = 1;
nodes = (
(1250,638,o),
(1288,681,o),
(1288,733,cs),
(1288,785,o),
(1250,823,o),
(1198,823,cs),
(1146,823,o),
(1103,785,o),
(1103,733,cs),
(1103,681,o),
(1146,638,o),
(1198,638,cs)
);
},
{
closed = 1;
nodes = (
(1169,685,o),
(1146,704,o),
(1146,733,cs),
(1146,759,o),
(1169,783,o),
(1198,783,cs),
(1224,783,o),
(1245,759,o),
(1245,733,cs),
(1245,704,o),
(1224,685,o),
(1198,685,cs)
);
},
{
closed = 1;
nodes = (
(1774,251,o),
(1698,275,o),
(1625,320,cs),
(1245,560,l),
(1461,685,l),
(2021,315,l),
(1985,275,o),
(1923,251,o),
(1850,251,cs)
);
}
);
userData = {
assembly = "NPUSHB[ ]	/* 126 values pushed */
85 37 131 125 0 33 38 44 62 63 88 89 8 106 111 93 39 148 142 106 124 125 142 124 117 131 124 100 87 124 34 111 124 148 43 90 124 41 53 124 26 73 124 9 125 100 34 3 26 173 152 200 156 41 117 148 3 156 173 9 0 18 34 37 38 43 85 87 88 90 93 9 39 154 44 62 63 3 150 30 5 31 18 3 48 77 47 134 116 97 139 116 120 3 116 81 47 116 5 116 77 103 128 116 114 116 145 0 33 89 3 154 127 150 56 23 70 116 97 120 145 81 77 150 6 39
PUSHW[ ]	/* 2 values pushed */
532 12
MDAP[1]	/* MoveDirectAbsPt */
MIRP[01101]	/* MoveIndirectRelPt */
SLOOP[ ]	/* SetLoopVariable */
IP[ ]	/* InterpolatePts */
MIRP[01101]	/* MoveIndirectRelPt */
IP[ ]	/* InterpolatePts */
IP[ ]	/* InterpolatePts */
MDAP[1]	/* MoveDirectAbsPt */
MIRP[01101]	/* MoveIndirectRelPt */
SLOOP[ ]	/* SetLoopVariable */
IP[ ]	/* InterpolatePts */
MDAP[1]	/* MoveDirectAbsPt */
MIRP[11101]	/* MoveIndirectRelPt */
MIRP[01101]	/* MoveIndirectRelPt */
IP[ ]	/* InterpolatePts */
MDAP[1]	/* MoveDirectAbsPt */
MIRP[11101]	/* MoveIndirectRelPt */
MIRP[01101]	/* MoveIndirectRelPt */
MDAP[1]	/* MoveDirectAbsPt */
MIRP[01101]	/* MoveIndirectRelPt */
MDAP[1]	/* MoveDirectAbsPt */
MIRP[01101]	/* MoveIndirectRelPt */
MDAP[1]	/* MoveDirectAbsPt */
MIRP[01101]	/* MoveIndirectRelPt */
SRP1[ ]	/* SetRefPoint1 */
SRP2[ ]	/* SetRefPoint2 */
IP[ ]	/* InterpolatePts */
SRP1[ ]	/* SetRefPoint1 */
IP[ ]	/* InterpolatePts */
IP[ ]	/* InterpolatePts */
SRP2[ ]	/* SetRefPoint2 */
IP[ ]	/* InterpolatePts */
SRP1[ ]	/* SetRefPoint1 */
SLOOP[ ]	/* SetLoopVariable */
IP[ ]	/* InterpolatePts */
SRP1[ ]	/* SetRefPoint1 */
SRP2[ ]	/* SetRefPoint2 */
SLOOP[ ]	/* SetLoopVariable */
IP[ ]	/* InterpolatePts */
MDAP[1]	/* MoveDirectAbsPt */
SVTCA[0]	/* SetFreedomAndProjectionVectorToAxis */
MIAP[1]	/* MoveIndirectAbsPt */
MIRP[00100]	/* MoveIndirectRelPt */
SLOOP[ ]	/* SetLoopVariable */
IP[ ]	/* InterpolatePts */
SRP0[ ]	/* SetRefPoint0 */
MIRP[11101]	/* MoveIndirectRelPt */
MIRP[00100]	/* MoveIndirectRelPt */
SLOOP[ ]	/* SetLoopVariable */
IP[ ]	/* InterpolatePts */
SRP0[ ]	/* SetRefPoint0 */
MIRP[01101]	/* MoveIndirectRelPt */
SRP0[ ]	/* SetRefPoint0 */
MIRP[01101]	/* MoveIndirectRelPt */
MDAP[1]	/* MoveDirectAbsPt */
MIRP[01101]	/* MoveIndirectRelPt */
IP[ ]	/* InterpolatePts */
MDAP[1]	/* MoveDirectAbsPt */
MIRP[01101]	/* MoveIndirectRelPt */
MDAP[1]	/* MoveDirectAbsPt */
MIRP[01101]	/* MoveIndirectRelPt */
MDAP[1]	/* MoveDirectAbsPt */
MIRP[01101]	/* MoveIndirectRelPt */
MDAP[1]	/* MoveDirectAbsPt */
MIRP[01101]	/* MoveIndirectRelPt */
MDAP[1]	/* MoveDirectAbsPt */
MIRP[01101]	/* MoveIndirectRelPt */
SRP1[ ]	/* SetRefPoint1 */
SRP2[ ]	/* SetRefPoint2 */
IP[ ]	/* InterpolatePts */
IP[ ]	/* InterpolatePts */
SRP1[ ]	/* SetRefPoint1 */
SRP2[ ]	/* SetRefPoint2 */
SLOOP[ ]	/* SetLoopVariable */
IP[ ]	/* InterpolatePts */
SRP1[ ]	/* SetRefPoint1 */
SRP2[ ]	/* SetRefPoint2 */
IP[ ]	/* InterpolatePts */
IP[ ]	/* InterpolatePts */
IUP[1]	/* InterpolateUntPts */
IUP[0]	/* InterpolateUntPts */";
};
width = 2344;
}
);
note = scissorsoutline;
unicode = 37;
}
{
color = 5;
glyphname = scissorschilds;
layers = (
{
layerId = m01;
shapes = (
{
closed = 1;
nodes = (
(532,240,o),
(660,335,o),
(660,472,cs),
(660,498,o),
(652,523,o),
(637,547,c),
(641,556,l),
(731,560,o),
(877,631,o),
(896,647,c),
(1457,429,ls),
(1538,396,o),
(1615,379,o),
(1686,379,cs),
(1783,379,o),
(1845,423,o),
(1875,472,c),
(1132,756,l),
(1875,1029,l),
(1845,1073,o),
(1746,1118,o),
(1679,1118,cs),
(1620,1118,o),
(1546,1104,o),
(1453,1069,cs),
(896,863,l),
(804,910,o),
(660,956,o),
(539,966,c),
(559,987,o),
(572,1032,o),
(572,1087,cs),
(572,1200,o),
(474,1294,o),
(339,1294,cs),
(219,1294,o),
(128,1212,o),
(128,1094,cs),
(128,974,o),
(250,897,o),
(393,891,cs),
(536,884,o),
(704,827,o),
(772,756,c),
(719,708,o),
(614,647,o),
(565,647,cs),
(544,647,o),
(519,649,o),
(496,652,cs),
(472,656,o),
(443,656,o),
(412,656,cs),
(229,656,o),
(128,576,o),
(128,429,cs),
(128,318,o),
(237,240,o),
(379,240,cs)
);
},
{
closed = 1;
nodes = (
(268,309,o),
(208,354,o),
(208,436,cs),
(208,515,o),
(274,563,o),
(393,563,cs),
(466,563,o),
(517,556,o),
(546,542,cs),
(576,530,o),
(590,505,o),
(590,472,cs),
(590,389,o),
(501,309,o),
(383,309,cs)
);
},
{
closed = 1;
nodes = (
(285,975,o),
(208,1029,o),
(208,1113,cs),
(208,1188,o),
(257,1236,o),
(332,1236,cs),
(428,1236,o),
(499,1162,o),
(499,1080,cs),
(499,1002,o),
(467,975,o),
(409,975,cs)
);
}
);
userData = {
assembly = "NPUSHB[ ]	/* 20 values pushed */
45 53 63 81 0 18 19 20 38 42 48 49 50 56 63 81 12 75 45 69
PUSHW[ ]	/* 1 value pushed */
544
PUSHB[ ]	/* 3 values pushed */
28 53 75
PUSHW[ ]	/* 1 value pushed */
544
NPUSHB[ ]	/* 19 values pushed */
28 237 10 58 0 38 42 49 50 56 58 7 48 18 19 20 3 40 32
PUSHW[ ]	/* 3 values pushed */
418 40 454
PUSHB[ ]	/* 3 values pushed */
66 3 35
PUSHW[ ]	/* 3 values pushed */
418 7 418
PUSHB[ ]	/* 3 values pushed */
78 60 25
PUSHW[ ]	/* 3 values pushed */
418 72 418
PUSHB[ ]	/* 4 values pushed */
78 48 239 13
MDAP[1]	/* MoveDirectAbsPt */
MIRP[01101]	/* MoveIndirectRelPt */
IP[ ]	/* InterpolatePts */
MIRP[11101]	/* MoveIndirectRelPt */
MIRP[01101]	/* MoveIndirectRelPt */
IP[ ]	/* InterpolatePts */
MDAP[1]	/* MoveDirectAbsPt */
MIRP[01101]	/* MoveIndirectRelPt */
MIRP[01101]	/* MoveIndirectRelPt */
IP[ ]	/* InterpolatePts */
IP[ ]	/* InterpolatePts */
MIRP[01101]	/* MoveIndirectRelPt */
MIRP[11101]	/* MoveIndirectRelPt */
SRP1[ ]	/* SetRefPoint1 */
SLOOP[ ]	/* SetLoopVariable */
IP[ ]	/* InterpolatePts */
SRP2[ ]	/* SetRefPoint2 */
SLOOP[ ]	/* SetLoopVariable */
IP[ ]	/* InterpolatePts */
MDAP[1]	/* MoveDirectAbsPt */
SVTCA[0]	/* SetFreedomAndProjectionVectorToAxis */
MDAP[1]	/* MoveDirectAbsPt */
MIRP[01101]	/* MoveIndirectRelPt */
MIRP[01101]	/* MoveIndirectRelPt */
IP[ ]	/* InterpolatePts */
SRP0[ ]	/* SetRefPoint0 */
MIRP[01101]	/* MoveIndirectRelPt */
IP[ ]	/* InterpolatePts */
SRP1[ ]	/* SetRefPoint1 */
SLOOP[ ]	/* SetLoopVariable */
IP[ ]	/* InterpolatePts */
MDAP[1]	/* MoveDirectAbsPt */
MDAP[1]	/* MoveDirectAbsPt */
MDAP[1]	/* MoveDirectAbsPt */
MDAP[1]	/* MoveDirectAbsPt */
IUP[1]	/* InterpolateUntPts */
IUP[0]	/* InterpolateUntPts */";
};
width = 2045;
}
);
note = scissorschilds;
unicode = 38;
}
{
color = 5;
glyphname = telephone;
layers = (
{
layerId = m01;
shapes = (
{
closed = 1;
nodes = (
(578,0,ls),
(598,0,o),
(609,7,o),
(609,22,cs),
(609,69,l),
(1611,69,l),
(1611,22,ls),
(1611,4,o),
(1618,0,o),
(1642,0,cs),
(1792,0,ls),
(1817,0,o),
(1825,4,o),
(1825,22,cs),
(1825,69,l),
(1917,69,l),
(1917,474,l),
(1488,872,l),
(1488,1176,l),
(1528,1156,o),
(1548,1118,o),
(1548,1060,c),
(1546,1002,l),
(1546,979,ls),
(1553,803,o),
(1647,760,o),
(1877,760,cs),
(2011,760,o),
(2080,785,o),
(2080,885,cs),
(2080,1312,o),
(1770,1518,o),
(1246,1518,cs),
(974,1518,ls),
(448,1518,o),
(140,1312,o),
(140,885,cs),
(140,785,o),
(207,760,o),
(343,760,cs),
(580,760,o),
(670,812,o),
(674,979,cs),
(674,1002,l),
(672,1060,l),
(672,1118,o),
(692,1158,o),
(732,1176,c),
(732,872,l),
(303,474,l),
(303,69,l),
(395,69,l),
(395,22,ls),
(395,4,o),
(403,0,o),
(426,0,cs)
);
},
{
closed = 1;
nodes = (
(439,34,o),
(433,38,o),
(433,45,cs),
(433,69,l),
(571,69,l),
(571,45,ls),
(571,38,o),
(564,34,o),
(551,34,cs),
(453,34,ls)
);
},
{
closed = 1;
nodes = (
(247,818,o),
(198,832,o),
(198,854,cs),
(198,885,l),
(249,876,o),
(298,872,o),
(348,872,cs),
(430,872,o),
(515,883,o),
(605,908,c),
(573,841,o),
(504,818,o),
(343,818,cs)
);
},
{
closed = 1;
nodes = (
(875,552,l),
(902,619,l),
(770,619,l),
(732,552,l)
);
},
{
closed = 1;
nodes = (
(918,660,l),
(940,718,l),
(824,718,l),
(793,660,l)
);
},
{
closed = 1;
nodes = (
(956,758,l),
(974,805,l),
(873,805,l),
(846,758,l)
);
},
{
closed = 1;
nodes = (
(1182,552,l),
(1177,619,l),
(1043,619,l),
(1038,552,l)
);
},
{
closed = 1;
nodes = (
(1653,34,o),
(1647,38,o),
(1647,45,cs),
(1647,69,l),
(1787,69,l),
(1787,45,ls),
(1787,38,o),
(1781,34,o),
(1767,34,cs),
(1669,34,ls)
);
},
{
closed = 1;
nodes = (
(361,454,l),
(790,852,l),
(790,1203,l),
(860,1207,l),
(891,1207,l),
(924,1205,l),
(924,1053,l),
(1296,1053,l),
(1296,1205,l),
(1329,1207,l),
(1360,1207,l),
(1430,1203,l),
(1430,852,l),
(1859,454,l),
(1859,127,l),
(361,127,l)
);
},
{
closed = 1;
nodes = (
(1173,660,l),
(1168,718,l),
(1052,718,l),
(1047,660,l)
);
},
{
closed = 1;
nodes = (
(1164,758,l),
(1159,805,l),
(1059,805,l),
(1054,758,l)
);
},
{
closed = 1;
nodes = (
(1488,552,l),
(1450,619,l),
(1318,619,l),
(1345,552,l)
);
},
{
closed = 1;
nodes = (
(1425,660,l),
(1394,718,l),
(1278,718,l),
(1302,660,l)
);
},
{
closed = 1;
nodes = (
(1372,758,l),
(1345,805,l),
(1244,805,l),
(1264,758,l)
);
},
{
closed = 1;
nodes = (
(967,1203,l),
(1032,1198,o),
(1079,1194,o),
(1110,1194,cs),
(1141,1194,o),
(1188,1198,o),
(1253,1203,c),
(1253,1104,l),
(967,1104,l)
);
},
{
closed = 1;
nodes = (
(301,917,o),
(249,921,o),
(198,930,c),
(205,1270,o),
(493,1460,o),
(974,1460,cs),
(1246,1460,ls),
(1720,1460,o),
(2011,1274,o),
(2022,930,c),
(1973,921,o),
(1919,917,o),
(1866,917,cs),
(1763,917,o),
(1678,930,o),
(1606,959,c),
(1604,979,l),
(1604,1002,l),
(1606,1060,l),
(1606,1187,o),
(1521,1252,o),
(1354,1252,cs),
(1325,1252,o),
(1284,1250,o),
(1233,1243,cs),
(1182,1236,o),
(1141,1234,o),
(1110,1234,cs),
(1079,1234,o),
(1038,1236,o),
(987,1243,cs),
(936,1250,o),
(895,1252,o),
(866,1252,cs),
(699,1252,o),
(614,1187,o),
(614,1060,c),
(616,1002,l),
(616,979,l),
(614,959,l),
(542,930,o),
(457,917,o),
(354,917,cs)
);
},
{
closed = 1;
nodes = (
(1716,818,o),
(1647,841,o),
(1615,908,c),
(1702,883,o),
(1790,872,o),
(1872,872,cs),
(1922,872,o),
(1971,876,o),
(2022,885,c),
(2022,854,ls),
(2022,832,o),
(1973,818,o),
(1877,818,cs)
);
}
);
userData = {
assembly = "NPUSHB[ ]	/* 163 values pushed */
27 0 54 66 59 63 69 73 79 96 6 102 71 75 87 3 61 33 37 48 103 114 4 100 83 126 118 6 21 129 125 121 130 57 51 14 124 66 83 124 21 124 91 119 200 122 200 121 200 118 116 35 102 124 49 130 200 134 200 137 138 141 3 131 200 133 146 200 142 200 149 150 153 3 143 200 145 100 124 33 77 124 98 124 61 108 124 43 54 124 30 145 133 118 91 33 61 49 66 8 30 192 43 0 124 136 0 51 73 3 86 42 140 128 152 117 136 124 153 137 125 149 33 120 132 3 144 100 133 121 145 103 27 57 59 3 43 88 63 19 116 95 109 116 42 146 3 108 116 43 146 24 69 8 116 80 103 116 48 88 116 24 48
PUSHW[ ]	/* 1 value pushed */
545
PUSHB[ ]	/* 4 values pushed */
144 245 145 100
PUSHW[ ]	/* 5 values pushed */
547 145 463 152 546
PUSHB[ ]	/* 4 values pushed */
149 114 116 37
PUSHW[ ]	/* 1 value pushed */
545
NPUSHB[ ]	/* 15 values pushed */
152 34 129 141 3 153 116 117 184 149 86 116 3 80 3
PUSHW[ ]	/* 1 value pushed */
377
PUSHB[ ]	/* 6 values pushed */
148 245 149 95 43 149
PUSHW[ ]	/* 2 values pushed */
377 24
MDAP[1]	/* MoveDirectAbsPt */
MIRP[00100]	/* MoveIndirectRelPt */
IP[ ]	/* InterpolatePts */
IP[ ]	/* InterpolatePts */
SRP0[ ]	/* SetRefPoint0 */
MIRP[11101]	/* MoveIndirectRelPt */
MIRP[00100]	/* MoveIndirectRelPt */
IP[ ]	/* InterpolatePts */
SRP0[ ]	/* SetRefPoint0 */
MIRP[01101]	/* MoveIndirectRelPt */
SRP0[ ]	/* SetRefPoint0 */
MIRP[11101]	/* MoveIndirectRelPt */
MIRP[01101]	/* MoveIndirectRelPt */
SLOOP[ ]	/* SetLoopVariable */
IP[ ]	/* InterpolatePts */
SRP0[ ]	/* SetRefPoint0 */
MIRP[10100]	/* MoveIndirectRelPt */
MIRP[01101]	/* MoveIndirectRelPt */
SRP0[ ]	/* SetRefPoint0 */
MIRP[11101]	/* MoveIndirectRelPt */
MIRP[01101]	/* MoveIndirectRelPt */
MIRP[01101]	/* MoveIndirectRelPt */
SRP0[ ]	/* SetRefPoint0 */
MIRP[01101]	/* MoveIndirectRelPt */
MIRP[00100]	/* MoveIndirectRelPt */
SRP0[ ]	/* SetRefPoint0 */
MIRP[01101]	/* MoveIndirectRelPt */
SRP0[ ]	/* SetRefPoint0 */
MIRP[01101]	/* MoveIndirectRelPt */
MDAP[1]	/* MoveDirectAbsPt */
MIRP[01101]	/* MoveIndirectRelPt */
IP[ ]	/* InterpolatePts */
SRP0[ ]	/* SetRefPoint0 */
MIRP[10100]	/* MoveIndirectRelPt */
MIRP[01101]	/* MoveIndirectRelPt */
SRP0[ ]	/* SetRefPoint0 */
MIRP[10100]	/* MoveIndirectRelPt */
MIRP[01101]	/* MoveIndirectRelPt */
MDAP[1]	/* MoveDirectAbsPt */
MIRP[01101]	/* MoveIndirectRelPt */
IP[ ]	/* InterpolatePts */
SRP1[ ]	/* SetRefPoint1 */
SRP2[ ]	/* SetRefPoint2 */
SLOOP[ ]	/* SetLoopVariable */
IP[ ]	/* InterpolatePts */
SRP1[ ]	/* SetRefPoint1 */
SRP2[ ]	/* SetRefPoint2 */
IP[ ]	/* InterpolatePts */
IP[ ]	/* InterpolatePts */
SRP1[ ]	/* SetRefPoint1 */
SRP2[ ]	/* SetRefPoint2 */
SLOOP[ ]	/* SetLoopVariable */
IP[ ]	/* InterpolatePts */
SRP1[ ]	/* SetRefPoint1 */
IP[ ]	/* InterpolatePts */
IP[ ]	/* InterpolatePts */
SRP2[ ]	/* SetRefPoint2 */
IP[ ]	/* InterpolatePts */
IP[ ]	/* InterpolatePts */
SRP1[ ]	/* SetRefPoint1 */
SRP2[ ]	/* SetRefPoint2 */
IP[ ]	/* InterpolatePts */
IP[ ]	/* InterpolatePts */
SRP1[ ]	/* SetRefPoint1 */
SRP2[ ]	/* SetRefPoint2 */
SLOOP[ ]	/* SetLoopVariable */
IP[ ]	/* InterpolatePts */
MDAP[1]	/* MoveDirectAbsPt */
MDAP[1]	/* MoveDirectAbsPt */
SVTCA[0]	/* SetFreedomAndProjectionVectorToAxis */
MIAP[1]	/* MoveIndirectAbsPt */
MIRP[01101]	/* MoveIndirectRelPt */
SLOOP[ ]	/* SetLoopVariable */
IP[ ]	/* InterpolatePts */
SRP0[ ]	/* SetRefPoint0 */
MIRP[01101]	/* MoveIndirectRelPt */
SRP0[ ]	/* SetRefPoint0 */
MIRP[01101]	/* MoveIndirectRelPt */
MDAP[1]	/* MoveDirectAbsPt */
MIRP[01101]	/* MoveIndirectRelPt */
MIRP[01101]	/* MoveIndirectRelPt */
MDAP[1]	/* MoveDirectAbsPt */
MIRP[01101]	/* MoveIndirectRelPt */
MDAP[1]	/* MoveDirectAbsPt */
MIRP[01101]	/* MoveIndirectRelPt */
SLOOP[ ]	/* SetLoopVariable */
IP[ ]	/* InterpolatePts */
MIRP[01101]	/* MoveIndirectRelPt */
MIRP[01101]	/* MoveIndirectRelPt */
MDAP[1]	/* MoveDirectAbsPt */
MIRP[01101]	/* MoveIndirectRelPt */
SLOOP[ ]	/* SetLoopVariable */
IP[ ]	/* InterpolatePts */
MIRP[01101]	/* MoveIndirectRelPt */
MIRP[01101]	/* MoveIndirectRelPt */
MDAP[1]	/* MoveDirectAbsPt */
MIRP[01101]	/* MoveIndirectRelPt */
IP[ ]	/* InterpolatePts */
IP[ ]	/* InterpolatePts */
MDAP[1]	/* MoveDirectAbsPt */
MIRP[11101]	/* MoveIndirectRelPt */
MIRP[01101]	/* MoveIndirectRelPt */
MIRP[01101]	/* MoveIndirectRelPt */
MDAP[1]	/* MoveDirectAbsPt */
MIRP[11101]	/* MoveIndirectRelPt */
MIRP[01101]	/* MoveIndirectRelPt */
MDAP[1]	/* MoveDirectAbsPt */
MIRP[01101]	/* MoveIndirectRelPt */
IP[ ]	/* InterpolatePts */
IP[ ]	/* InterpolatePts */
SRP1[ ]	/* SetRefPoint1 */
SRP2[ ]	/* SetRefPoint2 */
IP[ ]	/* InterpolatePts */
IP[ ]	/* InterpolatePts */
SRP1[ ]	/* SetRefPoint1 */
IP[ ]	/* InterpolatePts */
SRP2[ ]	/* SetRefPoint2 */
IP[ ]	/* InterpolatePts */
SRP1[ ]	/* SetRefPoint1 */
SRP2[ ]	/* SetRefPoint2 */
SLOOP[ ]	/* SetLoopVariable */
IP[ ]	/* InterpolatePts */
SRP1[ ]	/* SetRefPoint1 */
SRP2[ ]	/* SetRefPoint2 */
SLOOP[ ]	/* SetLoopVariable */
IP[ ]	/* InterpolatePts */
SRP1[ ]	/* SetRefPoint1 */
SLOOP[ ]	/* SetLoopVariable */
IP[ ]	/* InterpolatePts */
SRP1[ ]	/* SetRefPoint1 */
SRP2[ ]	/* SetRefPoint2 */
IP[ ]	/* InterpolatePts */
IP[ ]	/* InterpolatePts */
IUP[1]	/* InterpolateUntPts */
IUP[0]	/* InterpolateUntPts */";
};
width = 2220;
}
);
note = telephone;
unicode = 39;
}
{
color = 5;
glyphname = telhandset;
layers = (
{
layerId = m01;
shapes = (
{
closed = 1;
nodes = (
(499,-41,o),
(565,-26,o),
(608,17,cs),
(690,99,o),
(796,434,o),
(796,738,cs),
(796,1042,o),
(690,1377,o),
(608,1459,cs),
(563,1503,o),
(499,1517,o),
(425,1517,cs),
(364,1517,o),
(295,1507,o),
(225,1495,cs),
(215,1493,o),
(205,1488,o),
(198,1481,cs),
(188,1471,o),
(184,1459,o),
(184,1445,cs),
(184,1444,o),
(184,1440,o),
(184,1437,cs),
(242,1093,ls),
(244,1081,o),
(249,1073,o),
(256,1064,cs),
(265,1054,o),
(275,1052,o),
(288,1052,cs),
(294,1052,o),
(297,1052,o),
(302,1052,cs),
(360,1052,o),
(422,1080,o),
(519,1121,c),
(567,1056,o),
(603,921,o),
(603,738,cs),
(603,555,o),
(567,420,o),
(519,355,c),
(459,381,o),
(403,400,o),
(364,408,cs),
(348,412,o),
(319,424,o),
(294,424,cs),
(280,424,o),
(266,420,o),
(256,410,cs),
(249,403,o),
(244,393,o),
(241,383,c),
(184,38,ls),
(184,34,o),
(184,32,o),
(184,29,cs),
(184,15,o),
(188,5,o),
(198,-5,cs),
(205,-12,o),
(215,-17,o),
(225,-19,cs),
(295,-31,o),
(362,-41,o),
(423,-41,cs)
);
}
);
userData = {
assembly = "NPUSHB[ ]	/* 18 values pushed */
12 36 12 16 18 36 4 42 0 2 6 3 30 218 42 194 25 2
PUSHW[ ]	/* 4 values pushed */
548 24 6 548
PUSHB[ ]	/* 5 values pushed */
31 24 14 33 12
PUSHW[ ]	/* 7 values pushed */
548 35 16 548 43 4 548
NPUSHB[ ]	/* 10 values pushed */
33 168 28 16 31 35 3 4 9 14
PUSHW[ ]	/* 1 value pushed */
548
PUSHB[ ]	/* 4 values pushed */
45 18 0 9
PUSHW[ ]	/* 1 value pushed */
418
PUSHB[ ]	/* 5 values pushed */
21 45 168 28 21
PUSHW[ ]	/* 2 values pushed */
264 39
MDAP[1]	/* MoveDirectAbsPt */
MIRP[01101]	/* MoveIndirectRelPt */
IP[ ]	/* InterpolatePts */
MIRP[01101]	/* MoveIndirectRelPt */
SRP0[ ]	/* SetRefPoint0 */
MIRP[01101]	/* MoveIndirectRelPt */
IP[ ]	/* InterpolatePts */
IP[ ]	/* InterpolatePts */
SRP0[ ]	/* SetRefPoint0 */
MIRP[00110]	/* MoveIndirectRelPt */
SRP1[ ]	/* SetRefPoint1 */
SRP2[ ]	/* SetRefPoint2 */
SLOOP[ ]	/* SetLoopVariable */
IP[ ]	/* InterpolatePts */
MDAP[1]	/* MoveDirectAbsPt */
MIRP[11101]	/* MoveIndirectRelPt */
MIRP[00110]	/* MoveIndirectRelPt */
SRP0[ ]	/* SetRefPoint0 */
MIRP[00110]	/* MoveIndirectRelPt */
SRP0[ ]	/* SetRefPoint0 */
MIRP[00110]	/* MoveIndirectRelPt */
SRP1[ ]	/* SetRefPoint1 */
SRP2[ ]	/* SetRefPoint2 */
IP[ ]	/* InterpolatePts */
SRP0[ ]	/* SetRefPoint0 */
MIRP[00110]	/* MoveIndirectRelPt */
SRP0[ ]	/* SetRefPoint0 */
MIRP[00110]	/* MoveIndirectRelPt */
SVTCA[0]	/* SetFreedomAndProjectionVectorToAxis */
MDAP[1]	/* MoveDirectAbsPt */
MIRP[01101]	/* MoveIndirectRelPt */
MIRP[01101]	/* MoveIndirectRelPt */
SLOOP[ ]	/* SetLoopVariable */
IP[ ]	/* InterpolatePts */
SRP1[ ]	/* SetRefPoint1 */
SLOOP[ ]	/* SetLoopVariable */
IP[ ]	/* InterpolatePts */
MDAP[1]	/* MoveDirectAbsPt */
MDAP[1]	/* MoveDirectAbsPt */
IUP[1]	/* InterpolateUntPts */
IUP[0]	/* InterpolateUntPts */";
};
width = 989;
}
);
note = telhandset;
unicode = 40;
}
{
color = 5;
glyphname = file1;
layers = (
{
layerId = m01;
shapes = (
{
closed = 1;
nodes = (
(1249,0,l),
(1249,737,l),
(1192,856,o),
(1156,908,o),
(1100,961,cs),
(1048,1011,o),
(975,1056,o),
(890,1085,c),
(172,1085,l),
(172,0,l),
(172,0,l)
);
},
{
closed = 1;
nodes = (
(210,1047,l),
(921,1047,l),
(884,1079,l),
(895,1022,o),
(901,956,o),
(890,869,cs),
(887,836,l),
(919,835,ls),
(962,832,o),
(1033,827,o),
(1083,813,cs),
(1166,790,o),
(1183,760,o),
(1245,706,c),
(1209,758,l),
(1209,40,l),
(210,40,l),
(210,40,l)
);
}
);
userData = {
assembly = "NPUSHB[ ]	/* 32 values pushed */
0 10 3 8 124 1 10 124 6 11 124 1 6 235 5 0 2 12 7 8 116 1 11 116 5 12 116 4 1 4 190 5
MDAP[1]	/* MoveDirectAbsPt */
MIRP[01110]	/* MoveIndirectRelPt */
IP[ ]	/* InterpolatePts */
SRP0[ ]	/* SetRefPoint0 */
MIRP[01101]	/* MoveIndirectRelPt */
SRP0[ ]	/* SetRefPoint0 */
MIRP[01101]	/* MoveIndirectRelPt */
MDAP[1]	/* MoveDirectAbsPt */
MIRP[01101]	/* MoveIndirectRelPt */
IP[ ]	/* InterpolatePts */
SRP2[ ]	/* SetRefPoint2 */
IP[ ]	/* InterpolatePts */
SVTCA[0]	/* SetFreedomAndProjectionVectorToAxis */
MIAP[1]	/* MoveIndirectAbsPt */
MIRP[01110]	/* MoveIndirectRelPt */
IP[ ]	/* InterpolatePts */
MIRP[01101]	/* MoveIndirectRelPt */
SRP0[ ]	/* SetRefPoint0 */
MIRP[01101]	/* MoveIndirectRelPt */
MDAP[1]	/* MoveDirectAbsPt */
MIRP[01101]	/* MoveIndirectRelPt */
IP[ ]	/* InterpolatePts */
SRP2[ ]	/* SetRefPoint2 */
IP[ ]	/* InterpolatePts */
IUP[1]	/* InterpolateUntPts */
IUP[0]	/* InterpolateUntPts */";
};
width = 1431;
}
);
note = file1;
unicode = 41;
}
{
color = 5;
glyphname = file;
layers = (
{
layerId = m01;
shapes = (
{
closed = 1;
nodes = (
(1262,0,l),
(1262,1122,l),
(171,1122,l),
(171,0,l),
(171,0,l)
);
},
{
closed = 1;
nodes = (
(203,1090,l),
(1230,1090,l),
(1230,33,l),
(203,33,l),
(203,33,l)
);
}
);
userData = {
assembly = "NPUSHB[ ]	/* 17 values pushed */
5 124 3 6 124 3 235 2 0 6 116 2 7 116 1 190 2
MDAP[1]	/* MoveDirectAbsPt */
MIRP[11110]	/* MoveIndirectRelPt */
MIRP[01101]	/* MoveIndirectRelPt */
SRP0[ ]	/* SetRefPoint0 */
MIRP[01101]	/* MoveIndirectRelPt */
SVTCA[0]	/* SetFreedomAndProjectionVectorToAxis */
MIAP[1]	/* MoveIndirectAbsPt */
MIRP[01110]	/* MoveIndirectRelPt */
MIRP[01101]	/* MoveIndirectRelPt */
SRP0[ ]	/* SetRefPoint0 */
MIRP[01101]	/* MoveIndirectRelPt */
IUP[1]	/* InterpolateUntPts */
IUP[0]	/* InterpolateUntPts */";
};
width = 1431;
}
);
note = file;
unicode = 42;
}
{
color = 5;
glyphname = file3;
layers = (
{
layerId = m01;
shapes = (
{
closed = 1;
nodes = (
(1252,-395,l),
(1252,-196,l),
(1452,-196,l),
(1452,3,l),
(1652,3,l),
(1652,1135,l),
(572,1135,l),
(572,936,l),
(372,936,l),
(372,737,l),
(172,737,l),
(172,-395,l)
);
},
{
closed = 1;
nodes = (
(204,705,l),
(1219,705,l),
(1219,-362,l),
(204,-362,l)
);
},
{
closed = 1;
nodes = (
(404,904,l),
(1419,904,l),
(1419,-163,l),
(1252,-163,l),
(1252,737,l),
(404,737,l)
);
},
{
closed = 1;
nodes = (
(604,1103,l),
(1619,1103,l),
(1619,36,l),
(1452,36,l),
(1452,936,l),
(604,936,l)
);
}
);
userData = {
assembly = "PUSHB[ ]	/* 6 values pushed */
4 25 124 5 5 19
PUSHW[ ]	/* 1 value pushed */
550
NPUSHB[ ]	/* 32 values pushed */
18 13 18 124 6 21 124 1 15 124 11 0 12 124 8 26 124 1 11 5 3 8 192 3 2 21 19 116 5 27 116 21
PUSHW[ ]	/* 1 value pushed */
549
NPUSHB[ ]	/* 11 values pushed */
22 15 22 116 0 26 116 3 13 116 7
PUSHW[ ]	/* 1 value pushed */
382
PUSHB[ ]	/* 8 values pushed */
16 116 10 0 5 10 140 3
MDAP[1]	/* MoveDirectAbsPt */
MIRP[01101]	/* MoveIndirectRelPt */
IP[ ]	/* InterpolatePts */
IP[ ]	/* InterpolatePts */
SRP0[ ]	/* SetRefPoint0 */
MIRP[01101]	/* MoveIndirectRelPt */
MIRP[11101]	/* MoveIndirectRelPt */
MIRP[01101]	/* MoveIndirectRelPt */
SRP0[ ]	/* SetRefPoint0 */
MIRP[01101]	/* MoveIndirectRelPt */
MDAP[1]	/* MoveDirectAbsPt */
MIRP[01101]	/* MoveIndirectRelPt */
ALIGNRP[ ]	/* AlignRelativePt */
SRP0[ ]	/* SetRefPoint0 */
MIRP[11110]	/* MoveIndirectRelPt */
MIRP[01101]	/* MoveIndirectRelPt */
MDAP[1]	/* MoveDirectAbsPt */
MIRP[01101]	/* MoveIndirectRelPt */
SRP0[ ]	/* SetRefPoint0 */
ALIGNRP[ ]	/* AlignRelativePt */
SVTCA[0]	/* SetFreedomAndProjectionVectorToAxis */
MDAP[1]	/* MoveDirectAbsPt */
MIRP[01101]	/* MoveIndirectRelPt */
SLOOP[ ]	/* SetLoopVariable */
IP[ ]	/* InterpolatePts */
MIRP[01101]	/* MoveIndirectRelPt */
SRP0[ ]	/* SetRefPoint0 */
MIRP[01101]	/* MoveIndirectRelPt */
MIAP[1]	/* MoveIndirectAbsPt */
MIRP[01101]	/* MoveIndirectRelPt */
MDAP[1]	/* MoveDirectAbsPt */
MIRP[01101]	/* MoveIndirectRelPt */
MDAP[1]	/* MoveDirectAbsPt */
MIRP[01101]	/* MoveIndirectRelPt */
ALIGNRP[ ]	/* AlignRelativePt */
SRP0[ ]	/* SetRefPoint0 */
MIRP[11110]	/* MoveIndirectRelPt */
ALIGNRP[ ]	/* AlignRelativePt */
SRP0[ ]	/* SetRefPoint0 */
MIRP[01101]	/* MoveIndirectRelPt */
ALIGNRP[ ]	/* AlignRelativePt */
IUP[1]	/* InterpolateUntPts */
IUP[0]	/* InterpolateUntPts */";
};
width = 1826;
}
);
note = file3;
unicode = 43;
}
{
color = 5;
glyphname = filetext1;
layers = (
{
layerId = m01;
shapes = (
{
closed = 1;
nodes = (
(1262,0,l),
(1262,833,l),
(1215,932,o),
(1186,975,o),
(1139,1019,cs),
(1097,1061,o),
(1035,1098,o),
(966,1122,c),
(171,1122,l),
(171,0,l),
(171,0,l)
);
},
{
closed = 1;
nodes = (
(1059,300,ls),
(1073,300,o),
(1085,310,o),
(1085,323,cs),
(1085,339,o),
(1073,350,o),
(1059,350,cs),
(312,350,ls),
(297,350,o),
(286,339,o),
(286,323,cs),
(286,310,o),
(297,300,o),
(312,300,cs)
);
},
{
closed = 1;
nodes = (
(1122,437,ls),
(1136,437,o),
(1147,448,o),
(1147,461,cs),
(1147,474,o),
(1136,485,o),
(1122,485,cs),
(312,485,ls),
(297,485,o),
(286,474,o),
(286,461,cs),
(286,448,o),
(297,437,o),
(312,437,cs)
);
},
{
closed = 1;
nodes = (
(997,571,ls),
(1011,571,o),
(1023,583,o),
(1023,597,cs),
(1023,611,o),
(1011,622,o),
(997,622,cs),
(312,622,ls),
(297,622,o),
(286,611,o),
(286,597,cs),
(286,583,o),
(297,571,o),
(312,571,cs)
);
},
{
closed = 1;
nodes = (
(203,1090,l),
(991,1090,l),
(960,1117,l),
(987,1035,o),
(1003,960,o),
(1003,871,c),
(1112,861,o),
(1154,856,o),
(1258,809,c),
(1230,852,l),
(1230,33,l),
(203,33,l),
(203,33,l)
);
},
{
closed = 1;
nodes = (
(772,844,ls),
(786,844,o),
(797,856,o),
(797,869,cs),
(797,882,o),
(786,893,o),
(772,893,cs),
(312,893,ls),
(297,893,o),
(286,882,o),
(286,869,cs),
(286,856,o),
(297,844,o),
(312,844,cs)
);
},
{
closed = 1;
nodes = (
(1122,707,ls),
(1136,707,o),
(1147,719,o),
(1147,733,cs),
(1147,747,o),
(1136,757,o),
(1122,757,cs),
(312,757,ls),
(297,757,o),
(286,747,o),
(286,733,cs),
(286,719,o),
(297,707,o),
(312,707,cs)
);
}
);
userData = {
assembly = "NPUSHB[ ]	/* 69 values pushed */
0 10 27 1 3 8 3 22 124 23 19 124 18 15 124 14 26 124 27 11 124 5 10 124 6 14 18 23 27 4 6 235 5 0 21 21 2 12 7 8 116 1 29 26 22 156 18 156 19 156 15 156 25 156 14 11 116 5 12 116 4 146 17 1 17 158 14 146 5
MDAP[1]	/* MoveDirectAbsPt */
MIRP[10100]	/* MoveIndirectRelPt */
MIRP[01101]	/* MoveIndirectRelPt */
IP[ ]	/* InterpolatePts */
SRP0[ ]	/* SetRefPoint0 */
MIRP[10100]	/* MoveIndirectRelPt */
MIRP[01101]	/* MoveIndirectRelPt */
SRP0[ ]	/* SetRefPoint0 */
MIRP[01101]	/* MoveIndirectRelPt */
SRP0[ ]	/* SetRefPoint0 */
MIRP[11101]	/* MoveIndirectRelPt */
MIRP[01101]	/* MoveIndirectRelPt */
MIRP[01101]	/* MoveIndirectRelPt */
MIRP[01101]	/* MoveIndirectRelPt */
MIRP[01101]	/* MoveIndirectRelPt */
IP[ ]	/* InterpolatePts */
IP[ ]	/* InterpolatePts */
MDAP[1]	/* MoveDirectAbsPt */
MIRP[01101]	/* MoveIndirectRelPt */
IP[ ]	/* InterpolatePts */
SRP2[ ]	/* SetRefPoint2 */
IP[ ]	/* InterpolatePts */
IP[ ]	/* InterpolatePts */
MDAP[1]	/* MoveDirectAbsPt */
SVTCA[0]	/* SetFreedomAndProjectionVectorToAxis */
MIAP[1]	/* MoveIndirectAbsPt */
MIRP[01110]	/* MoveIndirectRelPt */
SLOOP[ ]	/* SetLoopVariable */
IP[ ]	/* InterpolatePts */
SRP0[ ]	/* SetRefPoint0 */
MIRP[01101]	/* MoveIndirectRelPt */
SRP0[ ]	/* SetRefPoint0 */
MIRP[01101]	/* MoveIndirectRelPt */
MDAP[1]	/* MoveDirectAbsPt */
MIRP[01101]	/* MoveIndirectRelPt */
MDAP[1]	/* MoveDirectAbsPt */
MIRP[01101]	/* MoveIndirectRelPt */
MDAP[1]	/* MoveDirectAbsPt */
MIRP[01101]	/* MoveIndirectRelPt */
MDAP[1]	/* MoveDirectAbsPt */
MIRP[01101]	/* MoveIndirectRelPt */
SLOOP[ ]	/* SetLoopVariable */
IP[ ]	/* InterpolatePts */
SRP1[ ]	/* SetRefPoint1 */
SRP2[ ]	/* SetRefPoint2 */
IP[ ]	/* InterpolatePts */
IUP[1]	/* InterpolateUntPts */
IUP[0]	/* InterpolateUntPts */";
};
width = 1431;
}
);
note = filetext1;
unicode = 44;
}
{
color = 5;
glyphname = filetext;
layers = (
{
layerId = m01;
shapes = (
{
closed = 1;
nodes = (
(1262,0,l),
(1262,1122,l),
(171,1122,l),
(171,0,l),
(171,0,l)
);
},
{
closed = 1;
nodes = (
(1059,300,ls),
(1073,300,o),
(1085,310,o),
(1085,323,cs),
(1085,339,o),
(1073,350,o),
(1059,350,cs),
(312,350,ls),
(297,350,o),
(286,339,o),
(286,323,cs),
(286,310,o),
(297,300,o),
(312,300,cs)
);
},
{
closed = 1;
nodes = (
(1122,437,ls),
(1136,437,o),
(1147,448,o),
(1147,461,cs),
(1147,474,o),
(1136,485,o),
(1122,485,cs),
(312,485,ls),
(297,485,o),
(286,474,o),
(286,461,cs),
(286,448,o),
(297,437,o),
(312,437,cs)
);
},
{
closed = 1;
nodes = (
(997,571,ls),
(1011,571,o),
(1023,583,o),
(1023,597,cs),
(1023,611,o),
(1011,622,o),
(997,622,cs),
(312,622,ls),
(297,622,o),
(286,611,o),
(286,597,cs),
(286,583,o),
(297,571,o),
(312,571,cs)
);
},
{
closed = 1;
nodes = (
(203,1090,l),
(1230,1090,l),
(1230,33,l),
(203,33,l),
(203,33,l)
);
},
{
closed = 1;
nodes = (
(772,844,ls),
(786,844,o),
(797,856,o),
(797,869,cs),
(797,882,o),
(786,893,o),
(772,893,cs),
(312,893,ls),
(297,893,o),
(286,882,o),
(286,869,cs),
(286,856,o),
(297,844,o),
(312,844,cs)
);
},
{
closed = 1;
nodes = (
(1122,707,ls),
(1136,707,o),
(1147,719,o),
(1147,733,cs),
(1147,747,o),
(1136,757,o),
(1122,757,cs),
(312,757,ls),
(297,757,o),
(286,747,o),
(286,733,cs),
(286,719,o),
(297,707,o),
(312,707,cs)
);
}
);
userData = {
assembly = "NPUSHB[ ]	/* 57 values pushed */
13 124 12 20 124 21 9 124 8 16 124 17 5 124 3 6 124 8 12 17 21 4 3 235 2 0 23 19 11 16 20 9 6 15 158 16 12 158 13 158 9 158 11 6 116 2 7 116 1 146 11 158 8 16 8 146 2
MDAP[1]	/* MoveDirectAbsPt */
MIRP[00100]	/* MoveIndirectRelPt */
IP[ ]	/* InterpolatePts */
SRP0[ ]	/* SetRefPoint0 */
MIRP[11101]	/* MoveIndirectRelPt */
MIRP[10100]	/* MoveIndirectRelPt */
MIRP[01101]	/* MoveIndirectRelPt */
SRP0[ ]	/* SetRefPoint0 */
MIRP[01101]	/* MoveIndirectRelPt */
SRP0[ ]	/* SetRefPoint0 */
MIRP[01101]	/* MoveIndirectRelPt */
MIRP[01101]	/* MoveIndirectRelPt */
MIRP[01101]	/* MoveIndirectRelPt */
SRP0[ ]	/* SetRefPoint0 */
MIRP[01101]	/* MoveIndirectRelPt */
SRP1[ ]	/* SetRefPoint1 */
SRP2[ ]	/* SetRefPoint2 */
IP[ ]	/* InterpolatePts */
SRP1[ ]	/* SetRefPoint1 */
SRP2[ ]	/* SetRefPoint2 */
IP[ ]	/* InterpolatePts */
IP[ ]	/* InterpolatePts */
SVTCA[0]	/* SetFreedomAndProjectionVectorToAxis */
MIAP[1]	/* MoveIndirectAbsPt */
MIRP[01110]	/* MoveIndirectRelPt */
SLOOP[ ]	/* SetLoopVariable */
IP[ ]	/* InterpolatePts */
MIRP[01101]	/* MoveIndirectRelPt */
SRP0[ ]	/* SetRefPoint0 */
MIRP[01101]	/* MoveIndirectRelPt */
MDAP[1]	/* MoveDirectAbsPt */
MIRP[01101]	/* MoveIndirectRelPt */
MDAP[1]	/* MoveDirectAbsPt */
MIRP[01101]	/* MoveIndirectRelPt */
MDAP[1]	/* MoveDirectAbsPt */
MIRP[01101]	/* MoveIndirectRelPt */
MDAP[1]	/* MoveDirectAbsPt */
MIRP[01101]	/* MoveIndirectRelPt */
IUP[1]	/* InterpolateUntPts */
IUP[0]	/* InterpolateUntPts */";
};
width = 1431;
}
);
note = filetext;
unicode = 45;
}
{
color = 5;
glyphname = filetext3;
layers = (
{
layerId = m01;
shapes = (
{
closed = 1;
nodes = (
(1252,-395,l),
(1252,-196,l),
(1452,-196,l),
(1452,3,l),
(1652,3,l),
(1652,1135,l),
(572,1135,l),
(572,936,l),
(372,936,l),
(372,737,l),
(172,737,l),
(172,-395,l),
(172,-395,l)
);
},
{
closed = 1;
nodes = (
(1047,-92,ls),
(1061,-92,o),
(1073,-82,o),
(1073,-68,cs),
(1073,-54,o),
(1061,-42,o),
(1047,-42,cs),
(314,-42,ls),
(300,-42,o),
(289,-54,o),
(289,-68,cs),
(289,-82,o),
(300,-92,o),
(314,-92,cs)
);
},
{
closed = 1;
nodes = (
(1110,45,ls),
(1124,45,o),
(1136,56,o),
(1136,70,cs),
(1136,83,o),
(1124,95,o),
(1110,95,cs),
(314,95,ls),
(300,95,o),
(289,83,o),
(289,70,cs),
(289,56,o),
(300,45,o),
(314,45,cs)
);
},
{
closed = 1;
nodes = (
(984,182,ls),
(998,182,o),
(1010,194,o),
(1010,208,cs),
(1010,222,o),
(998,232,o),
(984,232,cs),
(314,232,ls),
(300,232,o),
(289,222,o),
(289,208,cs),
(289,194,o),
(300,182,o),
(314,182,cs)
);
},
{
closed = 1;
nodes = (
(204,705,l),
(1219,705,l),
(1219,-362,l),
(204,-362,l),
(204,-362,l)
);
},
{
closed = 1;
nodes = (
(757,458,ls),
(771,458,o),
(782,469,o),
(782,482,cs),
(782,496,o),
(771,508,o),
(757,508,cs),
(314,508,ls),
(300,508,o),
(289,496,o),
(289,482,cs),
(289,469,o),
(300,458,o),
(314,458,cs)
);
},
{
closed = 1;
nodes = (
(1110,319,ls),
(1124,319,o),
(1136,331,o),
(1136,345,cs),
(1136,359,o),
(1124,369,o),
(1110,369,cs),
(314,369,ls),
(300,369,o),
(289,359,o),
(289,345,cs),
(289,331,o),
(300,319,o),
(314,319,cs)
);
},
{
closed = 1;
nodes = (
(404,904,l),
(1419,904,l),
(1419,-163,l),
(1252,-163,l),
(1252,737,l),
(404,737,l),
(404,737,l)
);
},
{
closed = 1;
nodes = (
(604,1103,l),
(1619,1103,l),
(1619,36,l),
(1452,36,l),
(1452,936,l),
(604,936,l),
(604,936,l)
);
}
);
userData = {
assembly = "NPUSHB[ ]	/* 27 values pushed */
21 124 1 37 124 36 13 18 124 6 15 124 11 0 40 124 41 29 124 28 33 124 32 19 25 124 4
PUSHW[ ]	/* 1 value pushed */
384
NPUSHB[ ]	/* 52 values pushed */
3 12 124 8 26 124 1 28 11 32 36 41 6 7 8 192 3 43 39 31 13 40 5 19 116 35 158 36 32 158 33 158 29 158 31 158 28 15 22 116 0 21 27 116 2 190 26 116 3 13 116 7
PUSHW[ ]	/* 1 value pushed */
382
NPUSHB[ ]	/* 10 values pushed */
16 116 10 28 36 0 3 10 140 3
MDAP[1]	/* MoveDirectAbsPt */
MIRP[01101]	/* MoveIndirectRelPt */
SLOOP[ ]	/* SetLoopVariable */
IP[ ]	/* InterpolatePts */
SRP0[ ]	/* SetRefPoint0 */
MIRP[01101]	/* MoveIndirectRelPt */
MIRP[11101]	/* MoveIndirectRelPt */
MIRP[01101]	/* MoveIndirectRelPt */
SRP0[ ]	/* SetRefPoint0 */
MIRP[01101]	/* MoveIndirectRelPt */
MIRP[11110]	/* MoveIndirectRelPt */
MIRP[01101]	/* MoveIndirectRelPt */
IP[ ]	/* InterpolatePts */
MDAP[1]	/* MoveDirectAbsPt */
MIRP[01101]	/* MoveIndirectRelPt */
IP[ ]	/* InterpolatePts */
MDAP[1]	/* MoveDirectAbsPt */
MIRP[11101]	/* MoveIndirectRelPt */
MIRP[01101]	/* MoveIndirectRelPt */
MIRP[01101]	/* MoveIndirectRelPt */
MIRP[01101]	/* MoveIndirectRelPt */
MDAP[1]	/* MoveDirectAbsPt */
MIRP[01101]	/* MoveIndirectRelPt */
MIRP[01101]	/* MoveIndirectRelPt */
IP[ ]	/* InterpolatePts */
IP[ ]	/* InterpolatePts */
SRP1[ ]	/* SetRefPoint1 */
SRP2[ ]	/* SetRefPoint2 */
IP[ ]	/* InterpolatePts */
IP[ ]	/* InterpolatePts */
SVTCA[0]	/* SetFreedomAndProjectionVectorToAxis */
MDAP[1]	/* MoveDirectAbsPt */
MIRP[01101]	/* MoveIndirectRelPt */
SLOOP[ ]	/* SetLoopVariable */
IP[ ]	/* InterpolatePts */
MIRP[01101]	/* MoveIndirectRelPt */
SRP0[ ]	/* SetRefPoint0 */
MIRP[01101]	/* MoveIndirectRelPt */
SRP0[ ]	/* SetRefPoint0 */
MIRP[11110]	/* MoveIndirectRelPt */
MIRP[01101]	/* MoveIndirectRelPt */
IP[ ]	/* InterpolatePts */
MDAP[1]	/* MoveDirectAbsPt */
MIRP[01101]	/* MoveIndirectRelPt */
MDAP[1]	/* MoveDirectAbsPt */
MIRP[01101]	/* MoveIndirectRelPt */
MDAP[1]	/* MoveDirectAbsPt */
MIRP[01101]	/* MoveIndirectRelPt */
MIAP[1]	/* MoveIndirectAbsPt */
MIRP[01101]	/* MoveIndirectRelPt */
MDAP[1]	/* MoveDirectAbsPt */
MIRP[01101]	/* MoveIndirectRelPt */
IP[ ]	/* InterpolatePts */
MDAP[1]	/* MoveDirectAbsPt */
MIRP[01101]	/* MoveIndirectRelPt */
MDAP[1]	/* MoveDirectAbsPt */
MIRP[01101]	/* MoveIndirectRelPt */
IUP[1]	/* InterpolateUntPts */
IUP[0]	/* InterpolateUntPts */";
};
width = 1826;
}
);
note = filetext3;
unicode = 46;
}
{
color = 5;
glyphname = filetall1;
layers = (
{
layerId = m01;
shapes = (
{
closed = 1;
nodes = (
(1259,0,l),
(1259,1132,l),
(1202,1251,o),
(1166,1303,o),
(1110,1356,cs),
(1058,1406,o),
(985,1451,o),
(900,1480,c),
(172,1480,l),
(172,0,l)
);
},
{
closed = 1;
nodes = (
(210,1442,l),
(931,1442,l),
(894,1474,l),
(905,1417,o),
(911,1351,o),
(900,1264,c),
(897,1231,l),
(929,1230,l),
(972,1227,o),
(1043,1222,o),
(1093,1208,cs),
(1176,1185,o),
(1193,1155,o),
(1255,1101,c),
(1219,1153,l),
(1219,40,l),
(210,40,l)
);
}
);
userData = {
assembly = "NPUSHB[ ]	/* 32 values pushed */
0 10 3 8 124 1 10 124 6 11 124 1 6 174 5 0 2 12 7 8 116 1 11 116 5 12 116 4 1 4 190 5
MDAP[1]	/* MoveDirectAbsPt */
MIRP[01110]	/* MoveIndirectRelPt */
IP[ ]	/* InterpolatePts */
SRP0[ ]	/* SetRefPoint0 */
MIRP[01101]	/* MoveIndirectRelPt */
SRP0[ ]	/* SetRefPoint0 */
MIRP[01101]	/* MoveIndirectRelPt */
MDAP[1]	/* MoveDirectAbsPt */
MIRP[01101]	/* MoveIndirectRelPt */
IP[ ]	/* InterpolatePts */
SRP2[ ]	/* SetRefPoint2 */
IP[ ]	/* InterpolatePts */
SVTCA[0]	/* SetFreedomAndProjectionVectorToAxis */
MIAP[1]	/* MoveIndirectAbsPt */
MIRP[01110]	/* MoveIndirectRelPt */
IP[ ]	/* InterpolatePts */
MIRP[01101]	/* MoveIndirectRelPt */
SRP0[ ]	/* SetRefPoint0 */
MIRP[01101]	/* MoveIndirectRelPt */
MDAP[1]	/* MoveDirectAbsPt */
MIRP[01101]	/* MoveIndirectRelPt */
IP[ ]	/* InterpolatePts */
SRP2[ ]	/* SetRefPoint2 */
IP[ ]	/* InterpolatePts */
IUP[1]	/* InterpolateUntPts */
IUP[0]	/* InterpolateUntPts */";
};
width = 1431;
}
);
note = filetall1;
unicode = 47;
}
{
color = 5;
glyphname = filetall;
layers = (
{
layerId = m01;
shapes = (
{
closed = 1;
nodes = (
(1257,0,l),
(1257,1480,l),
(175,1480,l),
(175,0,l),
(175,0,l)
);
},
{
closed = 1;
nodes = (
(232,1417,l),
(1199,1417,l),
(1199,63,l),
(232,63,l),
(232,63,l)
);
}
);
userData = {
assembly = "NPUSHB[ ]	/* 17 values pushed */
5 124 3 6 124 3 174 2 0 6 116 2 7 116 1 190 2
MDAP[1]	/* MoveDirectAbsPt */
MIRP[11110]	/* MoveIndirectRelPt */
MIRP[01101]	/* MoveIndirectRelPt */
SRP0[ ]	/* SetRefPoint0 */
MIRP[01101]	/* MoveIndirectRelPt */
SVTCA[0]	/* SetFreedomAndProjectionVectorToAxis */
MIAP[1]	/* MoveIndirectAbsPt */
MIRP[01110]	/* MoveIndirectRelPt */
MIRP[01101]	/* MoveIndirectRelPt */
SRP0[ ]	/* SetRefPoint0 */
MIRP[01101]	/* MoveIndirectRelPt */
IUP[1]	/* InterpolateUntPts */
IUP[0]	/* InterpolateUntPts */";
};
width = 1431;
}
);
note = filetall;
unicode = 48;
}
{
color = 5;
glyphname = filetall3;
layers = (
{
layerId = m01;
shapes = (
{
closed = 1;
nodes = (
(1257,-395,l),
(1257,-195,l),
(1457,-195,l),
(1457,5,l),
(1657,5,l),
(1657,1485,l),
(575,1485,l),
(575,1285,l),
(375,1285,l),
(375,1085,l),
(175,1085,l),
(175,-395,l)
);
},
{
closed = 1;
nodes = (
(232,1022,l),
(1199,1022,l),
(1199,-332,l),
(232,-332,l)
);
},
{
closed = 1;
nodes = (
(1257,1085,l),
(432,1085,l),
(432,1222,l),
(1399,1222,l),
(1399,-132,l),
(1257,-132,l)
);
},
{
closed = 1;
nodes = (
(1457,1285,l),
(632,1285,l),
(632,1422,l),
(1599,1422,l),
(1599,68,l),
(1457,68,l)
);
}
);
userData = {
assembly = "NPUSHB[ ]	/* 27 values pushed */
13 18 124 6 21 124 1 15 124 11 0 19 25 124 4 174 3 12 124 8 26 124 1 11 6 3 8
PUSHW[ ]	/* 1 value pushed */
551
NPUSHB[ ]	/* 14 values pushed */
3 19 116 5 15 22 0 27 116 21 2 1 1 21
PUSHW[ ]	/* 1 value pushed */
549
NPUSHB[ ]	/* 9 values pushed */
22 116 0 26 116 3 13 116 7
PUSHW[ ]	/* 1 value pushed */
382
PUSHB[ ]	/* 8 values pushed */
16 116 10 0 5 10 140 3
MDAP[1]	/* MoveDirectAbsPt */
MIRP[01101]	/* MoveIndirectRelPt */
IP[ ]	/* InterpolatePts */
IP[ ]	/* InterpolatePts */
SRP0[ ]	/* SetRefPoint0 */
MIRP[01101]	/* MoveIndirectRelPt */
MIRP[11101]	/* MoveIndirectRelPt */
MIRP[01101]	/* MoveIndirectRelPt */
SRP0[ ]	/* SetRefPoint0 */
MIRP[01101]	/* MoveIndirectRelPt */
MDAP[1]	/* MoveDirectAbsPt */
MIRP[11101]	/* MoveIndirectRelPt */
MIRP[11110]	/* MoveIndirectRelPt */
ALIGNRP[ ]	/* AlignRelativePt */
SRP0[ ]	/* SetRefPoint0 */
ALIGNRP[ ]	/* AlignRelativePt */
SRP0[ ]	/* SetRefPoint0 */
MIRP[01101]	/* MoveIndirectRelPt */
SRP1[ ]	/* SetRefPoint1 */
SRP2[ ]	/* SetRefPoint2 */
IP[ ]	/* InterpolatePts */
MDAP[1]	/* MoveDirectAbsPt */
MIRP[01101]	/* MoveIndirectRelPt */
SVTCA[0]	/* SetFreedomAndProjectionVectorToAxis */
MDAP[1]	/* MoveDirectAbsPt */
MIRP[01101]	/* MoveIndirectRelPt */
SLOOP[ ]	/* SetLoopVariable */
IP[ ]	/* InterpolatePts */
MIRP[01101]	/* MoveIndirectRelPt */
SRP0[ ]	/* SetRefPoint0 */
MIRP[01101]	/* MoveIndirectRelPt */
SRP0[ ]	/* SetRefPoint0 */
MIRP[11110]	/* MoveIndirectRelPt */
MIRP[01101]	/* MoveIndirectRelPt */
IP[ ]	/* InterpolatePts */
MIAP[1]	/* MoveIndirectAbsPt */
MIRP[01101]	/* MoveIndirectRelPt */
MDAP[1]	/* MoveDirectAbsPt */
MIRP[01101]	/* MoveIndirectRelPt */
MDAP[1]	/* MoveDirectAbsPt */
MIRP[01101]	/* MoveIndirectRelPt */
IP[ ]	/* InterpolatePts */
IUP[1]	/* InterpolateUntPts */
IUP[0]	/* InterpolateUntPts */";
};
width = 1826;
}
);
note = filetall3;
unicode = 49;
}
{
color = 5;
glyphname = clipboard;
layers = (
{
layerId = m01;
shapes = (
{
closed = 1;
nodes = (
(406,1183,l),
(406,1214,l),
(627,1338,l),
(567,1440,l),
(863,1440,l),
(803,1338,l),
(1024,1214,l),
(1024,1183,l)
);
},
{
closed = 1;
nodes = (
(1064,1217,ls),
(1064,1231,o),
(1059,1240,o),
(1047,1247,cs),
(880,1341,ls),
(866,1349,o),
(863,1361,o),
(871,1375,cs),
(915,1450,ls),
(925,1468,o),
(918,1480,o),
(898,1480,cs),
(532,1480,ls),
(512,1480,o),
(505,1468,o),
(515,1450,cs),
(559,1375,ls),
(567,1361,o),
(564,1349,o),
(550,1341,cs),
(383,1247,ls),
(371,1240,o),
(366,1231,o),
(366,1217,cs),
(366,1168,ls),
(366,1152,o),
(375,1143,o),
(391,1143,cs),
(1039,1143,ls),
(1055,1143,o),
(1064,1152,o),
(1064,1168,cs)
);
},
{
closed = 1;
nodes = (
(1057,1333,ls),
(1179,1333,o),
(1198,1314,o),
(1198,1212,cs),
(1198,161,ls),
(1198,59,o),
(1179,40,o),
(1057,40,cs),
(373,40,ls),
(251,40,o),
(232,59,o),
(232,161,cs),
(232,1212,ls),
(232,1314,o),
(251,1333,o),
(373,1333,cs),
(583,1333,l),
(590,1373,l),
(373,1373,ls),
(228,1373,o),
(192,1336,o),
(192,1212,cs),
(192,161,ls),
(192,37,o),
(228,0,o),
(373,0,cs),
(1057,0,ls),
(1202,0,o),
(1238,37,o),
(1238,161,cs),
(1238,1212,ls),
(1238,1336,o),
(1202,1373,o),
(1057,1373,cs),
(840,1373,l),
(847,1333,l)
);
}
);
userData = {
assembly = "NPUSHB[ ]	/* 47 values pushed */
7 26 27 30 31 49 6 33 124 23 53 124 24 40 124 16 29 124 3 23 24 3 123 16 0 26 31 0 7 24 25 26 28 29 31 32 49 10 52 158 53 37 116 19 44 116 12
PUSHW[ ]	/* 3 values pushed */
324 4 546
PUSHB[ ]	/* 3 values pushed */
3 53 3
PUSHW[ ]	/* 2 values pushed */
324 19
MDAP[1]	/* MoveDirectAbsPt */
MIRP[00100]	/* MoveIndirectRelPt */
IP[ ]	/* InterpolatePts */
SRP0[ ]	/* SetRefPoint0 */
MIRP[11101]	/* MoveIndirectRelPt */
MIRP[10100]	/* MoveIndirectRelPt */
MIRP[01101]	/* MoveIndirectRelPt */
SRP0[ ]	/* SetRefPoint0 */
MIRP[01101]	/* MoveIndirectRelPt */
MDAP[1]	/* MoveDirectAbsPt */
MIRP[01101]	/* MoveIndirectRelPt */
SLOOP[ ]	/* SetLoopVariable */
IP[ ]	/* InterpolatePts */
MDAP[1]	/* MoveDirectAbsPt */
MDAP[1]	/* MoveDirectAbsPt */
SVTCA[0]	/* SetFreedomAndProjectionVectorToAxis */
MIAP[1]	/* MoveIndirectAbsPt */
MIRP[01101]	/* MoveIndirectRelPt */
IP[ ]	/* InterpolatePts */
IP[ ]	/* InterpolatePts */
SRP0[ ]	/* SetRefPoint0 */
MIRP[01101]	/* MoveIndirectRelPt */
SRP0[ ]	/* SetRefPoint0 */
MIRP[01101]	/* MoveIndirectRelPt */
MDAP[1]	/* MoveDirectAbsPt */
MIRP[01101]	/* MoveIndirectRelPt */
MDAP[1]	/* MoveDirectAbsPt */
MIRP[01101]	/* MoveIndirectRelPt */
SLOOP[ ]	/* SetLoopVariable */
IP[ ]	/* InterpolatePts */
IUP[1]	/* InterpolateUntPts */
IUP[0]	/* InterpolateUntPts */";
};
width = 1431;
}
);
note = clipboard;
unicode = 50;
}
{
color = 5;
glyphname = trashcan;
layers = (
{
layerId = m01;
shapes = (
{
closed = 1;
nodes = (
(791,0,o),
(866,7,o),
(937,24,cs),
(974,35,o),
(1009,47,o),
(1042,67,cs),
(1061,76,o),
(1080,88,o),
(1096,106,cs),
(1104,114,o),
(1111,123,o),
(1118,135,cs),
(1123,147,o),
(1127,160,o),
(1128,173,cs),
(1165,378,o),
(1309,1208,o),
(1282,1055,c),
(1345,1095,o),
(1383,1156,o),
(1383,1211,cs),
(1383,1408,o),
(1014,1480,o),
(706,1480,cs),
(372,1480,o),
(48,1397,o),
(48,1209,cs),
(48,1153,o),
(86,1093,o),
(148,1055,c),
(151,1034,o),
(226,618,o),
(308,173,cs),
(310,160,o),
(313,147,o),
(318,137,cs),
(325,123,o),
(332,114,o),
(340,106,cs),
(356,88,o),
(376,76,o),
(392,67,cs),
(477,21,o),
(607,0,o),
(718,0,cs)
);
},
{
closed = 1;
nodes = (
(507,104,o),
(495,108,o),
(484,111,c),
(437,159,l),
(509,232,l),
(578,160,l),
(520,101,l),
(519,101,l)
);
},
{
closed = 1;
nodes = (
(379,221,l),
(362,304,l),
(400,344,l),
(472,271,l),
(402,198,l)
);
},
{
closed = 1;
nodes = (
(630,78,o),
(604,81,o),
(581,87,c),
(614,122,l),
(654,78,l)
);
},
{
closed = 1;
nodes = (
(343,405,l),
(363,382,l),
(349,369,l)
);
},
{
closed = 1;
nodes = (
(649,160,l),
(720,232,l),
(793,157,l),
(723,83,l)
);
},
{
closed = 1;
nodes = (
(544,271,l),
(614,343,l),
(683,271,l),
(614,198,l)
);
},
{
closed = 1;
nodes = (
(437,382,l),
(506,454,l),
(578,380,l),
(509,308,l)
);
},
{
closed = 1;
nodes = (
(335,488,l),
(403,561,l),
(469,492,l),
(400,420,l)
);
},
{
closed = 1;
nodes = (
(830,119,l),
(859,88,l),
(837,85,o),
(814,81,o),
(791,80,c)
);
},
{
closed = 1;
nodes = (
(296,648,l),
(295,654,o),
(293,659,o),
(293,666,c),
(296,669,l),
(367,598,l),
(317,546,l)
);
},
{
closed = 1;
nodes = (
(756,271,l),
(827,344,l),
(898,268,l),
(828,194,l)
);
},
{
closed = 1;
nodes = (
(866,157,l),
(936,231,l),
(1003,160,l),
(956,112,l),
(944,108,o),
(932,104,o),
(918,101,c)
);
},
{
closed = 1;
nodes = (
(649,380,l),
(722,454,l),
(789,381,l),
(720,308,l)
);
},
{
closed = 1;
nodes = (
(543,492,l),
(612,565,l),
(685,492,l),
(614,419,l)
);
},
{
closed = 1;
nodes = (
(439,598,l),
(511,672,l),
(576,605,l),
(506,528,l)
);
},
{
closed = 1;
nodes = (
(334,708,l),
(405,783,l),
(473,709,l),
(403,636,l)
);
},
{
closed = 1;
nodes = (
(271,771,l),
(266,798,o),
(261,825,o),
(256,850,c),
(297,893,l),
(369,820,l),
(296,746,l)
);
},
{
closed = 1;
nodes = (
(242,928,o),
(239,944,o),
(235,961,c),
(261,931,l),
(245,913,l)
);
},
{
closed = 1;
nodes = (
(277,992,l),
(287,989,o),
(297,983,o),
(310,980,c),
(297,969,l)
);
},
{
closed = 1;
nodes = (
(972,268,l),
(1037,336,l),
(1073,299,l),
(1057,216,l),
(1039,198,l)
);
},
{
closed = 1;
nodes = (
(864,381,l),
(929,450,l),
(1003,375,l),
(936,306,l)
);
},
{
closed = 1;
nodes = (
(335,931,l),
(365,964,l),
(395,958,o),
(424,951,o),
(454,945,c),
(470,926,l),
(405,859,l)
);
},
{
closed = 1;
nodes = (
(756,492,l),
(824,561,l),
(891,486,l),
(827,419,l)
);
},
{
closed = 1;
nodes = (
(649,605,l),
(715,672,l),
(787,598,l),
(722,528,l)
);
},
{
closed = 1;
nodes = (
(547,709,l),
(612,780,l),
(678,709,l),
(612,641,l)
);
},
{
closed = 1;
nodes = (
(441,820,l),
(507,888,l),
(576,816,l),
(511,748,l)
);
},
{
closed = 1;
nodes = (
(1075,375,l),
(1089,389,l),
(1085,363,l)
);
},
{
closed = 1;
nodes = (
(544,926,l),
(549,931,l),
(576,928,o),
(652,923,o),
(678,923,c),
(612,855,l)
);
},
{
closed = 1;
nodes = (
(965,486,l),
(1036,562,l),
(1107,488,l),
(1106,483,l),
(1037,412,l)
);
},
{
closed = 1;
nodes = (
(859,598,l),
(931,672,l),
(1001,601,l),
(929,525,l)
);
},
{
closed = 1;
nodes = (
(751,709,l),
(824,785,l),
(895,709,l),
(824,636,l)
);
},
{
closed = 1;
nodes = (
(649,816,l),
(722,892,l),
(787,823,l),
(715,748,l)
);
},
{
closed = 1;
nodes = (
(1073,601,l),
(1141,672,l),
(1120,553,l)
);
},
{
closed = 1;
nodes = (
(763,923,l),
(772,923,l),
(812,924,o),
(853,926,o),
(891,931,c),
(824,860,l)
);
},
{
closed = 1;
nodes = (
(967,709,l),
(1036,783,l),
(1106,709,l),
(1037,637,l)
);
},
{
closed = 1;
nodes = (
(859,823,l),
(929,895,l),
(1001,820,l),
(931,748,l)
);
},
{
closed = 1;
nodes = (
(529,1025,o),
(134,1088,o),
(134,1211,cs),
(134,1342,o),
(487,1412,o),
(722,1412,cs),
(940,1412,o),
(1305,1347,o),
(1305,1214,cs),
(1305,1077,o),
(911,1025,o),
(711,1025,cs)
);
},
{
closed = 1;
nodes = (
(1073,820,l),
(1146,897,l),
(1179,864,l),
(1172,831,o),
(1166,798,o),
(1160,766,c),
(1142,748,l)
);
},
{
closed = 1;
nodes = (
(965,933,l),
(977,945,l),
(983,945,o),
(987,947,o),
(992,949,c),
(1023,954,o),
(1049,961,o),
(1078,968,c),
(1109,933,l),
(1037,859,l)
);
},
{
closed = 1;
nodes = (
(1182,933,l),
(1192,945,l),
(1191,940,o),
(1191,933,o),
(1189,924,c)
);
},
{
closed = 1;
nodes = (
(1134,985,l),
(1173,1001,l),
(1146,971,l)
);
}
);
userData = {
assembly = "NPUSHB[ ]	/* 68 values pushed */
57 0 71 78 46 40 34 28 0 18 52 62 4 49 43 57 65 66 71 78 82 83 7 23 64 67 69 72 76 79 81 84 8 74 124 43 49 124 28 34 124 9 28 43 9 194 23 31 45 61 116 19 53 116 27 66 116 65 37 41 116 4 82 116 83 77 116 78
PUSHW[ ]	/* 1 value pushed */
262
PUSHB[ ]	/* 4 values pushed */
65 71 116 70
PUSHW[ ]	/* 1 value pushed */
262
PUSHB[ ]	/* 6 values pushed */
83 45 116 14 19 14
PUSHW[ ]	/* 3 values pushed */
552 65 363
PUSHB[ ]	/* 3 values pushed */
83 27 83
PUSHW[ ]	/* 2 values pushed */
552 4
MDAP[1]	/* MoveDirectAbsPt */
MIRP[00100]	/* MoveIndirectRelPt */
IP[ ]	/* InterpolatePts */
SRP0[ ]	/* SetRefPoint0 */
MIRP[11101]	/* MoveIndirectRelPt */
MIRP[00100]	/* MoveIndirectRelPt */
IP[ ]	/* InterpolatePts */
SRP0[ ]	/* SetRefPoint0 */
MIRP[01101]	/* MoveIndirectRelPt */
SRP0[ ]	/* SetRefPoint0 */
MIRP[11101]	/* MoveIndirectRelPt */
MIRP[01101]	/* MoveIndirectRelPt */
SRP0[ ]	/* SetRefPoint0 */
MIRP[11101]	/* MoveIndirectRelPt */
MIRP[01101]	/* MoveIndirectRelPt */
SRP0[ ]	/* SetRefPoint0 */
MIRP[01101]	/* MoveIndirectRelPt */
SRP0[ ]	/* SetRefPoint0 */
MIRP[01101]	/* MoveIndirectRelPt */
IP[ ]	/* InterpolatePts */
SRP0[ ]	/* SetRefPoint0 */
MIRP[01101]	/* MoveIndirectRelPt */
MDAP[1]	/* MoveDirectAbsPt */
MIRP[01101]	/* MoveIndirectRelPt */
MDAP[1]	/* MoveDirectAbsPt */
MIRP[11101]	/* MoveIndirectRelPt */
SRP1[ ]	/* SetRefPoint1 */
IP[ ]	/* InterpolatePts */
SVTCA[0]	/* SetFreedomAndProjectionVectorToAxis */
MDAP[1]	/* MoveDirectAbsPt */
MIRP[01101]	/* MoveIndirectRelPt */
IP[ ]	/* InterpolatePts */
IP[ ]	/* InterpolatePts */
SRP0[ ]	/* SetRefPoint0 */
MIRP[01101]	/* MoveIndirectRelPt */
MDAP[1]	/* MoveDirectAbsPt */
MIRP[01101]	/* MoveIndirectRelPt */
MDAP[1]	/* MoveDirectAbsPt */
MIRP[01101]	/* MoveIndirectRelPt */
SLOOP[ ]	/* SetLoopVariable */
IP[ ]	/* InterpolatePts */
SRP1[ ]	/* SetRefPoint1 */
SLOOP[ ]	/* SetLoopVariable */
IP[ ]	/* InterpolatePts */
SRP1[ ]	/* SetRefPoint1 */
SRP2[ ]	/* SetRefPoint2 */
SLOOP[ ]	/* SetLoopVariable */
IP[ ]	/* InterpolatePts */
SRP1[ ]	/* SetRefPoint1 */
SRP2[ ]	/* SetRefPoint2 */
IP[ ]	/* InterpolatePts */
IP[ ]	/* InterpolatePts */
MDAP[1]	/* MoveDirectAbsPt */
MDAP[1]	/* MoveDirectAbsPt */
MIAP[1]	/* MoveIndirectAbsPt */
IUP[1]	/* InterpolateUntPts */
IUP[0]	/* InterpolateUntPts */";
};
width = 1431;
}
);
note = trashcan;
unicode = 51;
}
{
color = 5;
glyphname = window;
layers = (
{
layerId = m01;
shapes = (
{
closed = 1;
nodes = (
(2089,0,ls),
(2123,0,o),
(2142,19,o),
(2142,52,cs),
(2142,1428,ls),
(2142,1462,o),
(2123,1480,o),
(2089,1480,cs),
(231,1480,ls),
(197,1480,o),
(178,1462,o),
(178,1428,cs),
(178,52,ls),
(178,19,o),
(197,0,o),
(231,0,cs)
);
},
{
closed = 1;
nodes = (
(309,1443,l),
(450,1443,l),
(470,1395,l),
(287,1395,l),
(287,1395,l)
);
},
{
closed = 1;
nodes = (
(244,54,o),
(233,65,o),
(233,85,cs),
(233,1378,l),
(2087,1378,l),
(2087,85,ls),
(2087,65,o),
(2074,54,o),
(2056,54,cs),
(264,54,l),
(264,54,l)
);
},
{
closed = 1;
nodes = (
(482,1434,l),
(549,1434,l),
(566,1395,l),
(497,1395,l),
(497,1395,l)
);
},
{
closed = 1;
nodes = (
(1868,1412,l),
(1868,1417,l),
(1838,1417,l),
(1838,1412,l),
(1838,1412,l)
);
},
{
closed = 1;
nodes = (
(1828,1450,l),
(1876,1450,l),
(1876,1404,l),
(1828,1404,l),
(1828,1404,l)
);
},
{
closed = 1;
nodes = (
(1935,1450,l),
(1981,1450,l),
(1981,1404,l),
(1935,1404,l),
(1935,1404,l)
);
},
{
closed = 1;
nodes = (
(1963,1413,l),
(1963,1432,l),
(1944,1432,l),
(1944,1413,l),
(1944,1413,l)
);
},
{
closed = 1;
nodes = (
(1976,1425,l),
(1976,1443,l),
(1955,1443,l),
(1955,1425,l),
(1955,1425,l)
);
},
{
closed = 1;
nodes = (
(2041,1450,l),
(2087,1450,l),
(2087,1404,l),
(2041,1404,l),
(2041,1404,l)
);
},
{
closed = 1;
nodes = (
(2078,1417,l),
(2052,1443,l),
(2048,1439,l),
(2074,1413,l),
(2074,1413,l)
);
},
{
closed = 1;
nodes = (
(2080,1439,l),
(2074,1441,l),
(2048,1417,l),
(2054,1413,l),
(2054,1413,l)
);
}
);
userData = {
assembly = "PUSHB[ ]	/* 6 values pushed */
4 124 21 16 13 8
PUSHW[ ]	/* 1 value pushed */
554
NPUSHB[ ]	/* 27 values pushed */
20 19 12 11 124 1 174 5 124 0 0 13 127 9 17 127 21 8 5 116 0 22 6 116 3 21 3
PUSHW[ ]	/* 3 values pushed */
368 16 553
PUSHB[ ]	/* 3 values pushed */
14 9 14
PUSHW[ ]	/* 2 values pushed */
368 0
MDAP[1]	/* MoveDirectAbsPt */
MIRP[00100]	/* MoveIndirectRelPt */
IP[ ]	/* InterpolatePts */
SRP0[ ]	/* SetRefPoint0 */
MIRP[11101]	/* MoveIndirectRelPt */
MIRP[00100]	/* MoveIndirectRelPt */
IP[ ]	/* InterpolatePts */
SRP0[ ]	/* SetRefPoint0 */
MIRP[01101]	/* MoveIndirectRelPt */
IP[ ]	/* InterpolatePts */
SRP0[ ]	/* SetRefPoint0 */
MIRP[01101]	/* MoveIndirectRelPt */
IP[ ]	/* InterpolatePts */
MDAP[1]	/* MoveDirectAbsPt */
MIRP[01101]	/* MoveIndirectRelPt */
MDAP[1]	/* MoveDirectAbsPt */
MIRP[01101]	/* MoveIndirectRelPt */
SVTCA[0]	/* SetFreedomAndProjectionVectorToAxis */
MIAP[1]	/* MoveIndirectAbsPt */
MIRP[01101]	/* MoveIndirectRelPt */
MIRP[11110]	/* MoveIndirectRelPt */
MIRP[11101]	/* MoveIndirectRelPt */
ALIGNRP[ ]	/* AlignRelativePt */
ALIGNRP[ ]	/* AlignRelativePt */
ALIGNRP[ ]	/* AlignRelativePt */
MIRP[11110]	/* MoveIndirectRelPt */
ALIGNRP[ ]	/* AlignRelativePt */
ALIGNRP[ ]	/* AlignRelativePt */
ALIGNRP[ ]	/* AlignRelativePt */
MIRP[01101]	/* MoveIndirectRelPt */
IUP[1]	/* InterpolateUntPts */
IUP[0]	/* InterpolateUntPts */";
};
width = 2320;
}
);
note = window;
unicode = 52;
}
{
color = 5;
glyphname = monitor;
layers = (
{
layerId = m01;
shapes = (
{
closed = 1;
nodes = (
(1509,0,l),
(1509,58,ls),
(1509,91,o),
(1480,118,o),
(1444,118,cs),
(1214,118,l),
(1214,220,l),
(1917,220,ls),
(1965,220,o),
(2005,261,o),
(2005,310,cs),
(2005,1393,ls),
(2005,1440,o),
(1965,1480,o),
(1917,1480,cs),
(329,1480,ls),
(280,1480,o),
(241,1440,o),
(241,1393,cs),
(241,310,ls),
(241,261,o),
(280,220,o),
(329,220,cs),
(1030,220,l),
(1030,118,l),
(801,118,ls),
(764,118,o),
(735,91,o),
(735,58,cs),
(735,0,l)
);
},
{
closed = 1;
nodes = (
(385,448,o),
(356,479,o),
(356,516,cs),
(356,1285,ls),
(356,1323,o),
(385,1354,o),
(422,1354,cs),
(1823,1354,ls),
(1859,1354,o),
(1888,1323,o),
(1888,1285,cs),
(1888,516,ls),
(1888,479,o),
(1859,448,o),
(1823,448,cs),
(422,448,ls)
);
},
{
closed = 1;
nodes = (
(1852,312,o),
(1841,322,o),
(1841,337,cs),
(1841,350,o),
(1852,361,o),
(1866,361,cs),
(1879,361,o),
(1890,350,o),
(1890,337,cs),
(1890,322,o),
(1879,312,o),
(1866,312,cs)
);
}
);
userData = {
assembly = "NPUSHB[ ]	/* 15 values pushed */
25 124 4 16 124 4 123 13 0 29 116 0 20 116 9
PUSHW[ ]	/* 2 values pushed */
555 0
MDAP[1]	/* MoveDirectAbsPt */
MIRP[11101]	/* MoveIndirectRelPt */
MIRP[01101]	/* MoveIndirectRelPt */
SRP0[ ]	/* SetRefPoint0 */
MIRP[01101]	/* MoveIndirectRelPt */
SVTCA[0]	/* SetFreedomAndProjectionVectorToAxis */
MIAP[1]	/* MoveIndirectAbsPt */
MIRP[01101]	/* MoveIndirectRelPt */
MIRP[01101]	/* MoveIndirectRelPt */
SRP0[ ]	/* SetRefPoint0 */
MIRP[01101]	/* MoveIndirectRelPt */
IUP[1]	/* InterpolateUntPts */
IUP[0]	/* InterpolateUntPts */";
};
width = 2246;
}
);
note = monitor;
unicode = 53;
}
{
color = 5;
glyphname = printer;
layers = (
{
layerId = m01;
shapes = (
{
closed = 1;
nodes = (
(1303,-78,ls),
(1344,-78,o),
(1376,-47,o),
(1376,-7,cs),
(1376,305,l),
(1610,305,ls),
(1671,305,o),
(1719,356,o),
(1719,416,cs),
(1719,986,ls),
(1719,1046,o),
(1671,1097,o),
(1610,1097,cs),
(1376,1097,l),
(1376,1409,ls),
(1376,1449,o),
(1344,1480,o),
(1303,1480,cs),
(532,1480,ls),
(492,1480,o),
(459,1449,o),
(459,1409,cs),
(459,1097,l),
(216,1097,ls),
(157,1097,o),
(107,1046,o),
(107,986,cs),
(107,416,ls),
(107,356,o),
(157,305,o),
(216,305,cs),
(459,305,l),
(459,-7,ls),
(459,-47,o),
(492,-78,o),
(532,-78,cs)
);
},
{
closed = 1;
nodes = (
(1198,104,ls),
(1212,104,o),
(1221,115,o),
(1221,131,cs),
(1221,142,o),
(1212,154,o),
(1198,154,cs),
(634,154,ls),
(620,154,o),
(611,142,o),
(611,131,cs),
(611,115,o),
(620,104,o),
(634,104,cs)
);
},
{
closed = 1;
nodes = (
(1198,234,ls),
(1212,234,o),
(1221,247,o),
(1221,259,cs),
(1221,272,o),
(1212,284,o),
(1198,284,cs),
(634,284,ls),
(620,284,o),
(611,272,o),
(611,259,cs),
(611,247,o),
(620,234,o),
(634,234,cs)
);
},
{
closed = 1;
nodes = (
(536,550,l),
(1302,550,l),
(1302,-3,l),
(536,-3,l)
);
},
{
closed = 1;
nodes = (
(1198,368,ls),
(1212,368,o),
(1221,381,o),
(1221,393,cs),
(1221,408,o),
(1212,418,o),
(1198,418,cs),
(634,418,ls),
(620,418,o),
(611,408,o),
(611,393,cs),
(611,381,o),
(620,368,o),
(634,368,cs)
);
},
{
closed = 1;
nodes = (
(536,1405,l),
(1302,1405,l),
(1302,1097,l),
(536,1097,l)
);
},
{
closed = 1;
nodes = (
(1501,841,o),
(1462,879,o),
(1462,919,cs),
(1462,963,o),
(1501,998,o),
(1541,998,cs),
(1585,998,o),
(1619,963,o),
(1619,919,cs),
(1619,879,o),
(1585,841,o),
(1541,841,cs)
);
}
);
userData = {
assembly = "PUSHB[ ]	/* 7 values pushed */
44 124 45 40 124 41 56
PUSHW[ ]	/* 1 value pushed */
544
NPUSHB[ ]	/* 47 values pushed */
64 20 3 19 124 33 48 124 49 24 124 12 23 124 1 64 33 49 45 41 5 1 123 12 0 40 43 44 47 52 61 61 28 3 40 43 44 47 4 21 20 52 0 37 21 116 3
PUSHW[ ]	/* 1 value pushed */
379
NPUSHB[ ]	/* 9 values pushed */
20 116 0 37 116 15 28 116 8
PUSHW[ ]	/* 3 values pushed */
556 51 463
PUSHB[ ]	/* 3 values pushed */
48 0 48
PUSHW[ ]	/* 2 values pushed */
556 15
MDAP[1]	/* MoveDirectAbsPt */
MIRP[00100]	/* MoveIndirectRelPt */
IP[ ]	/* InterpolatePts */
SRP0[ ]	/* SetRefPoint0 */
MIRP[11101]	/* MoveIndirectRelPt */
MIRP[10100]	/* MoveIndirectRelPt */
MIRP[01101]	/* MoveIndirectRelPt */
SRP0[ ]	/* SetRefPoint0 */
MIRP[01101]	/* MoveIndirectRelPt */
MDAP[1]	/* MoveDirectAbsPt */
MIRP[01101]	/* MoveIndirectRelPt */
MIRP[11101]	/* MoveIndirectRelPt */
MIRP[01101]	/* MoveIndirectRelPt */
SRP1[ ]	/* SetRefPoint1 */
SRP2[ ]	/* SetRefPoint2 */
IP[ ]	/* InterpolatePts */
SRP1[ ]	/* SetRefPoint1 */
SRP2[ ]	/* SetRefPoint2 */
SLOOP[ ]	/* SetLoopVariable */
IP[ ]	/* InterpolatePts */
SRP1[ ]	/* SetRefPoint1 */
SRP2[ ]	/* SetRefPoint2 */
IP[ ]	/* InterpolatePts */
MDAP[1]	/* MoveDirectAbsPt */
MDAP[1]	/* MoveDirectAbsPt */
MDAP[1]	/* MoveDirectAbsPt */
MDAP[1]	/* MoveDirectAbsPt */
MDAP[1]	/* MoveDirectAbsPt */
MDAP[1]	/* MoveDirectAbsPt */
SVTCA[0]	/* SetFreedomAndProjectionVectorToAxis */
MIAP[1]	/* MoveIndirectAbsPt */
MIRP[01101]	/* MoveIndirectRelPt */
SLOOP[ ]	/* SetLoopVariable */
IP[ ]	/* InterpolatePts */
SRP0[ ]	/* SetRefPoint0 */
MIRP[01101]	/* MoveIndirectRelPt */
SRP0[ ]	/* SetRefPoint0 */
MIRP[01101]	/* MoveIndirectRelPt */
MDAP[1]	/* MoveDirectAbsPt */
MIRP[01101]	/* MoveIndirectRelPt */
MDAP[1]	/* MoveDirectAbsPt */
MIRP[01101]	/* MoveIndirectRelPt */
IP[ ]	/* InterpolatePts */
IP[ ]	/* InterpolatePts */
MDAP[1]	/* MoveDirectAbsPt */
MIRP[01101]	/* MoveIndirectRelPt */
MDAP[1]	/* MoveDirectAbsPt */
MIRP[01101]	/* MoveIndirectRelPt */
MDAP[1]	/* MoveDirectAbsPt */
MIRP[01101]	/* MoveIndirectRelPt */
IUP[1]	/* InterpolateUntPts */
IUP[0]	/* InterpolateUntPts */";
};
width = 1826;
}
);
note = printer;
unicode = 54;
}
{
color = 5;
glyphname = fax;
layers = (
{
layerId = m01;
shapes = (
{
closed = 1;
nodes = (
(1466,0,ls),
(1504,0,o),
(1535,29,o),
(1535,67,cs),
(1535,363,l),
(1575,363,ls),
(1634,363,o),
(1678,413,o),
(1678,469,cs),
(1678,1011,ls),
(1678,1068,o),
(1634,1117,o),
(1575,1117,cs),
(1535,1117,l),
(1535,1413,ls),
(1535,1451,o),
(1504,1480,o),
(1466,1480,cs),
(733,1480,ls),
(694,1480,o),
(664,1451,o),
(664,1413,cs),
(664,1117,l),
(601,1117,l),
(601,527,ls),
(601,484,o),
(588,464,o),
(544,464,cs),
(307,464,ls),
(264,464,o),
(251,484,o),
(251,527,cs),
(251,1117,l),
(194,1117,o),
(148,1068,o),
(148,1011,cs),
(148,469,ls),
(148,413,o),
(194,363,o),
(251,363,cs),
(664,363,l),
(664,67,ls),
(664,29,o),
(694,0,o),
(733,0,cs)
);
},
{
closed = 1;
nodes = (
(1366,137,ls),
(1379,137,o),
(1388,148,o),
(1388,162,cs),
(1388,173,o),
(1379,184,o),
(1366,184,cs),
(829,184,ls),
(817,184,o),
(807,173,o),
(807,162,cs),
(807,148,o),
(817,137,o),
(829,137,cs)
);
},
{
closed = 1;
nodes = (
(521,507,ls),
(548,507,o),
(557,520,o),
(557,549,cs),
(557,1151,ls),
(557,1181,o),
(548,1193,o),
(521,1193,cs),
(331,1193,ls),
(304,1193,o),
(295,1181,o),
(295,1151,cs),
(295,549,ls),
(295,520,o),
(304,507,o),
(331,507,cs)
);
},
{
closed = 1;
nodes = (
(736,491,l),
(1464,491,l),
(1464,71,l),
(736,71,l)
);
},
{
closed = 1;
nodes = (
(1366,260,ls),
(1379,260,o),
(1388,272,o),
(1388,283,cs),
(1388,296,o),
(1379,307,o),
(1366,307,cs),
(829,307,ls),
(817,307,o),
(807,296,o),
(807,283,cs),
(807,272,o),
(817,260,o),
(829,260,cs)
);
},
{
closed = 1;
nodes = (
(1366,387,ls),
(1379,387,o),
(1388,400,o),
(1388,411,cs),
(1388,425,o),
(1379,434,o),
(1366,434,cs),
(829,434,ls),
(817,434,o),
(807,425,o),
(807,411,cs),
(807,400,o),
(817,387,o),
(829,387,cs)
);
},
{
closed = 1;
nodes = (
(1366,1173,ls),
(1379,1173,o),
(1388,1184,o),
(1388,1199,cs),
(1388,1210,o),
(1379,1221,o),
(1366,1221,cs),
(829,1221,ls),
(817,1221,o),
(807,1210,o),
(807,1199,cs),
(807,1184,o),
(817,1173,o),
(829,1173,cs)
);
},
{
closed = 1;
nodes = (
(736,1409,l),
(1464,1409,l),
(1464,1117,l),
(736,1117,l)
);
},
{
closed = 1;
nodes = (
(1366,1296,ls),
(1379,1296,o),
(1388,1309,o),
(1388,1320,cs),
(1388,1333,o),
(1379,1344,o),
(1366,1344,cs),
(829,1344,ls),
(817,1344,o),
(807,1333,o),
(807,1320,cs),
(807,1309,o),
(817,1296,o),
(829,1296,cs)
);
},
{
closed = 1;
nodes = (
(1472,873,o),
(1435,909,o),
(1435,947,cs),
(1435,989,o),
(1472,1022,o),
(1510,1022,cs),
(1552,1022,o),
(1585,989,o),
(1585,947,cs),
(1585,909,o),
(1552,873,o),
(1510,873,cs)
);
}
);
userData = {
assembly = "PUSHB[ ]	/* 8 values pushed */
44 124 45 40 124 41 61 71
PUSHW[ ]	/* 1 value pushed */
302
PUSHB[ ]	/* 3 values pushed */
57 52 55
PUSHW[ ]	/* 1 value pushed */
281
NPUSHB[ ]	/* 50 values pushed */
80 66 1 66 48 124 49 20 3 19 124 33 23 124 1 24 124 66 33 49 45 41 5 1 123 12 0 40 43 44 47 59 74 59 28 3 40 43 44 47 4 21 20 74 0 37 57 21 116 3
PUSHW[ ]	/* 1 value pushed */
379
NPUSHB[ ]	/* 10 values pushed */
52 20 116 0 37 116 15 28 116 8
PUSHW[ ]	/* 3 values pushed */
556 51 463
PUSHB[ ]	/* 3 values pushed */
48 0 48
PUSHW[ ]	/* 2 values pushed */
556 15
MDAP[1]	/* MoveDirectAbsPt */
MIRP[00100]	/* MoveIndirectRelPt */
IP[ ]	/* InterpolatePts */
SRP0[ ]	/* SetRefPoint0 */
MIRP[11101]	/* MoveIndirectRelPt */
MIRP[10100]	/* MoveIndirectRelPt */
MIRP[01101]	/* MoveIndirectRelPt */
SRP0[ ]	/* SetRefPoint0 */
MIRP[01101]	/* MoveIndirectRelPt */
MDAP[1]	/* MoveDirectAbsPt */
MIRP[01101]	/* MoveIndirectRelPt */
IP[ ]	/* InterpolatePts */
MIRP[11101]	/* MoveIndirectRelPt */
MIRP[01101]	/* MoveIndirectRelPt */
IP[ ]	/* InterpolatePts */
SRP1[ ]	/* SetRefPoint1 */
SRP2[ ]	/* SetRefPoint2 */
IP[ ]	/* InterpolatePts */
SRP1[ ]	/* SetRefPoint1 */
SRP2[ ]	/* SetRefPoint2 */
SLOOP[ ]	/* SetLoopVariable */
IP[ ]	/* InterpolatePts */
SRP1[ ]	/* SetRefPoint1 */
SRP2[ ]	/* SetRefPoint2 */
IP[ ]	/* InterpolatePts */
MDAP[1]	/* MoveDirectAbsPt */
MDAP[1]	/* MoveDirectAbsPt */
MDAP[1]	/* MoveDirectAbsPt */
MDAP[1]	/* MoveDirectAbsPt */
MDAP[1]	/* MoveDirectAbsPt */
MDAP[1]	/* MoveDirectAbsPt */
SVTCA[0]	/* SetFreedomAndProjectionVectorToAxis */
MIAP[1]	/* MoveIndirectAbsPt */
MIRP[01101]	/* MoveIndirectRelPt */
SLOOP[ ]	/* SetLoopVariable */
IP[ ]	/* InterpolatePts */
MIRP[01101]	/* MoveIndirectRelPt */
SRP0[ ]	/* SetRefPoint0 */
MIRP[01101]	/* MoveIndirectRelPt */
MDAP[1]	/* MoveDirectAbsPt */
MIRP[01101]	/* MoveIndirectRelPt */
IP[ ]	/* InterpolatePts */
IP[ ]	/* InterpolatePts */
MDAP[1]	/* MoveDirectAbsPt */
MIRP[01101]	/* MoveIndirectRelPt */
MDAP[1]	/* MoveDirectAbsPt */
DELTAP1[ ]	/* DeltaExceptionP1 */
MIRP[01101]	/* MoveIndirectRelPt */
IP[ ]	/* InterpolatePts */
IP[ ]	/* InterpolatePts */
MIRP[00100]	/* MoveIndirectRelPt */
IP[ ]	/* InterpolatePts */
MDAP[1]	/* MoveDirectAbsPt */
MIRP[01101]	/* MoveIndirectRelPt */
MDAP[1]	/* MoveDirectAbsPt */
MIRP[01101]	/* MoveIndirectRelPt */
IUP[1]	/* InterpolateUntPts */
IUP[0]	/* InterpolateUntPts */";
};
width = 1826;
}
);
note = fax;
unicode = 55;
}
{
color = 5;
glyphname = cd;
layers = (
{
layerId = m01;
shapes = (
{
closed = 1;
nodes = (
(1321,0,o),
(1653,332,o),
(1653,740,cs),
(1653,1146,o),
(1321,1480,o),
(912,1480,cs),
(502,1480,o),
(172,1146,o),
(172,740,cs),
(172,332,o),
(502,0,o),
(912,0,cs)
);
},
{
closed = 1;
nodes = (
(299,571,o),
(286,609,o),
(281,650,c),
(684,716,l),
(684,701,o),
(689,685,o),
(693,673,c),
(314,534,l)
);
},
{
closed = 1;
nodes = (
(816,114,o),
(722,138,o),
(641,179,c),
(809,537,l),
(840,519,o),
(874,510,o),
(912,510,cs),
(1028,510,o),
(1124,598,o),
(1139,710,c),
(1542,637,l),
(1485,339,o),
(1224,114,o),
(912,114,cs)
);
},
{
closed = 1;
nodes = (
(820,591,o),
(749,672,o),
(749,757,cs),
(749,844,o),
(824,916,o),
(912,916,cs),
(1001,916,o),
(1075,842,o),
(1075,757,cs),
(1075,666,o),
(1003,591,o),
(912,591,cs)
);
},
{
closed = 1;
nodes = (
(959,680,o),
(988,710,o),
(988,759,cs),
(988,795,o),
(958,830,o),
(912,830,cs),
(871,830,o),
(836,795,o),
(836,757,cs),
(836,710,o),
(871,680,o),
(912,680,cs)
);
},
{
closed = 1;
nodes = (
(277,830,l),
(316,1150,o),
(584,1396,o),
(912,1396,cs),
(1025,1396,o),
(1130,1366,o),
(1221,1313,c),
(1016,942,l),
(985,960,o),
(950,969,o),
(912,969,cs),
(800,969,o),
(709,889,o),
(688,784,c)
);
},
{
closed = 1;
nodes = (
(1135,793,o),
(1132,805,o),
(1126,817,c),
(1526,939,l),
(1539,902,o),
(1546,862,o),
(1548,819,c),
(1137,778,l)
);
}
);
userData = {
assembly = "PUSHB[ ]	/* 7 values pushed */
30 124 6 24 124 0 6
PUSHW[ ]	/* 5 values pushed */
346 18 557 12 346
PUSHB[ ]	/* 8 values pushed */
0 0 33 116 3 27 116 9
PUSHW[ ]	/* 6 values pushed */
344 21 262 15 344 3
MDAP[1]	/* MoveDirectAbsPt */
MIRP[10100]	/* MoveIndirectRelPt */
MIRP[11101]	/* MoveIndirectRelPt */
MIRP[10100]	/* MoveIndirectRelPt */
MIRP[01101]	/* MoveIndirectRelPt */
SRP0[ ]	/* SetRefPoint0 */
MIRP[01101]	/* MoveIndirectRelPt */
SVTCA[0]	/* SetFreedomAndProjectionVectorToAxis */
MIAP[1]	/* MoveIndirectAbsPt */
MIRP[10100]	/* MoveIndirectRelPt */
MIRP[11101]	/* MoveIndirectRelPt */
MIRP[00100]	/* MoveIndirectRelPt */
SRP0[ ]	/* SetRefPoint0 */
MIRP[01101]	/* MoveIndirectRelPt */
SRP0[ ]	/* SetRefPoint0 */
MIRP[01101]	/* MoveIndirectRelPt */
IUP[1]	/* InterpolateUntPts */
IUP[0]	/* InterpolateUntPts */";
};
width = 1826;
}
);
note = cd;
unicode = 56;
}
{
color = 5;
glyphname = tapecartridge;
layers = (
{
layerId = m01;
shapes = (
{
closed = 1;
nodes = (
(2171,0,l),
(2171,1387,ls),
(2171,1448,o),
(2139,1480,o),
(2081,1480,cs),
(239,1480,ls),
(181,1480,o),
(149,1448,o),
(149,1387,cs),
(149,0,l),
(149,0,l)
);
},
{
closed = 1;
nodes = (
(572,310,l),
(1748,310,l),
(1748,76,l),
(572,76,l),
(572,76,l)
);
},
{
closed = 1;
nodes = (
(967,552,o),
(1111,696,o),
(1111,873,cs),
(1111,1051,o),
(967,1195,o),
(790,1195,cs),
(612,1195,o),
(472,1051,o),
(472,873,cs),
(472,692,o),
(612,552,o),
(790,552,cs)
);
},
{
closed = 1;
nodes = (
(729,764,o),
(682,811,o),
(682,873,cs),
(682,934,o),
(729,983,o),
(790,983,cs),
(852,983,o),
(901,934,o),
(901,873,cs),
(901,813,o),
(852,764,o),
(790,764,cs)
);
},
{
closed = 1;
nodes = (
(222,1361,ls),
(222,1389,o),
(238,1406,o),
(268,1406,cs),
(2052,1406,ls),
(2082,1406,o),
(2098,1389,o),
(2098,1361,cs),
(2098,76,l),
(1822,76,l),
(1822,384,l),
(498,384,l),
(498,76,l),
(222,76,l),
(222,76,l)
);
},
{
closed = 1;
nodes = (
(1638,675,o),
(1725,764,o),
(1725,873,cs),
(1725,983,o),
(1638,1070,o),
(1529,1070,cs),
(1419,1070,o),
(1334,983,o),
(1334,873,cs),
(1334,762,o),
(1419,675,o),
(1529,675,cs)
);
},
{
closed = 1;
nodes = (
(1468,764,o),
(1419,813,o),
(1419,871,cs),
(1419,932,o),
(1468,983,o),
(1529,983,cs),
(1589,983,o),
(1638,934,o),
(1638,873,cs),
(1638,813,o),
(1589,764,o),
(1529,764,cs)
);
}
);
userData = {
assembly = "PUSHB[ ]	/* 7 values pushed */
45 42 7 11 43 69 51
PUSHW[ ]	/* 6 values pushed */
281 37 301 19 25 301
PUSHB[ ]	/* 3 values pushed */
31 63 31
PUSHW[ ]	/* 1 value pushed */
281
NPUSHB[ ]	/* 10 values pushed */
57 2 124 15 43 124 9 11 124 9
PUSHW[ ]	/* 1 value pushed */
306
NPUSHB[ ]	/* 49 values pushed */
41 123 12 4 0 124 15 19 57 3 42 123 40 0 42 10 54 16 248 28 43 9 54 245 66 44 8 60 245 48 22 12 116 1 0 116 40 45 7 13 116 4 5 116 47 34 248 1 47
PUSHW[ ]	/* 1 value pushed */
558
PUSHB[ ]	/* 8 values pushed */
4 28 66 48 3 4 140 1
PUSHW[ ]	/* 2 values pushed */
558 40
MDAP[1]	/* MoveDirectAbsPt */
MIRP[10100]	/* MoveIndirectRelPt */
MIRP[01101]	/* MoveIndirectRelPt */
SLOOP[ ]	/* SetLoopVariable */
IP[ ]	/* InterpolatePts */
SRP0[ ]	/* SetRefPoint0 */
MIRP[00100]	/* MoveIndirectRelPt */
SRP0[ ]	/* SetRefPoint0 */
MIRP[01101]	/* MoveIndirectRelPt */
SRP0[ ]	/* SetRefPoint0 */
MIRP[01101]	/* MoveIndirectRelPt */
SRP0[ ]	/* SetRefPoint0 */
MIRP[01101]	/* MoveIndirectRelPt */
IP[ ]	/* InterpolatePts */
IP[ ]	/* InterpolatePts */
SRP0[ ]	/* SetRefPoint0 */
MIRP[01101]	/* MoveIndirectRelPt */
SRP0[ ]	/* SetRefPoint0 */
MIRP[01101]	/* MoveIndirectRelPt */
IP[ ]	/* InterpolatePts */
MDAP[1]	/* MoveDirectAbsPt */
MIRP[01101]	/* MoveIndirectRelPt */
IP[ ]	/* InterpolatePts */
IP[ ]	/* InterpolatePts */
MDAP[1]	/* MoveDirectAbsPt */
MIRP[01101]	/* MoveIndirectRelPt */
IP[ ]	/* InterpolatePts */
IP[ ]	/* InterpolatePts */
MDAP[1]	/* MoveDirectAbsPt */
MIRP[11101]	/* MoveIndirectRelPt */
SRP1[ ]	/* SetRefPoint1 */
IP[ ]	/* InterpolatePts */
IP[ ]	/* InterpolatePts */
SVTCA[0]	/* SetFreedomAndProjectionVectorToAxis */
MIAP[1]	/* MoveIndirectAbsPt */
MIRP[01101]	/* MoveIndirectRelPt */
SLOOP[ ]	/* SetLoopVariable */
IP[ ]	/* InterpolatePts */
MIRP[01101]	/* MoveIndirectRelPt */
IP[ ]	/* InterpolatePts */
IP[ ]	/* InterpolatePts */
MIRP[11101]	/* MoveIndirectRelPt */
MIRP[01101]	/* MoveIndirectRelPt */
MIRP[01101]	/* MoveIndirectRelPt */
SRP0[ ]	/* SetRefPoint0 */
MIRP[01101]	/* MoveIndirectRelPt */
MDAP[1]	/* MoveDirectAbsPt */
MIRP[01101]	/* MoveIndirectRelPt */
MDAP[1]	/* MoveDirectAbsPt */
MIRP[01101]	/* MoveIndirectRelPt */
IP[ ]	/* InterpolatePts */
SRP0[ ]	/* SetRefPoint0 */
MIRP[01101]	/* MoveIndirectRelPt */
MDAP[1]	/* MoveDirectAbsPt */
MIRP[11101]	/* MoveIndirectRelPt */
MIRP[01101]	/* MoveIndirectRelPt */
IP[ ]	/* InterpolatePts */
SRP1[ ]	/* SetRefPoint1 */
SRP2[ ]	/* SetRefPoint2 */
IP[ ]	/* InterpolatePts */
SRP1[ ]	/* SetRefPoint1 */
IP[ ]	/* InterpolatePts */
IUP[1]	/* InterpolateUntPts */
IUP[0]	/* InterpolateUntPts */";
};
width = 2320;
}
);
note = tapecartridge;
unicode = 57;
}
{
color = 5;
glyphname = mouse3button;
layers = (
{
layerId = m01;
shapes = (
{
closed = 1;
nodes = (
(1724,-19,o),
(1877,138,o),
(1877,428,cs),
(1877,472,l),
(1852,951,ls),
(1846,1074,o),
(1801,1131,o),
(1689,1141,cs),
(1534,1157,l),
(1534,1157,o),
(1534,1160,o),
(1534,1160,c),
(1523,1314,o),
(1434,1531,o),
(1172,1531,cs),
(913,1531,o),
(797,1288,o),
(699,1085,cs),
(617,915,o),
(538,745,o),
(392,745,cs),
(323,745,o),
(230,808,o),
(183,928,cs),
(178,941,o),
(166,949,o),
(152,949,cs),
(134,949,o),
(119,934,o),
(119,916,cs),
(119,912,o),
(120,908,o),
(122,904,cs),
(179,758,o),
(295,679,o),
(392,679,cs),
(576,679,o),
(666,866,o),
(758,1056,cs),
(855,1257,o),
(956,1465,o),
(1172,1465,cs),
(1384,1465,o),
(1456,1294,o),
(1467,1163,c),
(1311,1179,ls),
(1287,1182,o),
(1265,1184,o),
(1244,1184,cs),
(1098,1184,o),
(1029,1102,o),
(1020,917,cs),
(1000,502,l),
(1000,432,ls),
(1000,137,o),
(1153,-19,o),
(1439,-19,cs)
);
},
{
closed = 1;
nodes = (
(1179,25,o),
(1046,162,o),
(1046,432,cs),
(1046,504,l),
(1058,765,l),
(1137,772,o),
(1212,777,o),
(1288,777,cs),
(1465,777,o),
(1637,754,o),
(1819,705,c),
(1831,469,l),
(1831,428,ls),
(1831,162,o),
(1700,25,o),
(1441,25,cs)
);
},
{
closed = 1;
nodes = (
(1756,770,o),
(1692,784,o),
(1626,795,c),
(1626,1103,l),
(1683,1097,ls),
(1772,1088,o),
(1801,1051,o),
(1807,949,cs),
(1817,753,l)
);
},
{
closed = 1;
nodes = (
(1066,916,ls),
(1073,1077,o),
(1124,1140,o),
(1244,1140,cs),
(1262,1140,o),
(1284,1138,o),
(1307,1135,cs),
(1319,1134,l),
(1319,823,l),
(1307,823,o),
(1294,823,o),
(1281,823,cs),
(1208,823,o),
(1133,820,o),
(1061,812,c)
);
},
{
closed = 1;
nodes = (
(1385,1127,l),
(1560,1109,l),
(1560,805,l),
(1504,812,o),
(1443,818,o),
(1385,820,c)
);
}
);
userData = {
assembly = "NPUSHB[ ]	/* 62 values pushed */
33 73 33 65 37 76 72 28 51 68 218 69 0 62 124 20 66 218 37 200 28 218 65 51 124 11 23 200 43 65 69 20 3 43 192 11 0 76 245 75 72 245 71 68 245 67 21 127 0 48 116 14 55 116 7 14 67 0 71 75 5 7
PUSHW[ ]	/* 2 values pushed */
277 31
MDAP[1]	/* MoveDirectAbsPt */
MIRP[01101]	/* MoveIndirectRelPt */
SLOOP[ ]	/* SetLoopVariable */
IP[ ]	/* InterpolatePts */
SRP0[ ]	/* SetRefPoint0 */
MIRP[01101]	/* MoveIndirectRelPt */
MDAP[1]	/* MoveDirectAbsPt */
MIRP[01101]	/* MoveIndirectRelPt */
MDAP[1]	/* MoveDirectAbsPt */
MIRP[01101]	/* MoveIndirectRelPt */
MDAP[1]	/* MoveDirectAbsPt */
MIRP[01101]	/* MoveIndirectRelPt */
MDAP[1]	/* MoveDirectAbsPt */
MIRP[01101]	/* MoveIndirectRelPt */
MDAP[1]	/* MoveDirectAbsPt */
MIRP[01101]	/* MoveIndirectRelPt */
SVTCA[0]	/* SetFreedomAndProjectionVectorToAxis */
MIAP[1]	/* MoveIndirectAbsPt */
MIRP[01101]	/* MoveIndirectRelPt */
SLOOP[ ]	/* SetLoopVariable */
IP[ ]	/* InterpolatePts */
SRP0[ ]	/* SetRefPoint0 */
MIRP[01101]	/* MoveIndirectRelPt */
SRP0[ ]	/* SetRefPoint0 */
MIRP[01101]	/* MoveIndirectRelPt */
MDAP[1]	/* MoveDirectAbsPt */
MIRP[11101]	/* MoveIndirectRelPt */
MIRP[01101]	/* MoveIndirectRelPt */
MIRP[01101]	/* MoveIndirectRelPt */
MDAP[1]	/* MoveDirectAbsPt */
MIRP[01101]	/* MoveIndirectRelPt */
IP[ ]	/* InterpolatePts */
MDAP[1]	/* MoveDirectAbsPt */
MIRP[01101]	/* MoveIndirectRelPt */
SRP1[ ]	/* SetRefPoint1 */
SRP2[ ]	/* SetRefPoint2 */
IP[ ]	/* InterpolatePts */
IP[ ]	/* InterpolatePts */
SRP1[ ]	/* SetRefPoint1 */
SRP2[ ]	/* SetRefPoint2 */
IP[ ]	/* InterpolatePts */
IP[ ]	/* InterpolatePts */
MDAP[1]	/* MoveDirectAbsPt */
IUP[1]	/* InterpolateUntPts */
IUP[0]	/* InterpolateUntPts */";
};
width = 2170;
}
);
note = mouse3button;
unicode = 59;
}
{
color = 5;
glyphname = thumbbackup;
layers = (
{
layerId = m01;
shapes = (
{
closed = 1;
nodes = (
(972,233,o),
(1051,273,o),
(1051,349,cs),
(1051,421,o),
(1138,395,o),
(1138,491,cs),
(1138,531,o),
(1122,547,o),
(1122,566,cs),
(1122,604,o),
(1195,616,o),
(1195,684,cs),
(1195,746,o),
(1139,763,o),
(1139,805,cs),
(1139,834,o),
(1174,851,o),
(1174,918,cs),
(1174,1008,o),
(1099,1022,o),
(1023,1033,cs),
(933,1046,o),
(880,1056,o),
(880,1142,cs),
(880,1223,o),
(908,1256,o),
(908,1348,cs),
(908,1457,o),
(843,1524,o),
(756,1524,cs),
(708,1524,o),
(648,1500,o),
(648,1476,cs),
(648,1457,o),
(666,1422,o),
(666,1358,cs),
(666,1203,o),
(590,1124,o),
(476,1027,cs),
(379,947,o),
(355,930,o),
(326,930,cs),
(247,930,l),
(203,880,o),
(173,766,o),
(173,662,cs),
(173,524,o),
(198,426,o),
(248,372,c),
(350,372,l),
(477,277,o),
(670,233,o),
(824,233,cs)
);
},
{
closed = 1;
nodes = (
(645,283,o),
(469,336,o),
(367,423,c),
(272,423,l),
(240,470,o),
(223,549,o),
(223,662,cs),
(223,742,o),
(244,831,o),
(272,879,c),
(326,879,ls),
(369,879,o),
(400,899,o),
(514,995,cs),
(624,1089,o),
(716,1171,o),
(716,1353,cs),
(716,1414,o),
(704,1435,o),
(704,1455,cs),
(704,1468,o),
(728,1478,o),
(758,1478,cs),
(826,1478,o),
(857,1426,o),
(857,1347,cs),
(857,1291,o),
(829,1217,o),
(829,1140,cs),
(829,1017,o),
(916,1003,o),
(992,993,cs),
(1060,984,o),
(1123,975,o),
(1123,905,cs),
(1123,861,o),
(1087,842,o),
(1087,805,cs),
(1087,754,o),
(1145,734,o),
(1145,690,cs),
(1145,629,o),
(1071,635,o),
(1071,566,cs),
(1071,542,o),
(1087,519,o),
(1087,494,cs),
(1087,418,o),
(1001,461,o),
(1001,358,cs),
(1001,312,o),
(940,283,o),
(824,283,cs)
);
}
);
userData = {
assembly = "NPUSHB[ ]	/* 39 values pushed */
57 12 79 80 3 13 21 27 31 61 65 4 71 90 35 49 50 57 4 0 52 71 124 21 90 124 0 41 42 46 93 4 94 124 52 124 44 21 13
PUSHW[ ]	/* 1 value pushed */
266
NPUSHB[ ]	/* 51 values pushed */
4 124 86 0 86 188 44 27 67 63 61 59 35 37 16 57 55 21 50 79 3 77 4 12 13 41 42 46 48 49 71 80 86 90 91 93 14 72 88 55 116 37 65 31 59 116 33 63 116 29 72
PUSHW[ ]	/* 1 value pushed */
418
NPUSHB[ ]	/* 16 values pushed */
77 116 16 0 88 116 2 67 116 25 16 37 33 29 4 25
PUSHW[ ]	/* 2 values pushed */
489 2
MDAP[1]	/* MoveDirectAbsPt */
MIRP[01101]	/* MoveIndirectRelPt */
SLOOP[ ]	/* SetLoopVariable */
IP[ ]	/* InterpolatePts */
SRP0[ ]	/* SetRefPoint0 */
MIRP[01101]	/* MoveIndirectRelPt */
SRP0[ ]	/* SetRefPoint0 */
MIRP[01101]	/* MoveIndirectRelPt */
IP[ ]	/* InterpolatePts */
MDAP[1]	/* MoveDirectAbsPt */
MIRP[01101]	/* MoveIndirectRelPt */
MIRP[01101]	/* MoveIndirectRelPt */
MDAP[1]	/* MoveDirectAbsPt */
MIRP[01101]	/* MoveIndirectRelPt */
MDAP[1]	/* MoveDirectAbsPt */
MIRP[01101]	/* MoveIndirectRelPt */
IP[ ]	/* InterpolatePts */
IP[ ]	/* InterpolatePts */
MDAP[1]	/* MoveDirectAbsPt */
MIRP[01101]	/* MoveIndirectRelPt */
SRP1[ ]	/* SetRefPoint1 */
SRP2[ ]	/* SetRefPoint2 */
SLOOP[ ]	/* SetLoopVariable */
IP[ ]	/* InterpolatePts */
SRP1[ ]	/* SetRefPoint1 */
SLOOP[ ]	/* SetLoopVariable */
IP[ ]	/* InterpolatePts */
SRP2[ ]	/* SetRefPoint2 */
IP[ ]	/* InterpolatePts */
SRP1[ ]	/* SetRefPoint1 */
SRP2[ ]	/* SetRefPoint2 */
IP[ ]	/* InterpolatePts */
SRP1[ ]	/* SetRefPoint1 */
IP[ ]	/* InterpolatePts */
SRP1[ ]	/* SetRefPoint1 */
SRP2[ ]	/* SetRefPoint2 */
IP[ ]	/* InterpolatePts */
SVTCA[0]	/* SetFreedomAndProjectionVectorToAxis */
MDAP[1]	/* MoveDirectAbsPt */
MIRP[00100]	/* MoveIndirectRelPt */
IP[ ]	/* InterpolatePts */
SRP0[ ]	/* SetRefPoint0 */
MIRP[11101]	/* MoveIndirectRelPt */
MIRP[00100]	/* MoveIndirectRelPt */
IP[ ]	/* InterpolatePts */
SRP0[ ]	/* SetRefPoint0 */
MIRP[01101]	/* MoveIndirectRelPt */
MIRP[01101]	/* MoveIndirectRelPt */
SLOOP[ ]	/* SetLoopVariable */
IP[ ]	/* InterpolatePts */
MDAP[1]	/* MoveDirectAbsPt */
MIRP[01101]	/* MoveIndirectRelPt */
MDAP[1]	/* MoveDirectAbsPt */
MIRP[01101]	/* MoveIndirectRelPt */
SRP1[ ]	/* SetRefPoint1 */
SRP2[ ]	/* SetRefPoint2 */
SLOOP[ ]	/* SetLoopVariable */
IP[ ]	/* InterpolatePts */
SRP1[ ]	/* SetRefPoint1 */
SRP2[ ]	/* SetRefPoint2 */
SLOOP[ ]	/* SetLoopVariable */
IP[ ]	/* InterpolatePts */
SRP1[ ]	/* SetRefPoint1 */
SRP2[ ]	/* SetRefPoint2 */
SLOOP[ ]	/* SetLoopVariable */
IP[ ]	/* InterpolatePts */
MDAP[1]	/* MoveDirectAbsPt */
IUP[1]	/* InterpolateUntPts */
IUP[0]	/* InterpolateUntPts */";
};
width = 1381;
}
);
note = thumbbackup;
unicode = 60;
}
{
color = 5;
glyphname = handptlft1;
layers = (
{
layerId = m01;
shapes = (
{
closed = 1;
nodes = (
(694,458,o),
(736,470,o),
(778,487,c),
(799,454,o),
(816,421,o),
(825,413,cs),
(838,402,o),
(862,398,o),
(890,398,cs),
(933,398,o),
(967,422,o),
(984,456,c),
(994,454,o),
(1004,453,o),
(1015,453,cs),
(1070,453,o),
(1110,480,o),
(1124,528,c),
(1143,531,o),
(1165,537,o),
(1186,545,c),
(1305,508,o),
(1382,495,o),
(1449,495,cs),
(1537,495,o),
(1586,519,o),
(1628,554,c),
(1670,534,l),
(1717,573,o),
(1745,657,o),
(1745,793,cs),
(1745,907,o),
(1717,1012,o),
(1671,1059,c),
(1651,1059,o),
(1632,1056,o),
(1586,1056,cs),
(1517,1056,o),
(1216,1158,o),
(1037,1158,cs),
(893,1158,o),
(778,1147,o),
(654,1118,cs),
(405,1063,ls),
(222,1022,o),
(169,996,o),
(169,932,cs),
(169,850,o),
(207,816,o),
(302,816,cs),
(370,816,o),
(481,840,o),
(642,840,cs),
(645,840,o),
(650,840,o),
(652,840,c),
(641,821,o),
(634,802,o),
(634,789,cs),
(634,753,o),
(642,720,o),
(655,689,c),
(617,660,o),
(596,624,o),
(596,584,cs),
(596,513,o),
(627,458,o),
(668,458,cs)
);
},
{
closed = 1;
nodes = (
(662,513,o),
(651,546,o),
(651,581,cs),
(651,623,o),
(683,656,o),
(763,682,cs),
(825,703,o),
(867,705,o),
(917,713,cs),
(992,725,o),
(1061,785,o),
(1044,838,c),
(987,874,o),
(833,896,o),
(642,896,cs),
(478,896,o),
(365,872,o),
(302,872,cs),
(237,872,o),
(225,882,o),
(225,932,cs),
(225,955,o),
(253,972,o),
(417,1010,cs),
(667,1065,ls),
(786,1091,o),
(897,1102,o),
(1037,1102,cs),
(1208,1102,o),
(1506,1000,o),
(1586,1000,cs),
(1609,1000,o),
(1632,1002,o),
(1647,1002,c),
(1674,958,o),
(1689,880,o),
(1689,793,cs),
(1689,694,o),
(1677,629,o),
(1648,592,c),
(1612,609,l),
(1551,562,o),
(1515,550,o),
(1446,550,cs),
(1374,550,o),
(1251,575,o),
(1186,603,c),
(1149,589,o),
(1111,580,o),
(1085,580,cs),
(1052,580,o),
(1019,595,o),
(978,595,cs),
(931,595,o),
(851,576,o),
(776,546,cs),
(736,528,o),
(694,513,o),
(676,513,cs)
);
},
{
closed = 1;
nodes = (
(690,798,o),
(701,817,o),
(718,839,c),
(834,835,o),
(929,823,o),
(981,805,c),
(968,789,o),
(939,771,o),
(909,767,cs),
(859,759,o),
(813,756,o),
(745,734,cs),
(729,729,o),
(716,724,o),
(704,718,c),
(695,742,o),
(690,765,o),
(690,789,cs)
);
},
{
closed = 1;
nodes = (
(861,516,o),
(887,524,o),
(913,530,c),
(923,517,o),
(931,505,o),
(939,491,c),
(933,469,o),
(916,454,o),
(890,454,cs),
(880,454,o),
(863,448,o),
(858,459,cs),
(851,475,o),
(842,492,o),
(833,507,c)
);
},
{
closed = 1;
nodes = (
(975,539,o),
(977,539,o),
(978,539,cs),
(1002,539,o),
(1028,529,o),
(1062,525,c),
(1052,513,o),
(1036,507,o),
(1015,507,cs),
(1008,507,o),
(999,508,o),
(992,510,c),
(985,522,o),
(980,530,o),
(974,539,c)
);
}
);
userData = {
assembly = "NPUSHB[ ]	/* 58 values pushed */
52 32 37 49 50 4 33 53 25 56 59 61 72 76 6 28 70 0 1 74 82 83 5 16 88 5 80 10 3 85 12 14 42 77 78 4 70 124 16 28 124 47 52 58 3 27 124 53 85 124 8 12 124 80 200 8 53 33
PUSHW[ ]	/* 1 value pushed */
315
PUSHB[ ]	/* 5 values pushed */
22 124 64 16 64
PUSHW[ ]	/* 1 value pushed */
315
NPUSHB[ ]	/* 40 values pushed */
8 1 3 5 10 14 25 27 33 42 47 49 54 56 58 59 61 72 74 76 77 78 82 83 88 24 44 67 50 31 67 116 19 37 0 44 116 40 19 40
PUSHW[ ]	/* 2 values pushed */
392 31
MDAP[1]	/* MoveDirectAbsPt */
MIRP[01101]	/* MoveIndirectRelPt */
IP[ ]	/* InterpolatePts */
SRP0[ ]	/* SetRefPoint0 */
MIRP[01101]	/* MoveIndirectRelPt */
IP[ ]	/* InterpolatePts */
IP[ ]	/* InterpolatePts */
MDAP[1]	/* MoveDirectAbsPt */
MIRP[01101]	/* MoveIndirectRelPt */
SRP2[ ]	/* SetRefPoint2 */
IP[ ]	/* InterpolatePts */
SRP1[ ]	/* SetRefPoint1 */
SRP2[ ]	/* SetRefPoint2 */
SLOOP[ ]	/* SetLoopVariable */
IP[ ]	/* InterpolatePts */
SVTCA[0]	/* SetFreedomAndProjectionVectorToAxis */
MDAP[1]	/* MoveDirectAbsPt */
MIRP[00100]	/* MoveIndirectRelPt */
IP[ ]	/* InterpolatePts */
SRP0[ ]	/* SetRefPoint0 */
MIRP[11101]	/* MoveIndirectRelPt */
MIRP[00100]	/* MoveIndirectRelPt */
IP[ ]	/* InterpolatePts */
SRP0[ ]	/* SetRefPoint0 */
MIRP[11101]	/* MoveIndirectRelPt */
MIRP[01101]	/* MoveIndirectRelPt */
SRP0[ ]	/* SetRefPoint0 */
MIRP[01101]	/* MoveIndirectRelPt */
MDAP[1]	/* MoveDirectAbsPt */
MIRP[01101]	/* MoveIndirectRelPt */
SLOOP[ ]	/* SetLoopVariable */
IP[ ]	/* InterpolatePts */
MIRP[01101]	/* MoveIndirectRelPt */
MDAP[1]	/* MoveDirectAbsPt */
MIRP[01101]	/* MoveIndirectRelPt */
SLOOP[ ]	/* SetLoopVariable */
IP[ ]	/* InterpolatePts */
SRP1[ ]	/* SetRefPoint1 */
SRP2[ ]	/* SetRefPoint2 */
IP[ ]	/* InterpolatePts */
IP[ ]	/* InterpolatePts */
SRP1[ ]	/* SetRefPoint1 */
IP[ ]	/* InterpolatePts */
IP[ ]	/* InterpolatePts */
SRP2[ ]	/* SetRefPoint2 */
SLOOP[ ]	/* SetLoopVariable */
IP[ ]	/* InterpolatePts */
SRP1[ ]	/* SetRefPoint1 */
SRP2[ ]	/* SetRefPoint2 */
SLOOP[ ]	/* SetLoopVariable */
IP[ ]	/* InterpolatePts */
SRP1[ ]	/* SetRefPoint1 */
SRP2[ ]	/* SetRefPoint2 */
SLOOP[ ]	/* SetLoopVariable */
IP[ ]	/* InterpolatePts */
MDAP[1]	/* MoveDirectAbsPt */
IUP[1]	/* InterpolateUntPts */
IUP[0]	/* InterpolateUntPts */";
};
width = 1938;
}
);
note = handptlft1;
unicode = 62;
}
{
color = 5;
glyphname = handptlftsld1;
layers = (
{
layerId = m01;
shapes = (
{
closed = 1;
nodes = (
(917,386,o),
(947,409,o),
(957,448,c),
(965,444,o),
(980,443,o),
(993,443,cs),
(1042,443,o),
(1076,469,o),
(1081,518,c),
(1089,517,o),
(1094,517,o),
(1102,517,cs),
(1126,517,o),
(1165,525,o),
(1207,539,c),
(1331,502,o),
(1411,486,o),
(1480,486,cs),
(1566,486,o),
(1609,507,o),
(1651,543,c),
(1666,536,o),
(1677,530,o),
(1690,523,c),
(1741,567,o),
(1761,655,o),
(1761,768,cs),
(1761,865,o),
(1741,965,o),
(1699,1016,c),
(1683,1015,o),
(1662,1013,o),
(1624,1013,cs),
(1547,1013,o),
(1232,1118,o),
(1052,1118,cs),
(904,1118,o),
(786,1108,o),
(659,1079,cs),
(400,1021,ls),
(199,976,o),
(176,953,o),
(176,913,cs),
(176,847,o),
(200,821,o),
(286,821,cs),
(355,821,o),
(471,847,o),
(640,847,cs),
(656,847,o),
(672,847,o),
(687,847,c),
(659,815,o),
(640,784,o),
(640,763,cs),
(640,721,o),
(654,680,o),
(674,641,c),
(640,615,o),
(620,583,o),
(620,552,cs),
(620,498,o),
(651,448,o),
(670,448,cs),
(691,448,o),
(744,465,o),
(778,478,c),
(798,449,o),
(815,422,o),
(828,391,c),
(841,388,o),
(859,386,o),
(878,386,cs)
);
}
);
userData = {
assembly = "NPUSHB[ ]	/* 20 values pushed */
247 18 1 23 24 23 24 28 33 18 5 29 19 0 1 3 5 9 5 11
PUSHW[ ]	/* 1 value pushed */
410
PUSHB[ ]	/* 3 values pushed */
21 13 19
PUSHW[ ]	/* 5 values pushed */
306 15 412 29 365
NPUSHB[ ]	/* 15 values pushed */
7 17 0 1 3 5 9 13 17 21 23 29 33 11 35
PUSHW[ ]	/* 2 values pushed */
392 27
MDAP[1]	/* MoveDirectAbsPt */
MIRP[01101]	/* MoveIndirectRelPt */
SLOOP[ ]	/* SetLoopVariable */
IP[ ]	/* InterpolatePts */
MDAP[1]	/* MoveDirectAbsPt */
SVTCA[0]	/* SetFreedomAndProjectionVectorToAxis */
MDAP[1]	/* MoveDirectAbsPt */
MIRP[01101]	/* MoveIndirectRelPt */
MIRP[10100]	/* MoveIndirectRelPt */
MIRP[01101]	/* MoveIndirectRelPt */
IP[ ]	/* InterpolatePts */
IP[ ]	/* InterpolatePts */
MIRP[00100]	/* MoveIndirectRelPt */
SLOOP[ ]	/* SetLoopVariable */
IP[ ]	/* InterpolatePts */
SRP1[ ]	/* SetRefPoint1 */
SRP2[ ]	/* SetRefPoint2 */
SLOOP[ ]	/* SetLoopVariable */
IP[ ]	/* InterpolatePts */
MDAP[1]	/* MoveDirectAbsPt */
MDAP[1]	/* MoveDirectAbsPt */
DELTAP1[ ]	/* DeltaExceptionP1 */
IUP[1]	/* InterpolateUntPts */
IUP[0]	/* InterpolateUntPts */";
};
width = 1938;
}
);
note = handptlftsld1;
unicode = 64;
}
{
color = 5;
glyphname = handbckptleft;
layers = (
{
layerId = m01;
shapes = (
{
closed = 1;
nodes = (
(1100,427,o),
(1287,469,o),
(1411,563,c),
(1510,563,l),
(1559,614,o),
(1583,709,o),
(1583,844,cs),
(1583,946,o),
(1553,1057,o),
(1511,1105,c),
(1507,1106,o),
(1457,1102,o),
(1435,1102,cs),
(1388,1102,o),
(1370,1105,o),
(1293,1166,cs),
(1208,1232,o),
(1154,1254,o),
(1072,1254,cs),
(979,1254,o),
(903,1242,o),
(846,1219,cs),
(786,1194,o),
(738,1181,o),
(714,1174,cs),
(698,1170,o),
(681,1162,o),
(670,1154,c),
(631,1151,o),
(592,1148,o),
(552,1144,cs),
(490,1137,o),
(411,1128,o),
(355,1121,cs),
(244,1107,o),
(196,1076,o),
(196,1011,cs),
(196,947,o),
(241,917,o),
(330,917,cs),
(361,917,o),
(425,921,o),
(482,921,cs),
(525,921,o),
(567,919,o),
(607,916,c),
(590,893,o),
(585,870,o),
(585,837,cs),
(585,794,o),
(604,768,o),
(643,750,cs),
(655,745,o),
(662,739,o),
(662,730,cs),
(662,715,o),
(649,694,o),
(649,669,cs),
(649,622,o),
(672,590,o),
(715,575,cs),
(727,571,o),
(729,568,o),
(729,548,cs),
(729,466,o),
(806,427,o),
(950,427,cs)
);
},
{
closed = 1;
nodes = (
(715,966,l),
(717,963,l)
);
},
{
closed = 1;
nodes = (
(836,476,o),
(778,503,o),
(778,548,cs),
(778,587,o),
(764,609,o),
(732,621,cs),
(707,631,o),
(698,643,o),
(698,669,cs),
(698,682,o),
(703,692,o),
(707,709,cs),
(715,745,o),
(706,779,o),
(664,794,cs),
(641,802,o),
(634,813,o),
(634,837,cs),
(634,886,o),
(645,898,o),
(717,963,c),
(715,966,l),
(654,955,o),
(570,970,o),
(482,970,cs),
(423,970,o),
(359,966,o),
(330,966,cs),
(264,966,o),
(245,980,o),
(245,1011,cs),
(245,1045,o),
(274,1059,o),
(362,1072,cs),
(416,1080,o),
(491,1088,o),
(559,1095,cs),
(597,1099,o),
(647,1102,o),
(694,1107,c),
(694,1111,o),
(711,1122,o),
(726,1126,cs),
(751,1133,o),
(802,1148,o),
(865,1174,cs),
(915,1194,o),
(986,1205,o),
(1072,1205,cs),
(1143,1205,o),
(1187,1188,o),
(1263,1126,cs),
(1343,1063,o),
(1374,1053,o),
(1435,1053,cs),
(1449,1053,o),
(1470,1054,o),
(1487,1056,c),
(1514,1008,o),
(1534,923,o),
(1534,844,cs),
(1534,735,o),
(1518,658,o),
(1487,612,c),
(1394,612,l),
(1295,527,o),
(1124,476,o),
(950,476,cs)
);
},
{
closed = 1;
nodes = (
(1640,518,ls),
(1729,518,o),
(1753,709,o),
(1753,834,cs),
(1753,958,o),
(1727,1152,o),
(1640,1152,cs),
(1538,1152,ls),
(1522,1152,o),
(1511,1140,o),
(1511,1120,cs),
(1511,1117,l),
(1518,1125,o),
(1522,1126,o),
(1532,1126,cs),
(1608,1126,o),
(1628,957,o),
(1628,834,cs),
(1628,709,o),
(1604,541,o),
(1532,541,cs),
(1522,541,o),
(1517,545,o),
(1511,555,c),
(1511,545,ls),
(1511,530,o),
(1518,518,o),
(1538,518,cs)
);
}
);
userData = {
assembly = "NPUSHB[ ]	/* 49 values pushed */
57 61 42 28 43 27 44 25 14 17 57 3 19 71 11 61 69 3 1 66 45 124 44 47 124 25 53 124 19 18 19 124 54 40 124 30 71 124 1 39 124 30 3 66 124 6 44 25 28
PUSHW[ ]	/* 1 value pushed */
560
PUSHB[ ]	/* 3 values pushed */
30 54 30
PUSHW[ ]	/* 3 values pushed */
557 1 560
NPUSHB[ ]	/* 37 values pushed */
6 1 3 28 30 31 35 39 40 42 44 45 69 71 13 37 43 11 63 59 27 13 55 116 16 59 116 13 168 63 50 116 22 0 37 116 33
PUSHW[ ]	/* 1 value pushed */
559
PUSHB[ ]	/* 5 values pushed */
63 116 9 16 9
PUSHW[ ]	/* 2 values pushed */
559 22
MDAP[1]	/* MoveDirectAbsPt */
MIRP[00100]	/* MoveIndirectRelPt */
IP[ ]	/* InterpolatePts */
SRP0[ ]	/* SetRefPoint0 */
MIRP[11101]	/* MoveIndirectRelPt */
MIRP[10100]	/* MoveIndirectRelPt */
MIRP[01101]	/* MoveIndirectRelPt */
IP[ ]	/* InterpolatePts */
SRP0[ ]	/* SetRefPoint0 */
MIRP[01101]	/* MoveIndirectRelPt */
SRP0[ ]	/* SetRefPoint0 */
MIRP[11101]	/* MoveIndirectRelPt */
MIRP[01101]	/* MoveIndirectRelPt */
MDAP[1]	/* MoveDirectAbsPt */
MIRP[11101]	/* MoveIndirectRelPt */
SRP1[ ]	/* SetRefPoint1 */
IP[ ]	/* InterpolatePts */
SRP1[ ]	/* SetRefPoint1 */
SRP2[ ]	/* SetRefPoint2 */
IP[ ]	/* InterpolatePts */
IP[ ]	/* InterpolatePts */
SRP1[ ]	/* SetRefPoint1 */
SLOOP[ ]	/* SetLoopVariable */
IP[ ]	/* InterpolatePts */
SVTCA[0]	/* SetFreedomAndProjectionVectorToAxis */
MDAP[1]	/* MoveDirectAbsPt */
MIRP[10100]	/* MoveIndirectRelPt */
MIRP[01101]	/* MoveIndirectRelPt */
IP[ ]	/* InterpolatePts */
SRP0[ ]	/* SetRefPoint0 */
MIRP[00100]	/* MoveIndirectRelPt */
IP[ ]	/* InterpolatePts */
IP[ ]	/* InterpolatePts */
SRP0[ ]	/* SetRefPoint0 */
MIRP[01101]	/* MoveIndirectRelPt */
IP[ ]	/* InterpolatePts */
SRP0[ ]	/* SetRefPoint0 */
MIRP[01101]	/* MoveIndirectRelPt */
SRP0[ ]	/* SetRefPoint0 */
MIRP[01101]	/* MoveIndirectRelPt */
SRP0[ ]	/* SetRefPoint0 */
MIRP[01101]	/* MoveIndirectRelPt */
MDAP[1]	/* MoveDirectAbsPt */
MIRP[01101]	/* MoveIndirectRelPt */
IP[ ]	/* InterpolatePts */
SRP0[ ]	/* SetRefPoint0 */
MIRP[01101]	/* MoveIndirectRelPt */
MDAP[1]	/* MoveDirectAbsPt */
MIRP[01101]	/* MoveIndirectRelPt */
MDAP[1]	/* MoveDirectAbsPt */
MIRP[01101]	/* MoveIndirectRelPt */
SRP1[ ]	/* SetRefPoint1 */
SRP2[ ]	/* SetRefPoint2 */
SLOOP[ ]	/* SetLoopVariable */
IP[ ]	/* InterpolatePts */
SRP1[ ]	/* SetRefPoint1 */
SRP2[ ]	/* SetRefPoint2 */
SLOOP[ ]	/* SetLoopVariable */
IP[ ]	/* InterpolatePts */
SRP1[ ]	/* SetRefPoint1 */
SRP2[ ]	/* SetRefPoint2 */
IP[ ]	/* InterpolatePts */
IP[ ]	/* InterpolatePts */
SRP1[ ]	/* SetRefPoint1 */
IP[ ]	/* InterpolatePts */
MDAP[1]	/* MoveDirectAbsPt */
MDAP[1]	/* MoveDirectAbsPt */
IUP[1]	/* InterpolateUntPts */
IUP[0]	/* InterpolateUntPts */";
};
width = 1928;
}
);
note = handbckptleft;
unicode = 66;
}
{
color = 5;
glyphname = handbckptright;
layers = (
{
layerId = m01;
shapes = (
{
closed = 1;
nodes = (
(1133,427,o),
(1210,466,o),
(1210,548,cs),
(1210,568,o),
(1212,571,o),
(1224,575,cs),
(1267,590,o),
(1290,622,o),
(1290,669,cs),
(1290,694,o),
(1277,715,o),
(1277,730,cs),
(1277,739,o),
(1284,745,o),
(1296,750,cs),
(1335,768,o),
(1354,794,o),
(1354,837,cs),
(1354,870,o),
(1349,893,o),
(1332,916,c),
(1372,919,o),
(1414,921,o),
(1457,921,cs),
(1514,921,o),
(1578,917,o),
(1609,917,cs),
(1698,917,o),
(1743,947,o),
(1743,1011,cs),
(1743,1076,o),
(1695,1107,o),
(1584,1121,cs),
(1528,1128,o),
(1449,1137,o),
(1387,1144,cs),
(1347,1148,o),
(1308,1151,o),
(1269,1154,c),
(1258,1162,o),
(1241,1170,o),
(1225,1174,cs),
(1201,1181,o),
(1153,1194,o),
(1093,1219,cs),
(1036,1242,o),
(960,1254,o),
(867,1254,cs),
(785,1254,o),
(731,1232,o),
(646,1166,cs),
(569,1105,o),
(551,1102,o),
(504,1102,cs),
(482,1102,o),
(432,1106,o),
(428,1105,c),
(386,1057,o),
(356,946,o),
(356,844,cs),
(356,709,o),
(380,614,o),
(429,563,c),
(528,563,l),
(652,469,o),
(839,427,o),
(989,427,cs)
);
},
{
closed = 1;
nodes = (
(1224,966,l),
(1222,963,l),
(1222,963,l)
);
},
{
closed = 1;
nodes = (
(815,476,o),
(644,527,o),
(545,612,c),
(452,612,l),
(421,658,o),
(405,735,o),
(405,844,cs),
(405,923,o),
(425,1008,o),
(452,1056,c),
(469,1054,o),
(490,1053,o),
(504,1053,cs),
(565,1053,o),
(596,1063,o),
(676,1126,cs),
(752,1188,o),
(796,1205,o),
(867,1205,cs),
(953,1205,o),
(1024,1194,o),
(1074,1174,cs),
(1137,1148,o),
(1188,1133,o),
(1213,1126,cs),
(1228,1122,o),
(1245,1111,o),
(1245,1107,c),
(1292,1102,o),
(1342,1099,o),
(1380,1095,cs),
(1448,1088,o),
(1523,1080,o),
(1577,1072,cs),
(1665,1059,o),
(1694,1045,o),
(1694,1011,cs),
(1694,980,o),
(1675,966,o),
(1609,966,cs),
(1580,966,o),
(1516,970,o),
(1457,970,cs),
(1369,970,o),
(1285,955,o),
(1224,966,c),
(1222,963,l),
(1294,898,o),
(1305,886,o),
(1305,837,cs),
(1305,813,o),
(1298,802,o),
(1275,794,cs),
(1233,779,o),
(1224,745,o),
(1232,709,cs),
(1236,692,o),
(1241,682,o),
(1241,669,cs),
(1241,643,o),
(1232,631,o),
(1207,621,cs),
(1175,609,o),
(1161,587,o),
(1161,548,cs),
(1161,503,o),
(1103,476,o),
(989,476,cs)
);
},
{
closed = 1;
nodes = (
(421,518,o),
(428,530,o),
(428,545,cs),
(428,555,l),
(422,545,o),
(417,541,o),
(407,541,cs),
(335,541,o),
(311,709,o),
(311,834,cs),
(311,957,o),
(331,1126,o),
(407,1126,cs),
(417,1126,o),
(421,1125,o),
(428,1117,c),
(428,1120,ls),
(428,1140,o),
(417,1152,o),
(401,1152,cs),
(299,1152,ls),
(212,1152,o),
(186,958,o),
(186,834,cs),
(186,709,o),
(210,518,o),
(299,518,cs),
(401,518,l),
(401,518,l)
);
}
);
userData = {
assembly = "NPUSHB[ ]	/* 49 values pushed */
16 45 49 65 7 64 8 63 9 16 18 21 49 4 17 35 24 38 45 3 0 41 62 124 63 60 124 9 53 124 17 124 54 67 124 4 32 41 124 29 68 124 4 35 124 0 63 9 7
PUSHW[ ]	/* 1 value pushed */
560
PUSHB[ ]	/* 3 values pushed */
4 54 4
PUSHW[ ]	/* 3 values pushed */
557 0 560
NPUSHB[ ]	/* 40 values pushed */
29 8 52 22 64 24 48 4 5 7 32 34 35 36 38 62 63 65 67 68 13 44 70 52 116 19 48 116 22 168 44 0 70 116 2 57 116 13 19 13
PUSHW[ ]	/* 1 value pushed */
559
PUSHB[ ]	/* 3 values pushed */
26 116 44
PUSHW[ ]	/* 2 values pushed */
559 2
MDAP[1]	/* MoveDirectAbsPt */
MIRP[10100]	/* MoveIndirectRelPt */
MIRP[11101]	/* MoveIndirectRelPt */
MIRP[00100]	/* MoveIndirectRelPt */
IP[ ]	/* InterpolatePts */
SRP0[ ]	/* SetRefPoint0 */
MIRP[01101]	/* MoveIndirectRelPt */
SRP0[ ]	/* SetRefPoint0 */
MIRP[01101]	/* MoveIndirectRelPt */
IP[ ]	/* InterpolatePts */
SRP0[ ]	/* SetRefPoint0 */
MIRP[11101]	/* MoveIndirectRelPt */
MIRP[01101]	/* MoveIndirectRelPt */
MDAP[1]	/* MoveDirectAbsPt */
MIRP[01101]	/* MoveIndirectRelPt */
SRP1[ ]	/* SetRefPoint1 */
SRP2[ ]	/* SetRefPoint2 */
SLOOP[ ]	/* SetLoopVariable */
IP[ ]	/* InterpolatePts */
SRP1[ ]	/* SetRefPoint1 */
IP[ ]	/* InterpolatePts */
IP[ ]	/* InterpolatePts */
SRP1[ ]	/* SetRefPoint1 */
SRP2[ ]	/* SetRefPoint2 */
IP[ ]	/* InterpolatePts */
SVTCA[0]	/* SetFreedomAndProjectionVectorToAxis */
MDAP[1]	/* MoveDirectAbsPt */
MIRP[10100]	/* MoveIndirectRelPt */
MIRP[01101]	/* MoveIndirectRelPt */
IP[ ]	/* InterpolatePts */
SRP0[ ]	/* SetRefPoint0 */
MIRP[00100]	/* MoveIndirectRelPt */
IP[ ]	/* InterpolatePts */
IP[ ]	/* InterpolatePts */
SRP0[ ]	/* SetRefPoint0 */
MIRP[01101]	/* MoveIndirectRelPt */
SRP0[ ]	/* SetRefPoint0 */
MIRP[01101]	/* MoveIndirectRelPt */
SRP0[ ]	/* SetRefPoint0 */
MIRP[01101]	/* MoveIndirectRelPt */
IP[ ]	/* InterpolatePts */
SRP0[ ]	/* SetRefPoint0 */
MIRP[01101]	/* MoveIndirectRelPt */
MDAP[1]	/* MoveDirectAbsPt */
MIRP[11101]	/* MoveIndirectRelPt */
MIRP[01101]	/* MoveIndirectRelPt */
MDAP[1]	/* MoveDirectAbsPt */
MIRP[01101]	/* MoveIndirectRelPt */
MDAP[1]	/* MoveDirectAbsPt */
MIRP[01101]	/* MoveIndirectRelPt */
SRP1[ ]	/* SetRefPoint1 */
SRP2[ ]	/* SetRefPoint2 */
SLOOP[ ]	/* SetLoopVariable */
IP[ ]	/* InterpolatePts */
SRP1[ ]	/* SetRefPoint1 */
SRP2[ ]	/* SetRefPoint2 */
SLOOP[ ]	/* SetLoopVariable */
IP[ ]	/* InterpolatePts */
SRP1[ ]	/* SetRefPoint1 */
SRP2[ ]	/* SetRefPoint2 */
IP[ ]	/* InterpolatePts */
IP[ ]	/* InterpolatePts */
SRP1[ ]	/* SetRefPoint1 */
IP[ ]	/* InterpolatePts */
MDAP[1]	/* MoveDirectAbsPt */
MDAP[1]	/* MoveDirectAbsPt */
MDAP[1]	/* MoveDirectAbsPt */
IUP[1]	/* InterpolateUntPts */
IUP[0]	/* InterpolateUntPts */";
};
width = 1928;
}
);
note = handbckptright;
unicode = 67;
}
{
color = 5;
glyphname = handptlftsld;
layers = (
{
layerId = m01;
shapes = (
{
closed = 1;
nodes = (
(1215,397,o),
(1430,445,o),
(1568,555,c),
(1680,555,l),
(1726,610,o),
(1750,710,o),
(1750,855,cs),
(1750,964,o),
(1720,1075,o),
(1680,1130,c),
(1660,1128,o),
(1625,1127,o),
(1605,1127,cs),
(1542,1127,o),
(1519,1142,o),
(1422,1208,cs),
(1327,1272,o),
(1275,1304,o),
(1183,1304,cs),
(1088,1304,o),
(997,1293,o),
(929,1265,cs),
(854,1233,o),
(801,1217,o),
(771,1211,cs),
(757,1208,o),
(736,1200,o),
(725,1189,c),
(674,1184,o),
(623,1182,o),
(581,1176,cs),
(502,1165,o),
(414,1157,o),
(351,1149,cs),
(261,1138,o),
(189,1121,o),
(189,1049,cs),
(189,996,o),
(224,969,o),
(316,969,cs),
(352,969,o),
(425,973,o),
(493,973,cs),
(568,973,o),
(639,966,o),
(701,966,c),
(655,920,o),
(643,897,o),
(643,846,cs),
(643,811,o),
(655,786,o),
(695,769,cs),
(715,760,o),
(733,744,o),
(733,725,cs),
(733,695,o),
(717,679,o),
(717,650,cs),
(717,609,o),
(736,580,o),
(775,568,cs),
(799,559,o),
(810,547,o),
(810,509,cs),
(810,422,o),
(915,397,o),
(1040,397,cs)
);
}
);
userData = {
assembly = "PUSHB[ ]	/* 8 values pushed */
17 27 208 18 16 13 1 18
PUSHW[ ]	/* 5 values pushed */
301 22 396 24 412
PUSHB[ ]	/* 4 values pushed */
25 10 3 1
PUSHW[ ]	/* 3 values pushed */
560 25 561
PUSHB[ ]	/* 6 values pushed */
5 24 12 15 146 12
PUSHW[ ]	/* 1 value pushed */
545
NPUSHB[ ]	/* 10 values pushed */
8 0 1 3 10 25 27 28 7 8
PUSHW[ ]	/* 4 values pushed */
373 30 392 20
MDAP[1]	/* MoveDirectAbsPt */
MIRP[11101]	/* MoveIndirectRelPt */
MIRP[01101]	/* MoveIndirectRelPt */
SLOOP[ ]	/* SetLoopVariable */
IP[ ]	/* InterpolatePts */
SRP0[ ]	/* SetRefPoint0 */
MIRP[00100]	/* MoveIndirectRelPt */
MIRP[10100]	/* MoveIndirectRelPt */
SRP1[ ]	/* SetRefPoint1 */
IP[ ]	/* InterpolatePts */
SVTCA[0]	/* SetFreedomAndProjectionVectorToAxis */
MDAP[1]	/* MoveDirectAbsPt */
MIRP[01101]	/* MoveIndirectRelPt */
MIRP[00100]	/* MoveIndirectRelPt */
IP[ ]	/* InterpolatePts */
IP[ ]	/* InterpolatePts */
SRP0[ ]	/* SetRefPoint0 */
MIRP[10100]	/* MoveIndirectRelPt */
MIRP[10100]	/* MoveIndirectRelPt */
MIRP[01101]	/* MoveIndirectRelPt */
SRP1[ ]	/* SetRefPoint1 */
IP[ ]	/* InterpolatePts */
IP[ ]	/* InterpolatePts */
SRP0[ ]	/* SetRefPoint0 */
MIRP[01101]	/* MoveIndirectRelPt */
IP[ ]	/* InterpolatePts */
IUP[1]	/* InterpolateUntPts */
IUP[0]	/* InterpolateUntPts */";
};
width = 1928;
}
);
note = handptlftsld;
unicode = 68;
}
{
color = 5;
glyphname = handptrtsld;
layers = (
{
layerId = m01;
shapes = (
{
closed = 1;
nodes = (
(1017,375,o),
(1122,400,o),
(1122,488,cs),
(1122,526,o),
(1133,538,o),
(1157,546,cs),
(1197,559,o),
(1216,588,o),
(1216,629,cs),
(1216,658,o),
(1203,674,o),
(1200,704,cs),
(1198,723,o),
(1217,739,o),
(1238,749,cs),
(1278,766,o),
(1290,790,o),
(1290,827,cs),
(1290,877,o),
(1278,900,o),
(1232,946,c),
(1294,946,o),
(1365,954,o),
(1440,954,cs),
(1508,954,o),
(1582,949,o),
(1618,949,cs),
(1711,949,o),
(1746,976,o),
(1746,1030,cs),
(1746,1102,o),
(1674,1119,o),
(1583,1130,cs),
(1520,1138,o),
(1432,1146,o),
(1353,1158,cs),
(1271,1169,o),
(1150,1167,o),
(1093,1188,c),
(823,1123,l),
(851,1092,o),
(1036,1045,o),
(1103,1045,cs),
(1165,1045,o),
(1214,1094,o),
(1214,1158,cs),
(1214,1172,o),
(1182,1188,o),
(1162,1193,cs),
(1131,1199,o),
(1077,1215,o),
(1002,1247,cs),
(934,1275,o),
(843,1286,o),
(748,1286,cs),
(655,1286,o),
(598,1261,o),
(507,1189,cs),
(415,1116,o),
(386,1108,o),
(323,1108,cs),
(304,1108,o),
(269,1110,o),
(248,1111,c),
(208,1056,o),
(178,944,o),
(178,834,cs),
(178,690,o),
(202,589,o),
(248,534,c),
(361,534,l),
(499,422,o),
(716,375,o),
(891,375,cs)
);
}
);
userData = {
assembly = "PUSHB[ ]	/* 3 values pushed */
8 7 9
PUSHW[ ]	/* 3 values pushed */
301 15 396
PUSHB[ ]	/* 6 values pushed */
4 208 14 19 16 14
PUSHW[ ]	/* 1 value pushed */
315
PUSHB[ ]	/* 4 values pushed */
0 29 22 0
PUSHW[ ]	/* 3 values pushed */
560 7 561
PUSHB[ ]	/* 4 values pushed */
27 8 17 20
PUSHW[ ]	/* 1 value pushed */
545
NPUSHB[ ]	/* 12 values pushed */
17 146 24 0 4 5 7 22 29 31 7 24
PUSHW[ ]	/* 4 values pushed */
373 12 392 2
MDAP[1]	/* MoveDirectAbsPt */
MIRP[01101]	/* MoveIndirectRelPt */
MIRP[01101]	/* MoveIndirectRelPt */
SLOOP[ ]	/* SetLoopVariable */
IP[ ]	/* InterpolatePts */
SRP0[ ]	/* SetRefPoint0 */
MIRP[00100]	/* MoveIndirectRelPt */
MIRP[10100]	/* MoveIndirectRelPt */
SRP1[ ]	/* SetRefPoint1 */
IP[ ]	/* InterpolatePts */
SVTCA[0]	/* SetFreedomAndProjectionVectorToAxis */
MDAP[1]	/* MoveDirectAbsPt */
MIRP[01101]	/* MoveIndirectRelPt */
MIRP[00100]	/* MoveIndirectRelPt */
IP[ ]	/* InterpolatePts */
IP[ ]	/* InterpolatePts */
SRP0[ ]	/* SetRefPoint0 */
MIRP[00100]	/* MoveIndirectRelPt */
IP[ ]	/* InterpolatePts */
IP[ ]	/* InterpolatePts */
SRP0[ ]	/* SetRefPoint0 */
MIRP[01101]	/* MoveIndirectRelPt */
MIRP[10100]	/* MoveIndirectRelPt */
MIRP[11101]	/* MoveIndirectRelPt */
SRP1[ ]	/* SetRefPoint1 */
IP[ ]	/* InterpolatePts */
IUP[1]	/* InterpolateUntPts */
IUP[0]	/* InterpolateUntPts */";
};
width = 1928;
}
);
note = handptrtsld;
unicode = 69;
}
{
color = 5;
glyphname = handspreadback;
layers = (
{
layerId = m01;
shapes = (
{
closed = 1;
nodes = (
(1171,-36,o),
(1282,-7,o),
(1347,51,c),
(1347,155,ls),
(1347,203,o),
(1356,226,o),
(1389,267,cs),
(1473,369,o),
(1478,483,o),
(1478,657,cs),
(1478,783,ls),
(1478,819,o),
(1497,867,o),
(1508,894,cs),
(1544,989,o),
(1586,1114,o),
(1586,1161,cs),
(1586,1223,o),
(1555,1262,o),
(1506,1262,cs),
(1457,1262,o),
(1424,1224,o),
(1400,1147,cs),
(1383,1095,o),
(1350,1022,o),
(1330,956,cs),
(1314,902,o),
(1306,891,o),
(1302,891,cs),
(1299,891,o),
(1297,893,o),
(1297,896,cs),
(1297,931,o),
(1323,1046,o),
(1327,1077,cs),
(1339,1158,o),
(1359,1310,o),
(1359,1357,cs),
(1359,1439,o),
(1353,1518,o),
(1258,1518,cs),
(1205,1518,o),
(1169,1467,o),
(1162,1385,cs),
(1159,1351,o),
(1145,1260,o),
(1132,1156,cs),
(1118,1053,o),
(1109,982,o),
(1095,955,cs),
(1094,952,o),
(1092,950,o),
(1089,950,cs),
(1079,950,o),
(1077,955,o),
(1077,967,cs),
(1077,1069,o),
(1074,1167,o),
(1074,1259,cs),
(1074,1336,o),
(1079,1387,o),
(1079,1439,cs),
(1079,1525,o),
(1068,1607,o),
(978,1607,cs),
(910,1607,o),
(873,1566,o),
(873,1483,cs),
(873,1328,o),
(859,1266,o),
(859,1174,cs),
(859,1111,o),
(856,1006,o),
(856,971,cs),
(856,964,o),
(855,962,o),
(852,962,cs),
(848,962,o),
(847,964,o),
(845,967,cs),
(833,989,o),
(824,1065,o),
(794,1197,cs),
(779,1265,o),
(758,1375,o),
(749,1411,cs),
(727,1501,o),
(698,1539,o),
(644,1539,cs),
(579,1539,o),
(538,1489,o),
(538,1414,cs),
(538,1390,o),
(571,1215,o),
(588,1137,cs),
(605,1059,o),
(621,971,o),
(621,888,cs),
(621,852,o),
(611,794,o),
(611,730,cs),
(611,682,o),
(587,625,o),
(561,625,cs),
(507,625,o),
(487,651,o),
(442,658,c),
(383,706,o),
(322,747,o),
(240,747,cs),
(173,747,o),
(114,703,o),
(114,652,cs),
(114,623,o),
(129,604,o),
(165,583,cs),
(207,557,o),
(230,524,o),
(296,482,cs),
(338,455,o),
(392,366,o),
(439,342,cs),
(517,301,o),
(705,142,o),
(705,122,cs),
(705,50,l),
(764,0,o),
(894,-36,o),
(1010,-36,cs)
);
},
{
closed = 1;
nodes = (
(918,18,o),
(817,42,o),
(760,78,c),
(760,122,ls),
(760,170,o),
(582,331,o),
(463,390,cs),
(430,407,o),
(376,494,o),
(326,527,cs),
(266,566,o),
(240,596,o),
(194,628,cs),
(180,637,o),
(168,646,o),
(168,652,cs),
(168,673,o),
(203,693,o),
(240,693,cs),
(317,693,o),
(365,648,o),
(416,605,c),
(437,608,o),
(489,571,o),
(561,571,cs),
(623,571,o),
(665,645,o),
(665,732,cs),
(665,791,o),
(675,848,o),
(675,888,cs),
(675,980,o),
(654,1068,o),
(641,1146,cs),
(627,1224,o),
(593,1396,o),
(593,1414,cs),
(593,1461,o),
(611,1485,o),
(644,1485,cs),
(666,1485,o),
(680,1465,o),
(698,1397,cs),
(707,1363,o),
(725,1254,o),
(742,1185,cs),
(773,1051,o),
(787,976,o),
(796,947,cs),
(805,919,o),
(824,909,o),
(852,909,cs),
(883,909,o),
(910,923,o),
(910,958,cs),
(910,1004,o),
(913,1111,o),
(913,1174,cs),
(913,1263,o),
(927,1324,o),
(927,1483,cs),
(927,1534,o),
(940,1552,o),
(975,1552,cs),
(1014,1552,o),
(1025,1533,o),
(1025,1439,cs),
(1025,1396,o),
(1020,1348,o),
(1020,1283,cs),
(1020,1180,o),
(1023,1072,o),
(1023,958,cs),
(1023,909,o),
(1053,899,o),
(1091,899,cs),
(1124,899,o),
(1139,911,o),
(1148,953,cs),
(1156,986,o),
(1175,1071,o),
(1184,1144,cs),
(1195,1232,o),
(1211,1345,o),
(1214,1379,cs),
(1220,1441,o),
(1238,1464,o),
(1263,1464,cs),
(1302,1464,o),
(1305,1442,o),
(1305,1352,cs),
(1305,1295,o),
(1281,1150,o),
(1275,1086,cs),
(1272,1054,o),
(1244,937,o),
(1244,899,cs),
(1244,872,o),
(1263,842,o),
(1297,842,cs),
(1335,842,o),
(1354,864,o),
(1380,940,cs),
(1395,985,o),
(1434,1075,o),
(1452,1131,cs),
(1470,1186,o),
(1485,1208,o),
(1506,1208,cs),
(1523,1208,o),
(1532,1194,o),
(1532,1162,cs),
(1532,1123,o),
(1491,1009,o),
(1457,912,cs),
(1448,887,o),
(1424,830,o),
(1424,783,cs),
(1424,655,ls),
(1424,483,o),
(1421,389,o),
(1348,301,cs),
(1318,265,o),
(1293,227,o),
(1293,155,cs),
(1293,77,l),
(1235,38,o),
(1144,18,o),
(1010,18,cs)
);
}
);
userData = {
assembly = "NPUSHB[ ]	/* 62 values pushed */
100 23 31 40 88 89 100 6 75 7 0 4 10 12 14 49 50 52 53 54 58 59 60 64 65 66 68 69 78 109 111 112 114 119 120 25 117 62 75 124 43 85 124 34 79 117 124 7 103 124 20 94 124 27 62 124 7 43 20 34 4 27
PUSHW[ ]	/* 1 value pushed */
563
NPUSHB[ ]	/* 42 values pushed */
56 0 50 49 72 37 40 52 66 78 4 82 54 88 64 31 12 14 109 111 112 5 58 106 114 119 120 3 4 10 106 116 17 100 60 116 58 79 64 116 54 98
PUSHW[ ]	/* 1 value pushed */
399
PUSHB[ ]	/* 3 values pushed */
23 116 99
PUSHW[ ]	/* 1 value pushed */
562
NPUSHB[ ]	/* 23 values pushed */
89 116 91 116 31 69 68 82 116 37 72 116 46 17 58 24 31 54 37 6 46 140 4
MDAP[1]	/* MoveDirectAbsPt */
MIRP[01101]	/* MoveIndirectRelPt */
SLOOP[ ]	/* SetLoopVariable */
IP[ ]	/* InterpolatePts */
SRP0[ ]	/* SetRefPoint0 */
MIRP[01101]	/* MoveIndirectRelPt */
MDAP[1]	/* MoveDirectAbsPt */
MIRP[01101]	/* MoveIndirectRelPt */
IP[ ]	/* InterpolatePts */
IP[ ]	/* InterpolatePts */
MDAP[1]	/* MoveDirectAbsPt */
MIRP[01101]	/* MoveIndirectRelPt */
MIRP[11101]	/* MoveIndirectRelPt */
MIRP[10110]	/* MoveIndirectRelPt */
MIRP[11101]	/* MoveIndirectRelPt */
MIRP[00101]	/* MoveIndirectRelPt */
MDAP[1]	/* MoveDirectAbsPt */
MIRP[01101]	/* MoveIndirectRelPt */
IP[ ]	/* InterpolatePts */
MDAP[1]	/* MoveDirectAbsPt */
MIRP[01101]	/* MoveIndirectRelPt */
IP[ ]	/* InterpolatePts */
MDAP[1]	/* MoveDirectAbsPt */
MIRP[01101]	/* MoveIndirectRelPt */
IP[ ]	/* InterpolatePts */
SRP2[ ]	/* SetRefPoint2 */
SLOOP[ ]	/* SetLoopVariable */
IP[ ]	/* InterpolatePts */
SRP1[ ]	/* SetRefPoint1 */
SRP2[ ]	/* SetRefPoint2 */
SLOOP[ ]	/* SetLoopVariable */
IP[ ]	/* InterpolatePts */
SRP1[ ]	/* SetRefPoint1 */
SRP2[ ]	/* SetRefPoint2 */
IP[ ]	/* InterpolatePts */
SRP1[ ]	/* SetRefPoint1 */
SRP2[ ]	/* SetRefPoint2 */
SLOOP[ ]	/* SetLoopVariable */
IP[ ]	/* InterpolatePts */
SRP1[ ]	/* SetRefPoint1 */
SRP2[ ]	/* SetRefPoint2 */
IP[ ]	/* InterpolatePts */
IP[ ]	/* InterpolatePts */
SVTCA[0]	/* SetFreedomAndProjectionVectorToAxis */
MIAP[1]	/* MoveIndirectAbsPt */
MIRP[01101]	/* MoveIndirectRelPt */
SLOOP[ ]	/* SetLoopVariable */
IP[ ]	/* InterpolatePts */
MIRP[01101]	/* MoveIndirectRelPt */
SRP0[ ]	/* SetRefPoint0 */
MIRP[01101]	/* MoveIndirectRelPt */
MDAP[1]	/* MoveDirectAbsPt */
MIRP[01101]	/* MoveIndirectRelPt */
MDAP[1]	/* MoveDirectAbsPt */
MIRP[01101]	/* MoveIndirectRelPt */
IP[ ]	/* InterpolatePts */
MDAP[1]	/* MoveDirectAbsPt */
MIRP[01101]	/* MoveIndirectRelPt */
MDAP[1]	/* MoveDirectAbsPt */
MIRP[01101]	/* MoveIndirectRelPt */
SRP1[ ]	/* SetRefPoint1 */
SRP2[ ]	/* SetRefPoint2 */
SLOOP[ ]	/* SetLoopVariable */
IP[ ]	/* InterpolatePts */
SRP1[ ]	/* SetRefPoint1 */
SRP2[ ]	/* SetRefPoint2 */
SLOOP[ ]	/* SetLoopVariable */
IP[ ]	/* InterpolatePts */
MDAP[1]	/* MoveDirectAbsPt */
IUP[1]	/* InterpolateUntPts */
IUP[0]	/* InterpolateUntPts */";
};
width = 1826;
}
);
note = handspreadback;
unicode = 78;
}
{
color = 5;
glyphname = xmark;
layers = (
{
layerId = m01;
shapes = (
{
closed = 1;
nodes = (
(424,299,o),
(573,463,o),
(711,653,cs),
(841,832,o),
(992,979,o),
(1155,1050,c),
(1124,1109,o),
(1063,1195,o),
(980,1195,cs),
(841,1195,o),
(654,956,o),
(566,835,cs),
(415,625,o),
(274,507,o),
(168,507,cs),
(156,507,o),
(146,507,o),
(130,509,c),
(146,428,o),
(233,299,o),
(324,299,cs)
);
},
{
closed = 1;
nodes = (
(1006,337,o),
(1089,410,o),
(1107,494,c),
(1008,494,o),
(931,552,o),
(768,778,cs),
(621,981,o),
(556,1133,o),
(556,1244,c),
(471,1244,o),
(367,1154,o),
(367,1080,cs),
(367,1015,o),
(448,847,o),
(593,645,cs),
(723,464,o),
(835,337,o),
(933,337,cs)
);
}
);
userData = {
assembly = "NPUSHB[ ]	/* 14 values pushed */
0 10 18 25 28 33 6 21 5 7 31 208 36 21
PUSHW[ ]	/* 6 values pushed */
566 7 281 36 15 565
NPUSHB[ ]	/* 11 values pushed */
3 13 0 10 13 15 18 25 28 7 33
PUSHW[ ]	/* 2 values pushed */
564 5
MDAP[1]	/* MoveDirectAbsPt */
MIRP[00110]	/* MoveIndirectRelPt */
SLOOP[ ]	/* SetLoopVariable */
IP[ ]	/* InterpolatePts */
MDAP[1]	/* MoveDirectAbsPt */
SVTCA[0]	/* SetFreedomAndProjectionVectorToAxis */
MDAP[1]	/* MoveDirectAbsPt */
MIRP[01101]	/* MoveIndirectRelPt */
IP[ ]	/* InterpolatePts */
MIRP[01101]	/* MoveIndirectRelPt */
MIRP[01101]	/* MoveIndirectRelPt */
MDAP[1]	/* MoveDirectAbsPt */
MIRP[01101]	/* MoveIndirectRelPt */
SRP1[ ]	/* SetRefPoint1 */
IP[ ]	/* InterpolatePts */
SRP1[ ]	/* SetRefPoint1 */
SLOOP[ ]	/* SetLoopVariable */
IP[ ]	/* InterpolatePts */
IUP[1]	/* InterpolateUntPts */
IUP[0]	/* InterpolateUntPts */";
};
width = 1321;
}
);
note = xmark;
unicode = 79;
}
{
color = 5;
glyphname = check;
layers = (
{
layerId = m01;
shapes = (
{
closed = 1;
nodes = (
(638,300,o),
(667,305,o),
(682,313,c),
(865,716,o),
(1203,1225,o),
(1496,1542,c),
(1467,1570,l),
(1162,1359,o),
(775,849,o),
(610,511,c),
(530,667,o),
(421,824,o),
(340,889,c),
(266,884,o),
(175,824,o),
(152,765,c),
(262,682,o),
(365,565,o),
(542,306,c),
(553,302,o),
(573,300,o),
(597,300,cs)
);
}
);
userData = {
assembly = "PUSHB[ ]	/* 8 values pushed */
15 1 4 13 15 18 5 0
PUSHW[ ]	/* 1 value pushed */
502
PUSHB[ ]	/* 7 values pushed */
7 0 4 7 18 4 1
PUSHW[ ]	/* 2 values pushed */
504 13
MDAP[1]	/* MoveDirectAbsPt */
MIRP[01101]	/* MoveIndirectRelPt */
SLOOP[ ]	/* SetLoopVariable */
IP[ ]	/* InterpolatePts */
SVTCA[0]	/* SetFreedomAndProjectionVectorToAxis */
MDAP[1]	/* MoveDirectAbsPt */
MIRP[01101]	/* MoveIndirectRelPt */
SLOOP[ ]	/* SetLoopVariable */
IP[ ]	/* InterpolatePts */
MDAP[1]	/* MoveDirectAbsPt */
IUP[1]	/* InterpolateUntPts */
IUP[0]	/* InterpolateUntPts */";
};
width = 1568;
}
);
note = check;
unicode = 80;
}
{
color = 5;
glyphname = boxxmark;
layers = (
{
layerId = m01;
shapes = (
{
closed = 1;
nodes = (
(1653,0,l),
(1653,1480,l),
(173,1480,l),
(173,0,l)
);
},
{
closed = 1;
nodes = (
(683,286,o),
(763,375,o),
(936,624,cs),
(1029,757,o),
(1179,943,o),
(1373,1033,c),
(1344,1083,o),
(1282,1136,o),
(1231,1136,cs),
(1146,1136,o),
(996,963,o),
(858,757,cs),
(722,554,o),
(632,457,o),
(510,457,cs),
(485,457,o),
(469,461,o),
(446,465,c),
(459,395,o),
(518,286,o),
(605,286,cs)
);
},
{
closed = 1;
nodes = (
(296,1356,l),
(1529,1356,l),
(1529,124,l),
(296,124,l)
);
},
{
closed = 1;
nodes = (
(1245,358,o),
(1311,430,o),
(1333,488,c),
(1237,488,o),
(1132,556,o),
(998,737,cs),
(850,937,o),
(790,1095,o),
(782,1192,c),
(710,1192,o),
(638,1112,o),
(638,1054,cs),
(638,994,o),
(722,817,o),
(876,626,cs),
(994,482,o),
(1117,358,o),
(1187,358,cs)
);
}
);
userData = {
assembly = "NPUSHB[ ]	/* 21 values pushed */
8 18 23 26 33 36 41 7 3 13 15 39 208 44 3 200 5 0 200 4 15
PUSHW[ ]	/* 4 values pushed */
281 11 5 321
PUSHB[ ]	/* 3 values pushed */
29 44 29
PUSHW[ ]	/* 3 values pushed */
566 11 321
NPUSHB[ ]	/* 22 values pushed */
4 0 21 8 13 18 21 23 26 33 36 41 9 1 0 127 4 1 127 7 140 4
MDAP[1]	/* MoveDirectAbsPt */
MIRP[11101]	/* MoveIndirectRelPt */
MIRP[01101]	/* MoveIndirectRelPt */
SRP0[ ]	/* SetRefPoint0 */
MIRP[11101]	/* MoveIndirectRelPt */
SRP1[ ]	/* SetRefPoint1 */
SLOOP[ ]	/* SetLoopVariable */
IP[ ]	/* InterpolatePts */
MDAP[1]	/* MoveDirectAbsPt */
SVTCA[0]	/* SetFreedomAndProjectionVectorToAxis */
MIAP[1]	/* MoveIndirectAbsPt */
MIRP[10100]	/* MoveIndirectRelPt */
MIRP[01101]	/* MoveIndirectRelPt */
IP[ ]	/* InterpolatePts */
SRP0[ ]	/* SetRefPoint0 */
MIRP[00100]	/* MoveIndirectRelPt */
SRP0[ ]	/* SetRefPoint0 */
MIRP[01101]	/* MoveIndirectRelPt */
SRP0[ ]	/* SetRefPoint0 */
MIRP[01101]	/* MoveIndirectRelPt */
SRP0[ ]	/* SetRefPoint0 */
MIRP[01101]	/* MoveIndirectRelPt */
MDAP[1]	/* MoveDirectAbsPt */
MIRP[01101]	/* MoveIndirectRelPt */
SRP1[ ]	/* SetRefPoint1 */
IP[ ]	/* InterpolatePts */
SRP1[ ]	/* SetRefPoint1 */
SLOOP[ ]	/* SetLoopVariable */
IP[ ]	/* InterpolatePts */
IUP[1]	/* InterpolateUntPts */
IUP[0]	/* InterpolateUntPts */";
};
width = 1826;
}
);
note = boxxmark;
unicode = 81;
}
{
color = 5;
glyphname = boxcheck;
layers = (
{
layerId = m01;
shapes = (
{
closed = 1;
nodes = (
(1651,0,l),
(1651,1478,l),
(173,1478,l),
(173,0,l)
);
},
{
closed = 1;
nodes = (
(297,1355,l),
(1529,1355,l),
(1529,124,l),
(297,124,l)
);
},
{
closed = 1;
nodes = (
(845,352,l),
(851,352,l),
(862,347,l),
(868,343,l),
(893,362,o),
(913,382,o),
(930,403,cs),
(946,424,o),
(979,477,o),
(1029,562,cs),
(1144,757,ls),
(1206,862,o),
(1527,1304,o),
(1614,1400,cs),
(1703,1497,ls),
(1777,1579,o),
(1827,1635,o),
(1847,1662,cs),
(1868,1689,o),
(1882,1708,o),
(1882,1723,cs),
(1882,1733,o),
(1876,1747,o),
(1866,1747,cs),
(1855,1747,o),
(1843,1741,o),
(1825,1727,c),
(1839,1760,l),
(1775,1723,l),
(1779,1750,l),
(1775,1739,o),
(1746,1708,o),
(1738,1708,cs),
(1732,1708,o),
(1730,1712,o),
(1730,1723,cs),
(1730,1731,l),
(1678,1704,l),
(1672,1704,o),
(1670,1706,o),
(1670,1712,cs),
(1670,1717,o),
(1672,1731,o),
(1678,1750,c),
(1651,1721,o),
(1612,1690,o),
(1566,1656,cs),
(1502,1608,o),
(1244,1292,o),
(1146,1125,cs),
(1095,1038,o),
(1064,993,o),
(1058,976,cs),
(1051,960,o),
(1043,950,o),
(1037,950,cs),
(1033,950,o),
(1031,958,o),
(1029,974,c),
(996,897,o),
(965,835,o),
(934,788,cs),
(903,740,o),
(878,715,o),
(858,715,cs),
(834,715,o),
(809,763,o),
(791,858,cs),
(782,899,o),
(762,926,o),
(731,939,c),
(727,941,l),
(718,941,o),
(712,939,o),
(704,932,cs),
(694,922,o),
(687,922,o),
(685,922,cs),
(681,922,l),
(648,934,l),
(619,889,l),
(613,882,o),
(607,880,o),
(601,880,cs),
(593,880,o),
(586,882,o),
(580,889,c),
(572,862,o),
(564,849,o),
(558,849,cs),
(551,849,o),
(541,854,o),
(525,862,c),
(539,763,o),
(549,697,o),
(560,666,cs),
(580,604,o),
(636,444,o),
(694,349,c),
(700,335,l),
(720,345,o),
(725,349,o),
(737,349,c),
(753,345,l),
(764,343,o),
(768,339,o),
(768,329,c),
(811,349,l),
(817,349,o),
(819,341,o),
(819,325,c)
);
}
);
userData = {
assembly = "NPUSHB[ ]	/* 43 values pushed */
11 30 29 26 0 3 9 11 14 20 6 17 18 200 25 23 17 200 26 123 29 194 25 0 29 30 24 0 3 9 14 16 5 19 18 127 25 27 19 127 24 140 30
PUSHW[ ]	/* 2 values pushed */
392 25
MDAP[1]	/* MoveDirectAbsPt */
MIRP[01101]	/* MoveIndirectRelPt */
MIRP[11101]	/* MoveIndirectRelPt */
MIRP[01101]	/* MoveIndirectRelPt */
IP[ ]	/* InterpolatePts */
SRP0[ ]	/* SetRefPoint0 */
MIRP[11101]	/* MoveIndirectRelPt */
SRP1[ ]	/* SetRefPoint1 */
SLOOP[ ]	/* SetLoopVariable */
IP[ ]	/* InterpolatePts */
SRP1[ ]	/* SetRefPoint1 */
SRP2[ ]	/* SetRefPoint2 */
IP[ ]	/* InterpolatePts */
SVTCA[0]	/* SetFreedomAndProjectionVectorToAxis */
MIAP[1]	/* MoveIndirectAbsPt */
MIRP[01101]	/* MoveIndirectRelPt */
MIRP[11101]	/* MoveIndirectRelPt */
MIRP[01101]	/* MoveIndirectRelPt */
IP[ ]	/* InterpolatePts */
SRP0[ ]	/* SetRefPoint0 */
MIRP[11101]	/* MoveIndirectRelPt */
SRP1[ ]	/* SetRefPoint1 */
SLOOP[ ]	/* SetLoopVariable */
IP[ ]	/* InterpolatePts */
SRP1[ ]	/* SetRefPoint1 */
SRP2[ ]	/* SetRefPoint2 */
IP[ ]	/* InterpolatePts */
MDAP[1]	/* MoveDirectAbsPt */
IUP[1]	/* InterpolateUntPts */
IUP[0]	/* InterpolateUntPts */";
};
width = 1826;
}
);
note = boxcheck;
unicode = 82;
}
{
color = 5;
glyphname = boxx;
layers = (
{
layerId = m01;
shapes = (
{
closed = 1;
nodes = (
(1653,0,l),
(1653,1480,l),
(173,1480,l),
(173,0,l)
);
},
{
closed = 1;
nodes = (
(296,1356,l),
(1529,1356,l),
(1529,124,l),
(296,124,l)
);
},
{
closed = 1;
nodes = (
(1360,375,l),
(995,740,l),
(1360,1105,l),
(1278,1188,l),
(913,823,l),
(547,1188,l),
(465,1105,l),
(830,740,l),
(465,375,l),
(547,292,l),
(913,658,l),
(1278,292,l)
);
}
);
userData = {
assembly = "NPUSHB[ ]	/* 45 values pushed */
8 9 10 11 12 13 14 15 16 17 18 19 12 0 3 200 5 0 200 5 123 4 0 8 9 10 11 12 13 14 15 16 17 18 19 12 1 0 127 4 1 127 7 140 4
MDAP[1]	/* MoveDirectAbsPt */
MIRP[11101]	/* MoveIndirectRelPt */
MIRP[01101]	/* MoveIndirectRelPt */
SRP0[ ]	/* SetRefPoint0 */
MIRP[11101]	/* MoveIndirectRelPt */
SRP1[ ]	/* SetRefPoint1 */
SLOOP[ ]	/* SetLoopVariable */
IP[ ]	/* InterpolatePts */
SVTCA[0]	/* SetFreedomAndProjectionVectorToAxis */
MIAP[1]	/* MoveIndirectAbsPt */
MIRP[01101]	/* MoveIndirectRelPt */
MIRP[01101]	/* MoveIndirectRelPt */
SRP0[ ]	/* SetRefPoint0 */
MIRP[01101]	/* MoveIndirectRelPt */
SRP1[ ]	/* SetRefPoint1 */
SLOOP[ ]	/* SetLoopVariable */
IP[ ]	/* InterpolatePts */
IUP[1]	/* InterpolateUntPts */
IUP[0]	/* InterpolateUntPts */";
};
width = 1826;
}
);
note = boxx;
unicode = 83;
}
{
color = 5;
glyphname = boxxbld;
layers = (
{
layerId = m01;
shapes = (
{
closed = 1;
nodes = (
(1653,0,l),
(1653,1480,l),
(173,1480,l),
(173,0,l),
(173,0,l)
);
},
{
closed = 1;
nodes = (
(296,1356,l),
(1529,1356,l),
(1529,124,l),
(296,124,l),
(296,124,l)
);
},
{
closed = 1;
nodes = (
(1388,352,l),
(1000,740,l),
(1388,1128,l),
(1301,1216,l),
(913,828,l),
(524,1216,l),
(437,1128,l),
(825,740,l),
(437,352,l),
(524,264,l),
(913,652,l),
(1301,264,l),
(1301,264,l)
);
}
);
userData = {
assembly = "NPUSHB[ ]	/* 45 values pushed */
8 9 10 11 12 13 14 15 16 17 18 19 12 0 3 208 5 0 208 5 123 4 0 8 9 10 11 12 13 14 15 16 17 18 19 12 1 0 168 4 1 168 7 140 4
MDAP[1]	/* MoveDirectAbsPt */
MIRP[11101]	/* MoveIndirectRelPt */
MIRP[01101]	/* MoveIndirectRelPt */
SRP0[ ]	/* SetRefPoint0 */
MIRP[11101]	/* MoveIndirectRelPt */
SRP1[ ]	/* SetRefPoint1 */
SLOOP[ ]	/* SetLoopVariable */
IP[ ]	/* InterpolatePts */
SVTCA[0]	/* SetFreedomAndProjectionVectorToAxis */
MIAP[1]	/* MoveIndirectAbsPt */
MIRP[01101]	/* MoveIndirectRelPt */
MIRP[01101]	/* MoveIndirectRelPt */
SRP0[ ]	/* SetRefPoint0 */
MIRP[01101]	/* MoveIndirectRelPt */
SRP1[ ]	/* SetRefPoint1 */
SLOOP[ ]	/* SetLoopVariable */
IP[ ]	/* InterpolatePts */
IUP[1]	/* InterpolateUntPts */
IUP[0]	/* InterpolateUntPts */";
};
width = 1826;
}
);
note = boxxbld;
unicode = 84;
}
{
color = 5;
glyphname = circlex;
layers = (
{
layerId = m01;
shapes = (
{
closed = 1;
nodes = (
(1320,0,o),
(1652,332,o),
(1652,741,cs),
(1652,1148,o),
(1320,1480,o),
(912,1480,cs),
(503,1480,o),
(172,1148,o),
(172,741,cs),
(172,332,o),
(503,0,o),
(912,0,cs)
);
},
{
closed = 1;
nodes = (
(562,111,o),
(283,391,o),
(283,741,cs),
(283,1089,o),
(562,1369,o),
(912,1369,cs),
(1261,1369,o),
(1540,1089,o),
(1540,741,cs),
(1540,391,o),
(1261,111,o),
(912,111,cs)
);
},
{
closed = 1;
nodes = (
(912,666,l),
(1240,337,l),
(1314,411,l),
(985,740,l),
(1314,1069,l),
(1240,1143,l),
(912,814,l),
(583,1143,l),
(509,1069,l),
(838,740,l),
(509,411,l),
(583,337,l),
(583,337,l)
);
}
);
userData = {
assembly = "NPUSHB[ ]	/* 45 values pushed */
24 25 26 27 28 29 30 31 32 33 34 35 12 12 18 200 6 12 200 6 123 0 0 24 25 26 27 28 29 30 31 32 33 34 35 12 15 21 127 3 15 127 9 140 3
MDAP[1]	/* MoveDirectAbsPt */
MIRP[11101]	/* MoveIndirectRelPt */
MIRP[01101]	/* MoveIndirectRelPt */
SRP0[ ]	/* SetRefPoint0 */
MIRP[11101]	/* MoveIndirectRelPt */
SRP1[ ]	/* SetRefPoint1 */
SLOOP[ ]	/* SetLoopVariable */
IP[ ]	/* InterpolatePts */
SVTCA[0]	/* SetFreedomAndProjectionVectorToAxis */
MIAP[1]	/* MoveIndirectAbsPt */
MIRP[01101]	/* MoveIndirectRelPt */
MIRP[01101]	/* MoveIndirectRelPt */
SRP0[ ]	/* SetRefPoint0 */
MIRP[01101]	/* MoveIndirectRelPt */
SRP1[ ]	/* SetRefPoint1 */
SLOOP[ ]	/* SetLoopVariable */
IP[ ]	/* InterpolatePts */
IUP[1]	/* InterpolateUntPts */
IUP[0]	/* InterpolateUntPts */";
};
width = 1825;
}
);
note = circlex;
unicode = 85;
}
{
color = 5;
glyphname = circlexbld;
layers = (
{
layerId = m01;
shapes = (
{
closed = 1;
nodes = (
(1321,0,o),
(1653,332,o),
(1653,741,cs),
(1653,1148,o),
(1321,1480,o),
(913,1480,cs),
(504,1480,o),
(173,1148,o),
(173,741,cs),
(173,332,o),
(504,0,o),
(913,0,cs)
);
},
{
closed = 1;
nodes = (
(563,111,o),
(284,390,o),
(284,741,cs),
(284,1090,o),
(563,1369,o),
(913,1369,cs),
(1262,1369,o),
(1541,1090,o),
(1541,741,cs),
(1541,390,o),
(1262,111,o),
(913,111,cs)
);
},
{
closed = 1;
nodes = (
(913,625,l),
(1221,316,l),
(1336,431,l),
(1027,740,l),
(1336,1049,l),
(1221,1164,l),
(913,855,l),
(604,1164,l),
(489,1049,l),
(798,740,l),
(489,431,l),
(604,316,l),
(604,316,l)
);
}
);
userData = {
assembly = "NPUSHB[ ]	/* 45 values pushed */
24 25 26 27 28 29 30 31 32 33 34 35 12 12 18 208 6 12 208 6 123 0 0 24 25 26 27 28 29 30 31 32 33 34 35 12 15 21 168 3 15 168 9 140 3
MDAP[1]	/* MoveDirectAbsPt */
MIRP[11101]	/* MoveIndirectRelPt */
MIRP[01101]	/* MoveIndirectRelPt */
SRP0[ ]	/* SetRefPoint0 */
MIRP[11101]	/* MoveIndirectRelPt */
SRP1[ ]	/* SetRefPoint1 */
SLOOP[ ]	/* SetLoopVariable */
IP[ ]	/* InterpolatePts */
SVTCA[0]	/* SetFreedomAndProjectionVectorToAxis */
MIAP[1]	/* MoveIndirectAbsPt */
MIRP[01101]	/* MoveIndirectRelPt */
MIRP[01101]	/* MoveIndirectRelPt */
SRP0[ ]	/* SetRefPoint0 */
MIRP[01101]	/* MoveIndirectRelPt */
SRP1[ ]	/* SetRefPoint1 */
SLOOP[ ]	/* SetLoopVariable */
IP[ ]	/* InterpolatePts */
IUP[1]	/* InterpolateUntPts */
IUP[0]	/* InterpolateUntPts */";
};
width = 1825;
}
);
note = circlexbld;
unicode = 86;
}
{
color = 5;
glyphname = prohibit;
layers = (
{
layerId = m01;
shapes = (
{
closed = 1;
nodes = (
(1321,0,o),
(1653,332,o),
(1653,740,cs),
(1653,1148,o),
(1321,1480,o),
(913,1480,cs),
(505,1480,o),
(173,1148,o),
(173,740,cs),
(173,332,o),
(505,0,o),
(913,0,cs)
);
},
{
closed = 1;
nodes = (
(581,139,o),
(312,408,o),
(312,740,cs),
(312,880,o),
(360,1011,o),
(442,1112,c),
(1285,269,l),
(1184,187,o),
(1053,139,o),
(913,139,cs)
);
},
{
closed = 1;
nodes = (
(541,1211,l),
(642,1293,o),
(773,1341,o),
(913,1341,cs),
(1245,1341,o),
(1514,1072,o),
(1514,740,cs),
(1514,600,o),
(1466,469,o),
(1384,368,c)
);
}
);
userData = {
assembly = "NPUSHB[ ]	/* 29 values pushed */
12 13 20 27 4 18 25 200 3 18 200 3 123 9 0 12 13 20 27 4 22 15 127 0 22 127 6 140 0
MDAP[1]	/* MoveDirectAbsPt */
MIRP[11101]	/* MoveIndirectRelPt */
MIRP[01101]	/* MoveIndirectRelPt */
SRP0[ ]	/* SetRefPoint0 */
MIRP[11101]	/* MoveIndirectRelPt */
SRP1[ ]	/* SetRefPoint1 */
SLOOP[ ]	/* SetLoopVariable */
IP[ ]	/* InterpolatePts */
SVTCA[0]	/* SetFreedomAndProjectionVectorToAxis */
MIAP[1]	/* MoveIndirectAbsPt */
MIRP[01101]	/* MoveIndirectRelPt */
MIRP[01101]	/* MoveIndirectRelPt */
SRP0[ ]	/* SetRefPoint0 */
MIRP[01101]	/* MoveIndirectRelPt */
SRP1[ ]	/* SetRefPoint1 */
SLOOP[ ]	/* SetLoopVariable */
IP[ ]	/* InterpolatePts */
IUP[1]	/* InterpolateUntPts */
IUP[0]	/* InterpolateUntPts */";
};
width = 1826;
}
);
note = prohibit;
unicode = 87;
}
{
color = 5;
glyphname = ampersanditaldm;
layers = (
{
layerId = m01;
shapes = (
{
closed = 1;
nodes = (
(848,-19,o),
(1079,104,o),
(1249,346,c),
(1297,468,l),
(1157,320,o),
(1011,203,o),
(816,203,cs),
(566,203,o),
(385,406,o),
(385,651,cs),
(385,923,o),
(518,1038,o),
(665,1038,cs),
(729,1038,o),
(788,947,o),
(788,841,cs),
(788,725,o),
(747,580,o),
(418,466,c),
(422,381,l),
(881,522,o),
(1013,787,o),
(1013,957,cs),
(1013,1073,o),
(926,1199,o),
(801,1199,cs),
(618,1199,o),
(164,949,o),
(164,503,cs),
(164,118,o),
(442,-19,o),
(659,-19,cs)
);
},
{
closed = 1;
nodes = (
(1050,-383,o),
(1056,-381,o),
(1065,-377,cs),
(1126,-346,o),
(1187,-304,o),
(1251,-250,cs),
(1274,-232,o),
(1291,-209,o),
(1299,-180,cs),
(1566,737,l),
(1375,837,l),
(1046,-311,ls),
(1038,-342,o),
(1029,-352,o),
(1029,-369,cs),
(1029,-377,o),
(1035,-383,o),
(1046,-383,cs)
);
},
{
closed = 1;
nodes = (
(2047,564,o),
(2273,882,o),
(2273,1026,cs),
(2273,1147,o),
(2168,1259,o),
(2125,1259,cs),
(2076,1259,o),
(1945,1114,o),
(1945,1067,cs),
(1945,1055,o),
(2106,1026,o),
(2106,882,cs),
(2106,810,o),
(2018,768,o),
(1904,768,cs),
(1655,768,o),
(1492,1101,o),
(1243,1101,cs),
(1058,1101,o),
(958,961,o),
(912,923,c),
(912,874,l),
(949,891,o),
(972,910,o),
(1071,910,cs),
(1268,910,o),
(1501,564,o),
(1760,564,cs)
);
}
);
userData = {
assembly = "NPUSHB[ ]	/* 19 values pushed */
26 10 16 13 42 21 34 45 51 3 48 32 1 54 59 35 4 0 42
PUSHW[ ]	/* 8 values pushed */
281 10 48 301 16 560 32 301
NPUSHB[ ]	/* 14 values pushed */
21 59 208 4 0 36 200 54 4 54 21 10 4 27
PUSHW[ ]	/* 1 value pushed */
568
NPUSHB[ ]	/* 22 values pushed */
0 39 0 1 13 26 34 35 36 39 45 51 54 11 24 56 156 7 27 24 245 29
PUSHW[ ]	/* 2 values pushed */
567 7
MDAP[1]	/* MoveDirectAbsPt */
MIRP[11101]	/* MoveIndirectRelPt */
MIRP[01101]	/* MoveIndirectRelPt */
IP[ ]	/* InterpolatePts */
SRP0[ ]	/* SetRefPoint0 */
MIRP[11101]	/* MoveIndirectRelPt */
SRP1[ ]	/* SetRefPoint1 */
SLOOP[ ]	/* SetLoopVariable */
IP[ ]	/* InterpolatePts */
MDAP[1]	/* MoveDirectAbsPt */
SVTCA[0]	/* SetFreedomAndProjectionVectorToAxis */
MDAP[1]	/* MoveDirectAbsPt */
MIRP[01101]	/* MoveIndirectRelPt */
SLOOP[ ]	/* SetLoopVariable */
IP[ ]	/* InterpolatePts */
MDAP[1]	/* MoveDirectAbsPt */
MIRP[01101]	/* MoveIndirectRelPt */
MIAP[1]	/* MoveIndirectAbsPt */
MIRP[01101]	/* MoveIndirectRelPt */
MDAP[1]	/* MoveDirectAbsPt */
MIRP[01101]	/* MoveIndirectRelPt */
MIRP[10100]	/* MoveIndirectRelPt */
MIRP[01101]	/* MoveIndirectRelPt */
MDAP[1]	/* MoveDirectAbsPt */
MIRP[01101]	/* MoveIndirectRelPt */
SRP1[ ]	/* SetRefPoint1 */
SRP2[ ]	/* SetRefPoint2 */
IP[ ]	/* InterpolatePts */
SRP1[ ]	/* SetRefPoint1 */
SRP2[ ]	/* SetRefPoint2 */
IP[ ]	/* InterpolatePts */
SRP1[ ]	/* SetRefPoint1 */
SRP2[ ]	/* SetRefPoint2 */
SLOOP[ ]	/* SetLoopVariable */
IP[ ]	/* InterpolatePts */
SRP1[ ]	/* SetRefPoint1 */
SRP2[ ]	/* SetRefPoint2 */
IP[ ]	/* InterpolatePts */
SRP1[ ]	/* SetRefPoint1 */
SRP2[ ]	/* SetRefPoint2 */
IP[ ]	/* InterpolatePts */
IUP[1]	/* InterpolateUntPts */
IUP[0]	/* InterpolateUntPts */";
};
width = 2226;
}
);
note = ampersanditaldm;
unicode = 89;
}
{
color = 5;
glyphname = ampersandbld;
layers = (
{
layerId = m01;
shapes = (
{
closed = 1;
nodes = (
(806,-21,o),
(967,56,o),
(1057,146,c),
(1200,0,l),
(1672,0,l),
(1672,127,l),
(1653,127,ls),
(1607,127,o),
(1538,137,o),
(1486,192,cs),
(1269,419,l),
(1307,498,o),
(1336,573,o),
(1355,642,cs),
(1390,769,o),
(1482,769,o),
(1576,769,cs),
(1620,769,l),
(1620,896,l),
(1125,896,l),
(1125,796,ls),
(1125,713,o),
(1117,623,o),
(1107,577,c),
(844,857,l),
(1032,951,o),
(1134,1053,o),
(1134,1213,cs),
(1134,1374,o),
(1004,1509,o),
(715,1509,cs),
(427,1509,o),
(277,1388,o),
(277,1170,cs),
(277,1049,o),
(316,957,o),
(433,825,c),
(250,759,o),
(43,667,o),
(43,417,cs),
(43,125,o),
(254,-21,o),
(602,-21,cs)
);
},
{
closed = 1;
nodes = (
(540,144,o),
(442,250,o),
(442,427,cs),
(442,542,o),
(454,644,o),
(533,713,c),
(952,265,l),
(898,202,o),
(804,144,o),
(694,144,cs)
);
},
{
closed = 1;
nodes = (
(669,1046,o),
(615,1122,o),
(615,1209,cs),
(615,1315,o),
(656,1368,o),
(738,1368,cs),
(809,1368,o),
(856,1311,o),
(856,1211,cs),
(856,1099,o),
(825,1026,o),
(744,963,c)
);
}
);
userData = {
assembly = "NPUSHB[ ]	/* 13 values pushed */
8 18 42 3 47 28 20 36 52 3 24 59 39
PUSHW[ ]	/* 1 value pushed */
396
PUSHB[ ]	/* 3 values pushed */
40 1 40
PUSHW[ ]	/* 1 value pushed */
281
PUSHB[ ]	/* 3 values pushed */
0 0 24
PUSHW[ ]	/* 1 value pushed */
396
PUSHB[ ]	/* 3 values pushed */
30 54 30
NPUSHW[ ]	/* 9 values pushed */
281 27 281 28 59 301 3 47 281
NPUSHB[ ]	/* 22 values pushed */
13 28 0 13 194 3 41 36 22 16 0 1 52 3 27 42 18 44 54 8 56 50
PUSHW[ ]	/* 1 value pushed */
546
PUSHB[ ]	/* 8 values pushed */
10 44 156 16 20 16 116 27
PUSHW[ ]	/* 1 value pushed */
570
PUSHB[ ]	/* 3 values pushed */
22 41 22
PUSHW[ ]	/* 8 values pushed */
333 30 56 328 10 30 569 6
MDAP[1]	/* MoveDirectAbsPt */
MIRP[01101]	/* MoveIndirectRelPt */
IP[ ]	/* InterpolatePts */
MIRP[01101]	/* MoveIndirectRelPt */
SRP0[ ]	/* SetRefPoint0 */
MIRP[01101]	/* MoveIndirectRelPt */
IP[ ]	/* InterpolatePts */
SRP0[ ]	/* SetRefPoint0 */
MIRP[10100]	/* MoveIndirectRelPt */
MIRP[01101]	/* MoveIndirectRelPt */
IP[ ]	/* InterpolatePts */
SRP0[ ]	/* SetRefPoint0 */
MIRP[01101]	/* MoveIndirectRelPt */
MDAP[1]	/* MoveDirectAbsPt */
MIRP[01101]	/* MoveIndirectRelPt */
SRP1[ ]	/* SetRefPoint1 */
IP[ ]	/* InterpolatePts */
IP[ ]	/* InterpolatePts */
SRP1[ ]	/* SetRefPoint1 */
IP[ ]	/* InterpolatePts */
IP[ ]	/* InterpolatePts */
SRP2[ ]	/* SetRefPoint2 */
SLOOP[ ]	/* SetLoopVariable */
IP[ ]	/* InterpolatePts */
SRP1[ ]	/* SetRefPoint1 */
SRP2[ ]	/* SetRefPoint2 */
IP[ ]	/* InterpolatePts */
MDAP[1]	/* MoveDirectAbsPt */
SVTCA[0]	/* SetFreedomAndProjectionVectorToAxis */
MDAP[1]	/* MoveDirectAbsPt */
MIRP[01101]	/* MoveIndirectRelPt */
IP[ ]	/* InterpolatePts */
IP[ ]	/* InterpolatePts */
SRP0[ ]	/* SetRefPoint0 */
MIRP[01101]	/* MoveIndirectRelPt */
SRP0[ ]	/* SetRefPoint0 */
MIRP[01101]	/* MoveIndirectRelPt */
MDAP[1]	/* MoveDirectAbsPt */
MIRP[01101]	/* MoveIndirectRelPt */
MIRP[01101]	/* MoveIndirectRelPt */
IP[ ]	/* InterpolatePts */
SRP0[ ]	/* SetRefPoint0 */
MIRP[00100]	/* MoveIndirectRelPt */
MIAP[1]	/* MoveIndirectAbsPt */
MIRP[01101]	/* MoveIndirectRelPt */
IP[ ]	/* InterpolatePts */
SRP0[ ]	/* SetRefPoint0 */
MIRP[00100]	/* MoveIndirectRelPt */
SRP1[ ]	/* SetRefPoint1 */
SRP2[ ]	/* SetRefPoint2 */
SLOOP[ ]	/* SetLoopVariable */
IP[ ]	/* InterpolatePts */
SRP1[ ]	/* SetRefPoint1 */
SRP2[ ]	/* SetRefPoint2 */
SLOOP[ ]	/* SetLoopVariable */
IP[ ]	/* InterpolatePts */
IUP[1]	/* InterpolateUntPts */
IUP[0]	/* InterpolateUntPts */";
};
width = 1727;
}
);
note = ampersandbld;
unicode = 90;
}
{
color = 5;
glyphname = ampersandsans;
layers = (
{
layerId = m01;
shapes = (
{
closed = 1;
nodes = (
(787,-21,o),
(909,27,o),
(1081,163,c),
(1081,336,l),
(926,193,o),
(788,134,o),
(609,134,cs),
(417,134,o),
(314,226,o),
(314,399,cs),
(314,597,o),
(461,694,o),
(760,694,cs),
(1525,694,l),
(1525,852,l),
(757,852,ls),
(528,852,o),
(392,950,o),
(392,1114,cs),
(392,1269,o),
(514,1364,o),
(713,1364,cs),
(845,1364,o),
(947,1332,o),
(1083,1248,c),
(1181,1374,l),
(1053,1468,o),
(887,1519,o),
(715,1519,cs),
(387,1519,o),
(191,1372,o),
(191,1126,cs),
(191,948,o),
(297,827,o),
(487,789,c),
(487,781,l),
(238,748,o),
(108,615,o),
(108,394,cs),
(108,132,o),
(291,-21,o),
(607,-21,cs)
);
},
{
closed = 1;
nodes = (
(1253,0,l),
(1253,772,l),
(1066,772,l),
(1066,0,l),
(1066,0,l)
);
}
);
userData = {
assembly = "NPUSHB[ ]	/* 40 values pushed */
0 0 19 21 27 1 41 30 10 33 208 27 0 41 208 4 18 21 208 16 27 16 194 4 19 19 10 24 44 0 154 31 24 154 13 38 248 31 13 29
PUSHW[ ]	/* 2 values pushed */
511 7
MDAP[1]	/* MoveDirectAbsPt */
MIRP[01101]	/* MoveIndirectRelPt */
IP[ ]	/* InterpolatePts */
IP[ ]	/* InterpolatePts */
MIRP[01101]	/* MoveIndirectRelPt */
MDAP[1]	/* MoveDirectAbsPt */
MIRP[01101]	/* MoveIndirectRelPt */
MDAP[1]	/* MoveDirectAbsPt */
MIRP[01101]	/* MoveIndirectRelPt */
IP[ ]	/* InterpolatePts */
SRP1[ ]	/* SetRefPoint1 */
IP[ ]	/* InterpolatePts */
IP[ ]	/* InterpolatePts */
MDAP[1]	/* MoveDirectAbsPt */
SVTCA[0]	/* SetFreedomAndProjectionVectorToAxis */
MDAP[1]	/* MoveDirectAbsPt */
MIRP[01101]	/* MoveIndirectRelPt */
IP[ ]	/* InterpolatePts */
SRP0[ ]	/* SetRefPoint0 */
MIRP[01101]	/* MoveIndirectRelPt */
IP[ ]	/* InterpolatePts */
SRP0[ ]	/* SetRefPoint0 */
MIRP[01101]	/* MoveIndirectRelPt */
IP[ ]	/* InterpolatePts */
MDAP[1]	/* MoveDirectAbsPt */
MIRP[01101]	/* MoveIndirectRelPt */
IP[ ]	/* InterpolatePts */
IP[ ]	/* InterpolatePts */
SRP1[ ]	/* SetRefPoint1 */
IP[ ]	/* InterpolatePts */
SRP1[ ]	/* SetRefPoint1 */
SRP2[ ]	/* SetRefPoint2 */
IP[ ]	/* InterpolatePts */
MIAP[1]	/* MoveIndirectAbsPt */
IUP[1]	/* InterpolateUntPts */
IUP[0]	/* InterpolateUntPts */";
};
width = 1548;
}
);
note = ampersandsans;
unicode = 91;
}
{
color = 5;
glyphname = ampersandsandm;
layers = (
{
layerId = m01;
shapes = (
{
closed = 1;
nodes = (
(787,-21,o),
(909,27,o),
(1081,163,c),
(1081,336,l),
(926,193,o),
(788,134,o),
(609,134,cs),
(417,134,o),
(314,226,o),
(314,399,cs),
(314,597,o),
(461,694,o),
(760,694,cs),
(1525,694,l),
(1525,852,l),
(757,852,ls),
(528,852,o),
(392,950,o),
(392,1114,cs),
(392,1269,o),
(514,1364,o),
(713,1364,cs),
(845,1364,o),
(947,1332,o),
(1083,1248,c),
(1181,1374,l),
(1053,1468,o),
(887,1519,o),
(715,1519,cs),
(387,1519,o),
(191,1372,o),
(191,1126,cs),
(191,948,o),
(297,827,o),
(487,789,c),
(487,781,l),
(238,748,o),
(108,615,o),
(108,394,cs),
(108,132,o),
(291,-21,o),
(607,-21,cs)
);
},
{
closed = 1;
nodes = (
(1253,0,l),
(1253,772,l),
(1066,772,l),
(1066,0,l),
(1066,0,l)
);
}
);
userData = {
assembly = "NPUSHB[ ]	/* 10 values pushed */
0 0 19 21 28 1 41 31 10 34
PUSHW[ ]	/* 1 value pushed */
544
PUSHB[ ]	/* 3 values pushed */
28 0 41
PUSHW[ ]	/* 1 value pushed */
301
PUSHB[ ]	/* 3 values pushed */
4 18 21
PUSHW[ ]	/* 1 value pushed */
544
NPUSHB[ ]	/* 14 values pushed */
16 28 16 194 4 44 0 10 24 38 0 156 32 19
PUSHW[ ]	/* 1 value pushed */
571
NPUSHB[ ]	/* 10 values pushed */
24 156 13 38 156 32 13 30 140 7
MDAP[1]	/* MoveDirectAbsPt */
MIRP[01101]	/* MoveIndirectRelPt */
IP[ ]	/* InterpolatePts */
IP[ ]	/* InterpolatePts */
MIRP[01101]	/* MoveIndirectRelPt */
MDAP[1]	/* MoveDirectAbsPt */
MIRP[11101]	/* MoveIndirectRelPt */
MIRP[00110]	/* MoveIndirectRelPt */
MDAP[1]	/* MoveDirectAbsPt */
MIRP[01101]	/* MoveIndirectRelPt */
SRP1[ ]	/* SetRefPoint1 */
SRP2[ ]	/* SetRefPoint2 */
IP[ ]	/* InterpolatePts */
SRP1[ ]	/* SetRefPoint1 */
IP[ ]	/* InterpolatePts */
SVTCA[0]	/* SetFreedomAndProjectionVectorToAxis */
MDAP[1]	/* MoveDirectAbsPt */
MIRP[01101]	/* MoveIndirectRelPt */
IP[ ]	/* InterpolatePts */
SRP0[ ]	/* SetRefPoint0 */
MIRP[01101]	/* MoveIndirectRelPt */
IP[ ]	/* InterpolatePts */
SRP0[ ]	/* SetRefPoint0 */
MIRP[01101]	/* MoveIndirectRelPt */
IP[ ]	/* InterpolatePts */
MDAP[1]	/* MoveDirectAbsPt */
MIRP[01101]	/* MoveIndirectRelPt */
IP[ ]	/* InterpolatePts */
IP[ ]	/* InterpolatePts */
SRP1[ ]	/* SetRefPoint1 */
IP[ ]	/* InterpolatePts */
SRP1[ ]	/* SetRefPoint1 */
SRP2[ ]	/* SetRefPoint2 */
IP[ ]	/* InterpolatePts */
MIAP[1]	/* MoveIndirectAbsPt */
IUP[1]	/* InterpolateUntPts */
IUP[0]	/* InterpolateUntPts */";
};
width = 1579;
}
);
note = ampersandsandm;
unicode = 92;
}
{
color = 5;
glyphname = interrobang;
layers = (
{
layerId = m01;
shapes = (
{
closed = 1;
nodes = (
(485,452,l),
(485,478,ls),
(485,649,o),
(548,712,o),
(643,783,cs),
(814,911,o),
(901,1008,o),
(901,1203,cs),
(901,1443,o),
(734,1579,o),
(461,1579,cs),
(310,1579,o),
(189,1544,o),
(50,1477,c),
(115,1354,l),
(211,1404,o),
(310,1445,o),
(438,1445,cs),
(609,1445,o),
(734,1367,o),
(734,1203,cs),
(734,1088,o),
(708,1021,o),
(544,880,cs),
(470,818,o),
(429,776,o),
(405,690,c),
(455,690,l),
(474,1354,l),
(288,1354,l),
(325,452,l),
(325,452,l)
);
},
{
closed = 1;
nodes = (
(479,-11,o),
(526,32,o),
(526,121,cs),
(526,212,o),
(479,253,o),
(403,253,cs),
(327,253,o),
(280,212,o),
(280,121,cs),
(280,32,o),
(327,-11,o),
(403,-11,cs)
);
}
);
userData = {
assembly = "NPUSHB[ ]	/* 14 values pushed */
4 16 4 7 9 16 17 19 22 34 38 9 20 1
PUSHW[ ]	/* 3 values pushed */
301 20 572
NPUSHB[ ]	/* 19 values pushed */
0 0 22 39 7 33 34 3 3 19 8 4 15 3 154 0 39 154 8
PUSHW[ ]	/* 1 value pushed */
463
NPUSHB[ ]	/* 12 values pushed */
24 15 127 16 127 36 1 36 248 24 0 24
PUSHW[ ]	/* 2 values pushed */
373 16
MDAP[1]	/* MoveDirectAbsPt */
MIRP[01101]	/* MoveIndirectRelPt */
IP[ ]	/* InterpolatePts */
SRP0[ ]	/* SetRefPoint0 */
MIRP[01101]	/* MoveIndirectRelPt */
DELTAP1[ ]	/* DeltaExceptionP1 */
SRP0[ ]	/* SetRefPoint0 */
MIRP[01101]	/* MoveIndirectRelPt */
SRP0[ ]	/* SetRefPoint0 */
MIRP[11101]	/* MoveIndirectRelPt */
MIRP[01101]	/* MoveIndirectRelPt */
MDAP[1]	/* MoveDirectAbsPt */
MIRP[01101]	/* MoveIndirectRelPt */
SRP2[ ]	/* SetRefPoint2 */
IP[ ]	/* InterpolatePts */
SRP2[ ]	/* SetRefPoint2 */
IP[ ]	/* InterpolatePts */
SRP1[ ]	/* SetRefPoint1 */
SLOOP[ ]	/* SetLoopVariable */
IP[ ]	/* InterpolatePts */
SRP2[ ]	/* SetRefPoint2 */
IP[ ]	/* InterpolatePts */
SVTCA[0]	/* SetFreedomAndProjectionVectorToAxis */
MIAP[1]	/* MoveIndirectAbsPt */
MIRP[01101]	/* MoveIndirectRelPt */
MIRP[11101]	/* MoveIndirectRelPt */
SRP1[ ]	/* SetRefPoint1 */
SLOOP[ ]	/* SetLoopVariable */
IP[ ]	/* InterpolatePts */
MDAP[1]	/* MoveDirectAbsPt */
MDAP[1]	/* MoveDirectAbsPt */
IUP[1]	/* InterpolateUntPts */
IUP[0]	/* InterpolateUntPts */";
};
width = 984;
}
);
note = interrobang;
unicode = 93;
}
{
color = 5;
glyphname = interrobangdm;
layers = (
{
layerId = m01;
shapes = (
{
closed = 1;
nodes = (
(491,430,l),
(491,454,ls),
(491,591,o),
(527,661,o),
(641,745,cs),
(849,900,o),
(906,987,o),
(906,1145,cs),
(906,1371,o),
(744,1504,o),
(467,1504,cs),
(332,1504,o),
(217,1476,o),
(76,1407,c),
(78,1170,l),
(173,1170,l),
(198,1319,l),
(283,1358,o),
(361,1376,o),
(445,1376,cs),
(622,1376,o),
(728,1290,o),
(728,1145,cs),
(728,1025,o),
(690,961,o),
(546,838,cs),
(505,803,o),
(482,781,o),
(464,758,c),
(480,1289,l),
(303,1289,l),
(338,430,l),
(338,430,l)
);
},
{
closed = 1;
nodes = (
(488,-11,o),
(529,34,o),
(529,115,cs),
(529,197,o),
(489,240,o),
(413,240,cs),
(336,240,o),
(295,196,o),
(295,115,cs),
(295,35,o),
(338,-11,o),
(413,-11,cs)
);
}
);
userData = {
assembly = "NPUSHB[ ]	/* 14 values pushed */
4 14 4 7 9 14 15 17 20 32 36 9 18 1
PUSHW[ ]	/* 3 values pushed */
306 18 572
NPUSHB[ ]	/* 17 values pushed */
0 0 36 20 31 3 32 7 29 17 8 4 0 13 8 156 20
PUSHW[ ]	/* 1 value pushed */
324
NPUSHB[ ]	/* 37 values pushed */
22 13 168 14 3 156 29 156 0 158 15 34 31 34 63 34 79 34 95 34 111 34 191 34 207 34 8 127 34 159 34 175 34 3 34 156 22
PUSHW[ ]	/* 2 values pushed */
379 14
MDAP[1]	/* MoveDirectAbsPt */
MIRP[11101]	/* MoveIndirectRelPt */
MIRP[01101]	/* MoveIndirectRelPt */
DELTAP1[ ]	/* DeltaExceptionP1 */
DELTAP2[ ]	/* DeltaExceptionP2 */
MIRP[11101]	/* MoveIndirectRelPt */
MIRP[01101]	/* MoveIndirectRelPt */
MIRP[01101]	/* MoveIndirectRelPt */
SRP0[ ]	/* SetRefPoint0 */
MIRP[01101]	/* MoveIndirectRelPt */
SRP0[ ]	/* SetRefPoint0 */
MIRP[10100]	/* MoveIndirectRelPt */
MIRP[01101]	/* MoveIndirectRelPt */
SRP1[ ]	/* SetRefPoint1 */
SRP2[ ]	/* SetRefPoint2 */
IP[ ]	/* InterpolatePts */
SRP1[ ]	/* SetRefPoint1 */
IP[ ]	/* InterpolatePts */
SRP2[ ]	/* SetRefPoint2 */
IP[ ]	/* InterpolatePts */
IP[ ]	/* InterpolatePts */
SRP1[ ]	/* SetRefPoint1 */
IP[ ]	/* InterpolatePts */
SRP2[ ]	/* SetRefPoint2 */
IP[ ]	/* InterpolatePts */
SVTCA[0]	/* SetFreedomAndProjectionVectorToAxis */
MIAP[1]	/* MoveIndirectAbsPt */
MIRP[01101]	/* MoveIndirectRelPt */
MIRP[11101]	/* MoveIndirectRelPt */
SRP1[ ]	/* SetRefPoint1 */
SLOOP[ ]	/* SetLoopVariable */
IP[ ]	/* InterpolatePts */
MDAP[1]	/* MoveDirectAbsPt */
MDAP[1]	/* MoveDirectAbsPt */
IUP[1]	/* InterpolateUntPts */
IUP[0]	/* InterpolateUntPts */";
};
width = 1035;
}
);
note = interrobangdm;
unicode = 94;
}
{
color = 5;
glyphname = interrobangsans;
layers = (
{
layerId = m01;
shapes = (
{
closed = 1;
nodes = (
(441,452,l),
(441,478,ls),
(441,649,o),
(504,712,o),
(599,783,cs),
(770,911,o),
(857,1008,o),
(857,1203,cs),
(857,1443,o),
(690,1579,o),
(417,1579,cs),
(266,1579,o),
(145,1544,o),
(6,1477,c),
(71,1354,l),
(167,1404,o),
(266,1445,o),
(394,1445,cs),
(565,1445,o),
(690,1367,o),
(690,1203,cs),
(690,1088,o),
(664,1021,o),
(500,880,cs),
(426,818,o),
(385,776,o),
(361,690,c),
(411,690,l),
(430,1354,l),
(244,1354,l),
(281,452,l)
);
},
{
closed = 1;
nodes = (
(435,-11,o),
(482,32,o),
(482,121,cs),
(482,212,o),
(435,253,o),
(359,253,cs),
(283,253,o),
(236,212,o),
(236,121,cs),
(236,32,o),
(283,-11,o),
(359,-11,cs)
);
}
);
userData = {
assembly = "NPUSHB[ ]	/* 13 values pushed */
4 4 7 9 11 12 14 17 27 31 9 15 1
PUSHW[ ]	/* 3 values pushed */
301 15 572
NPUSHB[ ]	/* 19 values pushed */
0 0 27 17 26 3 7 4 0 11 32 154 17 154 8 14 8 141 7
PUSHW[ ]	/* 1 value pushed */
463
PUSHB[ ]	/* 4 values pushed */
19 3 154 0
PUSHW[ ]	/* 1 value pushed */
264
PUSHB[ ]	/* 6 values pushed */
127 29 1 29 154 19
PUSHW[ ]	/* 2 values pushed */
480 11
MDAP[1]	/* MoveDirectAbsPt */
MIRP[10100]	/* MoveIndirectRelPt */
MIRP[01101]	/* MoveIndirectRelPt */
DELTAP1[ ]	/* DeltaExceptionP1 */
MIRP[11101]	/* MoveIndirectRelPt */
MIRP[01101]	/* MoveIndirectRelPt */
SRP0[ ]	/* SetRefPoint0 */
MIRP[11101]	/* MoveIndirectRelPt */
MIRP[00100]	/* MoveIndirectRelPt */
IP[ ]	/* InterpolatePts */
SRP0[ ]	/* SetRefPoint0 */
MIRP[01101]	/* MoveIndirectRelPt */
MIRP[01101]	/* MoveIndirectRelPt */
SRP1[ ]	/* SetRefPoint1 */
SRP2[ ]	/* SetRefPoint2 */
IP[ ]	/* InterpolatePts */
SRP1[ ]	/* SetRefPoint1 */
SRP2[ ]	/* SetRefPoint2 */
IP[ ]	/* InterpolatePts */
SRP1[ ]	/* SetRefPoint1 */
IP[ ]	/* InterpolatePts */
SVTCA[0]	/* SetFreedomAndProjectionVectorToAxis */
MIAP[1]	/* MoveIndirectAbsPt */
MIRP[01101]	/* MoveIndirectRelPt */
MIRP[11101]	/* MoveIndirectRelPt */
SRP1[ ]	/* SetRefPoint1 */
SLOOP[ ]	/* SetLoopVariable */
IP[ ]	/* InterpolatePts */
MDAP[1]	/* MoveDirectAbsPt */
IUP[1]	/* InterpolateUntPts */
IUP[0]	/* InterpolateUntPts */";
};
width = 864;
}
);
note = interrobangsans;
unicode = 95;
}
{
color = 5;
glyphname = interrobngsandm;
layers = (
{
layerId = m01;
shapes = (
{
closed = 1;
nodes = (
(588,535,l),
(588,587,ls),
(588,648,o),
(614,680,o),
(732,763,cs),
(883,868,o),
(948,980,o),
(948,1136,cs),
(948,1379,o),
(789,1513,o),
(501,1513,cs),
(332,1513,o),
(179,1465,o),
(41,1370,c),
(154,1163,l),
(253,1237,o),
(354,1273,o),
(465,1273,cs),
(593,1273,o),
(654,1226,o),
(654,1128,cs),
(654,1067,o),
(628,1012,o),
(566,943,cs),
(526,899,o),
(481,845,o),
(439,790,c),
(512,790,l),
(542,1169,l),
(244,1169,l),
(305,535,l),
(305,535,l)
);
},
{
closed = 1;
nodes = (
(578,-12,o),
(648,60,o),
(648,181,cs),
(648,305,o),
(580,375,o),
(460,375,cs),
(337,375,o),
(268,305,o),
(268,181,cs),
(268,60,o),
(340,-12,o),
(460,-12,cs)
);
}
);
userData = {
assembly = "NPUSHB[ ]	/* 13 values pushed */
4 4 7 8 10 11 13 16 26 30 9 14 1
PUSHW[ ]	/* 3 values pushed */
306 14 572
NPUSHB[ ]	/* 55 values pushed */
0 0 25 3 7 26 30 3 16 4 0 16 156 13 8 13 146 10 3 156 0 158 15 28 31 28 47 28 63 28 79 28 95 28 127 28 207 28 223 28 239 28 10 127 28 159 28 175 28 191 28 239 28 5 28
PUSHW[ ]	/* 4 values pushed */
546 18 485 10
MDAP[1]	/* MoveDirectAbsPt */
MIRP[10100]	/* MoveIndirectRelPt */
MIRP[01101]	/* MoveIndirectRelPt */
DELTAP1[ ]	/* DeltaExceptionP1 */
DELTAP2[ ]	/* DeltaExceptionP2 */
MIRP[11101]	/* MoveIndirectRelPt */
MIRP[01101]	/* MoveIndirectRelPt */
SRP0[ ]	/* SetRefPoint0 */
MIRP[00100]	/* MoveIndirectRelPt */
IP[ ]	/* InterpolatePts */
SRP0[ ]	/* SetRefPoint0 */
MIRP[01101]	/* MoveIndirectRelPt */
SRP2[ ]	/* SetRefPoint2 */
IP[ ]	/* InterpolatePts */
SRP1[ ]	/* SetRefPoint1 */
SLOOP[ ]	/* SetLoopVariable */
IP[ ]	/* InterpolatePts */
SRP2[ ]	/* SetRefPoint2 */
IP[ ]	/* InterpolatePts */
SVTCA[0]	/* SetFreedomAndProjectionVectorToAxis */
MIAP[1]	/* MoveIndirectAbsPt */
MIRP[01101]	/* MoveIndirectRelPt */
MIRP[11101]	/* MoveIndirectRelPt */
SRP1[ ]	/* SetRefPoint1 */
SLOOP[ ]	/* SetLoopVariable */
IP[ ]	/* InterpolatePts */
MDAP[1]	/* MoveDirectAbsPt */
IUP[1]	/* InterpolateUntPts */
IUP[0]	/* InterpolateUntPts */";
};
width = 1018;
}
);
note = interrobngsandm;
unicode = 96;
}
{
color = 5;
glyphname = budleafboldne;
layers = (
{
layerId = m01;
shapes = (
{
closed = 1;
nodes = (
(1773,-97,o),
(1959,7,o),
(1959,228,cs),
(1959,420,o),
(1813,550,o),
(1603,550,cs),
(1579,550,o),
(1553,548,o),
(1526,543,c),
(1634,621,o),
(1705,629,o),
(1771,711,cs),
(1824,777,o),
(1831,855,o),
(1831,921,cs),
(1831,954,o),
(1829,983,o),
(1829,1009,cs),
(1829,1034,o),
(1831,1056,o),
(1837,1069,cs),
(1868,1131,o),
(1979,1106,o),
(1979,1159,cs),
(1979,1219,o),
(1840,1224,o),
(1776,1224,cs),
(1495,1224,o),
(1330,1087,o),
(1330,822,cs),
(1330,766,o),
(1334,698,o),
(1341,610,c),
(1303,740,o),
(1217,833,o),
(1091,833,cs),
(963,833,o),
(897,733,o),
(897,641,cs),
(897,548,o),
(934,486,o),
(983,440,c),
(1029,468,l),
(1018,495,o),
(1012,526,o),
(1012,550,cs),
(1012,614,o),
(1054,682,o),
(1140,682,cs),
(1228,682,o),
(1296,614,o),
(1296,512,cs),
(1296,424,o),
(1246,351,o),
(1175,292,cs),
(1067,201,o),
(910,148,o),
(771,148,cs),
(515,148,o),
(272,336,o),
(272,676,cs),
(272,788,o),
(325,1036,o),
(619,1062,c),
(616,1111,l),
(210,1111,o),
(51,841,o),
(51,601,cs),
(51,272,o),
(342,42,o),
(718,42,cs),
(945,42,o),
(1120,126,o),
(1232,221,cs),
(1380,347,o),
(1409,479,o),
(1526,479,cs),
(1643,479,o),
(1720,404,o),
(1720,252,cs),
(1720,106,o),
(1621,31,o),
(1500,31,cs),
(1464,31,o),
(1425,38,o),
(1407,47,c),
(1374,-24,l),
(1436,-68,o),
(1513,-97,o),
(1603,-97,cs)
);
},
{
closed = 1;
nodes = (
(1400,610,o),
(1396,671,o),
(1396,773,cs),
(1396,1005,o),
(1477,1173,o),
(1795,1173,cs),
(1813,1173,l),
(1780,1168,o),
(1740,1157,o),
(1703,1129,cs),
(1597,1047,o),
(1628,835,o),
(1581,744,cs),
(1533,649,o),
(1458,607,o),
(1376,554,c),
(1405,546,l)
);
}
);
userData = {
assembly = "NPUSHB[ ]	/* 14 values pushed */
66 36 72 67 7 49 16 54 55 3 24 15 18 43
PUSHW[ ]	/* 1 value pushed */
544
PUSHB[ ]	/* 3 values pushed */
29 63 60
PUSHW[ ]	/* 3 values pushed */
309 49 315
PUSHB[ ]	/* 3 values pushed */
37 200 24
PUSHW[ ]	/* 1 value pushed */
359
PUSHB[ ]	/* 6 values pushed */
72 200 1 200 35 18
PUSHW[ ]	/* 1 value pushed */
544
PUSHB[ ]	/* 3 values pushed */
35 29 36
PUSHW[ ]	/* 1 value pushed */
574
NPUSHB[ ]	/* 21 values pushed */
13 0 46 15 16 46 54 63 67 6 52 72 7 21 156 10 55 52 245 57 37
PUSHW[ ]	/* 1 value pushed */
324
PUSHB[ ]	/* 5 values pushed */
40 156 10 57 1
PUSHW[ ]	/* 2 values pushed */
573 32
MDAP[1]	/* MoveDirectAbsPt */
MIRP[01101]	/* MoveIndirectRelPt */
IP[ ]	/* InterpolatePts */
IP[ ]	/* InterpolatePts */
MIRP[11101]	/* MoveIndirectRelPt */
MIRP[00100]	/* MoveIndirectRelPt */
MDAP[1]	/* MoveDirectAbsPt */
MIRP[01101]	/* MoveIndirectRelPt */
IP[ ]	/* InterpolatePts */
MDAP[1]	/* MoveDirectAbsPt */
MIRP[01101]	/* MoveIndirectRelPt */
IP[ ]	/* InterpolatePts */
IP[ ]	/* InterpolatePts */
SRP1[ ]	/* SetRefPoint1 */
SLOOP[ ]	/* SetLoopVariable */
IP[ ]	/* InterpolatePts */
MDAP[1]	/* MoveDirectAbsPt */
SVTCA[0]	/* SetFreedomAndProjectionVectorToAxis */
MIAP[1]	/* MoveIndirectAbsPt */
MIRP[01101]	/* MoveIndirectRelPt */
IP[ ]	/* InterpolatePts */
IP[ ]	/* InterpolatePts */
MIRP[01101]	/* MoveIndirectRelPt */
SRP0[ ]	/* SetRefPoint0 */
MIRP[01101]	/* MoveIndirectRelPt */
MIRP[01101]	/* MoveIndirectRelPt */
MIRP[01101]	/* MoveIndirectRelPt */
MIRP[11101]	/* MoveIndirectRelPt */
MIRP[10100]	/* MoveIndirectRelPt */
MIRP[01101]	/* MoveIndirectRelPt */
IP[ ]	/* InterpolatePts */
MDAP[1]	/* MoveDirectAbsPt */
MIRP[01101]	/* MoveIndirectRelPt */
SRP1[ ]	/* SetRefPoint1 */
IP[ ]	/* InterpolatePts */
SRP1[ ]	/* SetRefPoint1 */
SLOOP[ ]	/* SetLoopVariable */
IP[ ]	/* InterpolatePts */
SRP2[ ]	/* SetRefPoint2 */
IP[ ]	/* InterpolatePts */
IP[ ]	/* InterpolatePts */
SRP1[ ]	/* SetRefPoint1 */
SRP2[ ]	/* SetRefPoint2 */
IP[ ]	/* InterpolatePts */
IUP[1]	/* InterpolateUntPts */
IUP[0]	/* InterpolateUntPts */";
};
width = 2048;
}
);
note = budleafboldne;
unicode = 97;
}
{
color = 5;
glyphname = budleafboldsw;
layers = (
{
layerId = m01;
shapes = (
{
closed = 1;
nodes = (
(535,-97,o),
(700,40,o),
(700,305,cs),
(700,361,o),
(696,429,o),
(689,517,c),
(727,387,o),
(813,294,o),
(939,294,cs),
(1067,294,o),
(1133,394,o),
(1133,486,cs),
(1133,579,o),
(1096,641,o),
(1047,687,c),
(1001,659,l),
(1012,632,o),
(1018,601,o),
(1018,577,cs),
(1018,513,o),
(976,445,o),
(890,445,cs),
(802,445,o),
(734,513,o),
(734,615,cs),
(734,703,o),
(784,776,o),
(855,835,cs),
(963,926,o),
(1120,979,o),
(1259,979,cs),
(1515,979,o),
(1758,791,o),
(1758,451,cs),
(1758,339,o),
(1705,91,o),
(1411,65,c),
(1414,16,l),
(1820,16,o),
(1979,286,o),
(1979,526,cs),
(1979,855,o),
(1688,1085,o),
(1312,1085,cs),
(1085,1085,o),
(910,1001,o),
(798,906,cs),
(650,780,o),
(621,648,o),
(504,648,cs),
(387,648,o),
(310,723,o),
(310,875,cs),
(310,1021,o),
(409,1096,o),
(530,1096,cs),
(566,1096,o),
(605,1089,o),
(623,1080,c),
(656,1151,l),
(594,1195,o),
(517,1224,o),
(427,1224,cs),
(257,1224,o),
(71,1120,o),
(71,899,cs),
(71,707,o),
(217,577,o),
(427,577,cs),
(451,577,o),
(477,579,o),
(504,584,c),
(396,506,o),
(325,498,o),
(259,416,cs),
(206,350,o),
(199,272,o),
(199,206,cs),
(199,173,o),
(201,144,o),
(201,118,cs),
(201,93,o),
(199,71,o),
(193,58,cs),
(162,-4,o),
(51,21,o),
(51,-32,cs),
(51,-92,o),
(190,-97,o),
(254,-97,cs)
);
},
{
closed = 1;
nodes = (
(250,-41,o),
(290,-30,o),
(327,-2,cs),
(433,80,o),
(402,292,o),
(449,383,cs),
(497,478,o),
(572,520,o),
(654,573,c),
(625,581,l),
(630,517,o),
(634,456,o),
(634,354,cs),
(634,122,o),
(553,-46,o),
(235,-46,cs),
(217,-46,l)
);
}
);
userData = {
assembly = "NPUSHB[ ]	/* 12 values pushed */
15 18 16 54 55 3 43 67 7 24 49 43
PUSHW[ ]	/* 1 value pushed */
544
PUSHB[ ]	/* 3 values pushed */
29 63 49
PUSHW[ ]	/* 5 values pushed */
309 60 412 24 359
PUSHB[ ]	/* 4 values pushed */
37 200 0 18
PUSHW[ ]	/* 1 value pushed */
544
PUSHB[ ]	/* 8 values pushed */
13 1 200 36 72 200 29 13
PUSHW[ ]	/* 1 value pushed */
574
NPUSHB[ ]	/* 21 values pushed */
0 0 46 15 16 46 54 63 67 6 52 72 7 21 156 10 55 52 245 57 36
PUSHW[ ]	/* 1 value pushed */
324
PUSHB[ ]	/* 6 values pushed */
40 156 32 57 10 32
PUSHW[ ]	/* 2 values pushed */
573 0
MDAP[1]	/* MoveDirectAbsPt */
MIRP[01101]	/* MoveIndirectRelPt */
IP[ ]	/* InterpolatePts */
IP[ ]	/* InterpolatePts */
SRP0[ ]	/* SetRefPoint0 */
MIRP[11101]	/* MoveIndirectRelPt */
MIRP[00100]	/* MoveIndirectRelPt */
MDAP[1]	/* MoveDirectAbsPt */
MIRP[01101]	/* MoveIndirectRelPt */
IP[ ]	/* InterpolatePts */
MDAP[1]	/* MoveDirectAbsPt */
MIRP[01101]	/* MoveIndirectRelPt */
IP[ ]	/* InterpolatePts */
IP[ ]	/* InterpolatePts */
SRP1[ ]	/* SetRefPoint1 */
SLOOP[ ]	/* SetLoopVariable */
IP[ ]	/* InterpolatePts */
MDAP[1]	/* MoveDirectAbsPt */
SVTCA[0]	/* SetFreedomAndProjectionVectorToAxis */
MIAP[1]	/* MoveIndirectAbsPt */
MIRP[01101]	/* MoveIndirectRelPt */
IP[ ]	/* InterpolatePts */
MIRP[01101]	/* MoveIndirectRelPt */
IP[ ]	/* InterpolatePts */
MIRP[01101]	/* MoveIndirectRelPt */
SRP0[ ]	/* SetRefPoint0 */
MIRP[01101]	/* MoveIndirectRelPt */
SRP0[ ]	/* SetRefPoint0 */
MIRP[01101]	/* MoveIndirectRelPt */
MIRP[01101]	/* MoveIndirectRelPt */
MIRP[10100]	/* MoveIndirectRelPt */
MIRP[01101]	/* MoveIndirectRelPt */
IP[ ]	/* InterpolatePts */
MDAP[1]	/* MoveDirectAbsPt */
MIRP[01101]	/* MoveIndirectRelPt */
SRP1[ ]	/* SetRefPoint1 */
SRP2[ ]	/* SetRefPoint2 */
IP[ ]	/* InterpolatePts */
IP[ ]	/* InterpolatePts */
SRP1[ ]	/* SetRefPoint1 */
SLOOP[ ]	/* SetLoopVariable */
IP[ ]	/* InterpolatePts */
SRP2[ ]	/* SetRefPoint2 */
IP[ ]	/* InterpolatePts */
IUP[1]	/* InterpolateUntPts */
IUP[0]	/* InterpolateUntPts */";
};
width = 2048;
}
);
note = budleafboldsw;
unicode = 99;
}
{
color = 5;
glyphname = vineleafne;
layers = (
{
layerId = m01;
shapes = (
{
closed = 1;
nodes = (
(1171,-104,o),
(1599,627,o),
(1796,627,cs),
(1839,627,o),
(1876,589,o),
(1876,555,cs),
(1876,498,o),
(1820,452,o),
(1730,452,cs),
(1399,452,o),
(1164,785,o),
(640,785,cs),
(273,785,o),
(80,570,o),
(80,377,cs),
(80,186,o),
(238,66,o),
(264,66,cs),
(271,66,o),
(277,70,o),
(277,77,cs),
(277,92,o),
(219,130,o),
(219,239,cs),
(219,462,o),
(424,643,o),
(758,643,cs),
(1260,643,o),
(1460,342,o),
(1810,342,cs),
(1912,342,o),
(1968,398,o),
(1968,473,cs),
(1968,607,o),
(1820,743,o),
(1684,743,cs),
(1487,743,o),
(1068,9,o),
(731,9,cs),
(651,9,o),
(629,74,o),
(629,119,cs),
(629,217,o),
(729,304,o),
(828,304,cs),
(854,304,o),
(863,297,o),
(874,297,cs),
(876,297,o),
(879,297,o),
(879,302,c),
(879,317,o),
(838,357,o),
(819,372,cs),
(793,393,o),
(758,409,o),
(712,409,cs),
(627,409,o),
(529,346,o),
(529,217,cs),
(529,37,o),
(697,-104,o),
(830,-104,cs)
);
},
{
closed = 1;
nodes = (
(1328,551,o),
(915,1195,o),
(602,1195,cs),
(476,1195,o),
(415,1128,o),
(415,1048,cs),
(415,955,o),
(503,865,o),
(529,865,cs),
(540,865,o),
(542,869,o),
(542,874,cs),
(542,877,o),
(524,890,o),
(524,927,cs),
(524,994,o),
(575,1064,o),
(685,1064,cs),
(928,1064,o),
(1231,643,o),
(1289,582,c),
(1437,506,l)
);
}
);
userData = {
assembly = "NPUSHB[ ]	/* 17 values pushed */
47 42 36 38 59 26 57 23 75 67 10 69 12 0 14 65 26
PUSHW[ ]	/* 1 value pushed */
281
NPUSHB[ ]	/* 11 values pushed */
36 10 200 14 75 208 59 69 200 65 42
PUSHW[ ]	/* 1 value pushed */
281
PUSHB[ ]	/* 3 values pushed */
52 31 20
PUSHW[ ]	/* 1 value pushed */
281
PUSHB[ ]	/* 6 values pushed */
65 14 59 36 4 52
PUSHW[ ]	/* 1 value pushed */
574
NPUSHB[ ]	/* 32 values pushed */
4 0 0 12 23 38 57 67 6 72 17 47 7 45 31 49 29 17 127 7 45 245 49 29 154 33 72 127 62 7 49 62
PUSHW[ ]	/* 2 values pushed */
555 33
MDAP[1]	/* MoveDirectAbsPt */
MIRP[01101]	/* MoveIndirectRelPt */
IP[ ]	/* InterpolatePts */
IP[ ]	/* InterpolatePts */
SRP0[ ]	/* SetRefPoint0 */
MIRP[01101]	/* MoveIndirectRelPt */
SRP0[ ]	/* SetRefPoint0 */
MIRP[01101]	/* MoveIndirectRelPt */
MDAP[1]	/* MoveDirectAbsPt */
MIRP[01101]	/* MoveIndirectRelPt */
MDAP[1]	/* MoveDirectAbsPt */
MIRP[01101]	/* MoveIndirectRelPt */
SRP1[ ]	/* SetRefPoint1 */
SRP2[ ]	/* SetRefPoint2 */
IP[ ]	/* InterpolatePts */
SRP1[ ]	/* SetRefPoint1 */
SRP2[ ]	/* SetRefPoint2 */
IP[ ]	/* InterpolatePts */
SRP1[ ]	/* SetRefPoint1 */
SRP2[ ]	/* SetRefPoint2 */
SLOOP[ ]	/* SetLoopVariable */
IP[ ]	/* InterpolatePts */
SVTCA[0]	/* SetFreedomAndProjectionVectorToAxis */
MIAP[1]	/* MoveIndirectAbsPt */
MIRP[01101]	/* MoveIndirectRelPt */
SLOOP[ ]	/* SetLoopVariable */
IP[ ]	/* InterpolatePts */
MIRP[01101]	/* MoveIndirectRelPt */
IP[ ]	/* InterpolatePts */
SRP0[ ]	/* SetRefPoint0 */
MIRP[01101]	/* MoveIndirectRelPt */
MDAP[1]	/* MoveDirectAbsPt */
MIRP[01101]	/* MoveIndirectRelPt */
MDAP[1]	/* MoveDirectAbsPt */
MIRP[01101]	/* MoveIndirectRelPt */
MDAP[1]	/* MoveDirectAbsPt */
MIRP[01101]	/* MoveIndirectRelPt */
MDAP[1]	/* MoveDirectAbsPt */
MIRP[01101]	/* MoveIndirectRelPt */
SRP1[ ]	/* SetRefPoint1 */
SRP2[ ]	/* SetRefPoint2 */
IP[ ]	/* InterpolatePts */
IP[ ]	/* InterpolatePts */
SRP1[ ]	/* SetRefPoint1 */
SRP2[ ]	/* SetRefPoint2 */
IP[ ]	/* InterpolatePts */
SRP1[ ]	/* SetRefPoint1 */
IP[ ]	/* InterpolatePts */
IP[ ]	/* InterpolatePts */
SRP1[ ]	/* SetRefPoint1 */
SRP2[ ]	/* SetRefPoint2 */
IP[ ]	/* InterpolatePts */
SRP1[ ]	/* SetRefPoint1 */
SRP2[ ]	/* SetRefPoint2 */
IP[ ]	/* InterpolatePts */
IUP[1]	/* InterpolateUntPts */
IUP[0]	/* InterpolateUntPts */";
};
width = 2048;
}
);
note = vineleafne;
unicode = 101;
}
{
color = 5;
glyphname = vineleafsw;
layers = (
{
layerId = m01;
shapes = (
{
closed = 1;
nodes = (
(1775,306,o),
(1968,521,o),
(1968,714,cs),
(1968,905,o),
(1810,1025,o),
(1784,1025,cs),
(1777,1025,o),
(1771,1021,o),
(1771,1014,cs),
(1771,999,o),
(1829,961,o),
(1829,852,cs),
(1829,629,o),
(1624,448,o),
(1290,448,cs),
(788,448,o),
(588,749,o),
(238,749,cs),
(136,749,o),
(80,693,o),
(80,618,cs),
(80,484,o),
(228,348,o),
(364,348,cs),
(561,348,o),
(980,1082,o),
(1317,1082,cs),
(1397,1082,o),
(1419,1017,o),
(1419,972,cs),
(1419,874,o),
(1319,787,o),
(1220,787,cs),
(1194,787,o),
(1185,794,o),
(1174,794,cs),
(1172,794,o),
(1169,794,o),
(1169,789,cs),
(1169,774,o),
(1210,734,o),
(1229,719,cs),
(1255,698,o),
(1290,682,o),
(1336,682,cs),
(1421,682,o),
(1519,745,o),
(1519,874,cs),
(1519,1054,o),
(1351,1195,o),
(1218,1195,cs),
(877,1195,o),
(449,464,o),
(252,464,cs),
(209,464,o),
(172,502,o),
(172,536,cs),
(172,593,o),
(228,639,o),
(318,639,cs),
(649,639,o),
(884,306,o),
(1408,306,cs)
);
},
{
closed = 1;
nodes = (
(1572,-104,o),
(1633,-37,o),
(1633,43,cs),
(1633,136,o),
(1545,226,o),
(1519,226,cs),
(1508,226,o),
(1506,222,o),
(1506,217,cs),
(1506,214,o),
(1524,201,o),
(1524,164,cs),
(1524,97,o),
(1473,27,o),
(1363,27,cs),
(1120,27,o),
(817,448,o),
(759,509,c),
(611,585,l),
(720,540,o),
(1133,-104,o),
(1446,-104,cs)
);
}
);
userData = {
assembly = "NPUSHB[ ]	/* 16 values pushed */
12 0 65 14 67 69 57 23 10 75 38 26 59 47 42 26
PUSHW[ ]	/* 1 value pushed */
281
NPUSHB[ ]	/* 11 values pushed */
36 75 208 59 69 200 65 10 200 14 42
PUSHW[ ]	/* 1 value pushed */
281
PUSHB[ ]	/* 3 values pushed */
52 31 20
PUSHW[ ]	/* 1 value pushed */
281
PUSHB[ ]	/* 7 values pushed */
4 36 59 14 65 4 4
PUSHW[ ]	/* 1 value pushed */
574
NPUSHB[ ]	/* 30 values pushed */
52 0 31 29 49 47 45 7 0 12 23 38 57 67 6 72 17 127 7 45 245 49 29 154 33 72 127 49 7 33
PUSHW[ ]	/* 2 values pushed */
555 62
MDAP[1]	/* MoveDirectAbsPt */
MIRP[01101]	/* MoveIndirectRelPt */
IP[ ]	/* InterpolatePts */
IP[ ]	/* InterpolatePts */
MIRP[01101]	/* MoveIndirectRelPt */
SRP0[ ]	/* SetRefPoint0 */
MIRP[01101]	/* MoveIndirectRelPt */
MDAP[1]	/* MoveDirectAbsPt */
MIRP[01101]	/* MoveIndirectRelPt */
MDAP[1]	/* MoveDirectAbsPt */
MIRP[01101]	/* MoveIndirectRelPt */
SRP1[ ]	/* SetRefPoint1 */
SLOOP[ ]	/* SetLoopVariable */
IP[ ]	/* InterpolatePts */
SRP1[ ]	/* SetRefPoint1 */
SRP2[ ]	/* SetRefPoint2 */
IP[ ]	/* InterpolatePts */
SRP1[ ]	/* SetRefPoint1 */
SRP2[ ]	/* SetRefPoint2 */
IP[ ]	/* InterpolatePts */
SVTCA[0]	/* SetFreedomAndProjectionVectorToAxis */
MIAP[1]	/* MoveIndirectAbsPt */
MIRP[01101]	/* MoveIndirectRelPt */
SLOOP[ ]	/* SetLoopVariable */
IP[ ]	/* InterpolatePts */
SRP0[ ]	/* SetRefPoint0 */
MIRP[01101]	/* MoveIndirectRelPt */
IP[ ]	/* InterpolatePts */
SRP0[ ]	/* SetRefPoint0 */
MIRP[01101]	/* MoveIndirectRelPt */
MDAP[1]	/* MoveDirectAbsPt */
MIRP[01101]	/* MoveIndirectRelPt */
MDAP[1]	/* MoveDirectAbsPt */
MIRP[01101]	/* MoveIndirectRelPt */
MDAP[1]	/* MoveDirectAbsPt */
MIRP[01101]	/* MoveIndirectRelPt */
MDAP[1]	/* MoveDirectAbsPt */
MIRP[01101]	/* MoveIndirectRelPt */
SRP2[ ]	/* SetRefPoint2 */
IP[ ]	/* InterpolatePts */
SRP1[ ]	/* SetRefPoint1 */
SRP2[ ]	/* SetRefPoint2 */
IP[ ]	/* InterpolatePts */
SRP1[ ]	/* SetRefPoint1 */
SRP2[ ]	/* SetRefPoint2 */
IP[ ]	/* InterpolatePts */
IP[ ]	/* InterpolatePts */
SRP1[ ]	/* SetRefPoint1 */
IP[ ]	/* InterpolatePts */
SRP1[ ]	/* SetRefPoint1 */
SRP2[ ]	/* SetRefPoint2 */
IP[ ]	/* InterpolatePts */
IP[ ]	/* InterpolatePts */
IUP[1]	/* InterpolateUntPts */
IUP[0]	/* InterpolateUntPts */";
};
width = 2048;
}
);
note = vineleafsw;
unicode = 103;
}
{
color = 5;
glyphname = zero;
layers = (
{
layerId = m01;
shapes = (
{
closed = 1;
nodes = (
(728,269,o),
(597,449,o),
(597,740,cs),
(597,1031,o),
(728,1211,o),
(913,1211,cs),
(1098,1211,o),
(1229,1031,o),
(1229,740,cs),
(1229,449,o),
(1098,269,o),
(913,269,cs)
);
},
{
closed = 1;
nodes = (
(1060,334,o),
(1096,526,o),
(1096,740,cs),
(1096,954,o),
(1060,1146,o),
(913,1146,cs),
(766,1146,o),
(730,954,o),
(730,740,cs),
(730,526,o),
(766,334,o),
(913,334,cs)
);
},
{
closed = 1;
nodes = (
(1323,0,o),
(1653,330,o),
(1653,740,cs),
(1653,1150,o),
(1323,1480,o),
(913,1480,cs),
(503,1480,o),
(173,1150,o),
(173,740,cs),
(173,330,o),
(503,0,o),
(913,0,cs)
);
},
{
closed = 1;
nodes = (
(559,101,o),
(274,386,o),
(274,740,cs),
(274,1094,o),
(559,1379,o),
(913,1379,cs),
(1267,1379,o),
(1552,1094,o),
(1552,740,cs),
(1552,386,o),
(1267,101,o),
(913,101,cs)
);
}
);
userData = {
assembly = "NPUSHB[ ]	/* 20 values pushed */
39 124 33 127 21 200 3 123 9 45 124 27 127 15 200 9 0 36 245 24
PUSHW[ ]	/* 1 value pushed */
575
PUSHB[ ]	/* 8 values pushed */
18 127 6 140 0 42 245 30
PUSHW[ ]	/* 1 value pushed */
575
PUSHB[ ]	/* 4 values pushed */
12 127 0 100
SCVTCI[ ]	/* SetCVTCutIn */
MDAP[1]	/* MoveDirectAbsPt */
MIRP[11101]	/* MoveIndirectRelPt */
MIRP[10110]	/* MoveIndirectRelPt */
MIRP[01101]	/* MoveIndirectRelPt */
SRP0[ ]	/* SetRefPoint0 */
MIRP[11101]	/* MoveIndirectRelPt */
MIRP[11101]	/* MoveIndirectRelPt */
MIRP[10110]	/* MoveIndirectRelPt */
MIRP[01101]	/* MoveIndirectRelPt */
SVTCA[0]	/* SetFreedomAndProjectionVectorToAxis */
MIAP[1]	/* MoveIndirectAbsPt */
MIRP[11101]	/* MoveIndirectRelPt */
MIRP[10110]	/* MoveIndirectRelPt */
MIRP[01101]	/* MoveIndirectRelPt */
SRP0[ ]	/* SetRefPoint0 */
MIRP[11101]	/* MoveIndirectRelPt */
MIRP[11101]	/* MoveIndirectRelPt */
MIRP[10110]	/* MoveIndirectRelPt */
MIRP[01101]	/* MoveIndirectRelPt */
IUP[1]	/* InterpolateUntPts */
IUP[0]	/* InterpolateUntPts */";
};
width = 1826;
}
);
note = zero;
unicode = 105;
}
{
color = 5;
glyphname = one;
layers = (
{
layerId = m01;
shapes = (
{
closed = 1;
nodes = (
(994,357,l),
(994,1126,l),
(865,1126,l),
(636,961,l),
(697,873,l),
(784,936,o),
(832,972,o),
(845,984,cs),
(856,995,o),
(866,1004,o),
(875,1013,c),
(872,963,o),
(868,909,o),
(868,853,cs),
(868,357,l)
);
},
{
closed = 1;
nodes = (
(1323,0,o),
(1653,330,o),
(1653,740,cs),
(1653,1150,o),
(1323,1480,o),
(913,1480,cs),
(503,1480,o),
(173,1150,o),
(173,740,cs),
(173,330,o),
(503,0,o),
(913,0,cs)
);
},
{
closed = 1;
nodes = (
(559,101,o),
(274,386,o),
(274,740,cs),
(274,1094,o),
(559,1379,o),
(913,1379,cs),
(1267,1379,o),
(1552,1094,o),
(1552,740,cs),
(1552,386,o),
(1267,101,o),
(913,101,cs)
);
}
);
userData = {
assembly = "PUSHB[ ]	/* 3 values pushed */
41 124 42
PUSHW[ ]	/* 3 values pushed */
577 24 550
NPUSHB[ ]	/* 9 values pushed */
21 200 3 123 9 29 32 124 31
PUSHW[ ]	/* 1 value pushed */
581
NPUSHB[ ]	/* 10 values pushed */
15 200 9 0 18 127 6 140 0 29
PUSHW[ ]	/* 1 value pushed */
552
PUSHB[ ]	/* 6 values pushed */
25 245 37 36 41 31
PUSHW[ ]	/* 3 values pushed */
552 36 576
PUSHB[ ]	/* 3 values pushed */
12 127 0
MDAP[1]	/* MoveDirectAbsPt */
MIRP[11101]	/* MoveIndirectRelPt */
MIRP[10110]	/* MoveIndirectRelPt */
MIRP[10100]	/* MoveIndirectRelPt */
ALIGNRP[ ]	/* AlignRelativePt */
SRP0[ ]	/* SetRefPoint0 */
ALIGNRP[ ]	/* AlignRelativePt */
MIRP[11101]	/* MoveIndirectRelPt */
MIRP[00100]	/* MoveIndirectRelPt */
SRP0[ ]	/* SetRefPoint0 */
MIRP[11101]	/* MoveIndirectRelPt */
MIRP[01101]	/* MoveIndirectRelPt */
SVTCA[0]	/* SetFreedomAndProjectionVectorToAxis */
MIAP[1]	/* MoveIndirectAbsPt */
MIRP[11101]	/* MoveIndirectRelPt */
MIRP[10110]	/* MoveIndirectRelPt */
MIRP[11101]	/* MoveIndirectRelPt */
ALIGNRP[ ]	/* AlignRelativePt */
SRP0[ ]	/* SetRefPoint0 */
MIRP[11101]	/* MoveIndirectRelPt */
MIRP[11101]	/* MoveIndirectRelPt */
MIRP[10110]	/* MoveIndirectRelPt */
MIRP[11100]	/* MoveIndirectRelPt */
MIRP[01101]	/* MoveIndirectRelPt */
IUP[1]	/* InterpolateUntPts */
IUP[0]	/* InterpolateUntPts */";
};
width = 1826;
}
);
note = one;
unicode = 106;
}
{
color = 5;
glyphname = two;
layers = (
{
layerId = m01;
shapes = (
{
closed = 1;
nodes = (
(1173,356,l),
(1173,463,l),
(785,463,l),
(798,436,l),
(972,605,ls),
(1094,724,o),
(1175,806,o),
(1175,929,cs),
(1175,1062,o),
(1085,1141,o),
(935,1141,cs),
(847,1141,o),
(764,1108,o),
(687,1042,c),
(748,959,l),
(812,1011,o),
(875,1036,o),
(933,1036,cs),
(1003,1036,o),
(1051,999,o),
(1051,921,cs),
(1051,835,o),
(1014,787,o),
(881,654,cs),
(678,453,l),
(678,356,l)
);
},
{
closed = 1;
nodes = (
(1323,0,o),
(1653,330,o),
(1653,740,cs),
(1653,1150,o),
(1323,1480,o),
(913,1480,cs),
(503,1480,o),
(173,1150,o),
(173,740,cs),
(173,330,o),
(503,0,o),
(913,0,cs)
);
},
{
closed = 1;
nodes = (
(559,101,o),
(274,386,o),
(274,740,cs),
(274,1094,o),
(559,1379,o),
(913,1379,cs),
(1267,1379,o),
(1552,1094,o),
(1552,740,cs),
(1552,386,o),
(1267,101,o),
(913,101,cs)
);
}
);
userData = {
assembly = "PUSHW[ ]	/* 4 values pushed */
40 544 41 406
NPUSHB[ ]	/* 10 values pushed */
34 124 43 127 21 200 3 123 9 51
PUSHW[ ]	/* 1 value pushed */
281
NPUSHB[ ]	/* 11 values pushed */
24 128 15 200 9 0 52 141 31 245 46
PUSHW[ ]	/* 1 value pushed */
578
NPUSHB[ ]	/* 9 values pushed */
18 127 6 140 0 51 25 24 39
PUSHW[ ]	/* 1 value pushed */
579
PUSHB[ ]	/* 3 values pushed */
40 141 24
PUSHW[ ]	/* 1 value pushed */
578
PUSHB[ ]	/* 4 values pushed */
12 127 0 100
SCVTCI[ ]	/* SetCVTCutIn */
MDAP[1]	/* MoveDirectAbsPt */
MIRP[11101]	/* MoveIndirectRelPt */
MIRP[10110]	/* MoveIndirectRelPt */
MIRP[10100]	/* MoveIndirectRelPt */
MIRP[01101]	/* MoveIndirectRelPt */
SRP1[ ]	/* SetRefPoint1 */
SHP[1]	/* ShiftPointByLastPoint */
SHP[1]	/* ShiftPointByLastPoint */
SRP0[ ]	/* SetRefPoint0 */
MIRP[11101]	/* MoveIndirectRelPt */
MIRP[11101]	/* MoveIndirectRelPt */
MIRP[10110]	/* MoveIndirectRelPt */
MIRP[01101]	/* MoveIndirectRelPt */
MIRP[00100]	/* MoveIndirectRelPt */
SVTCA[0]	/* SetFreedomAndProjectionVectorToAxis */
MIAP[1]	/* MoveIndirectAbsPt */
MIRP[11101]	/* MoveIndirectRelPt */
MIRP[10110]	/* MoveIndirectRelPt */
MIRP[01101]	/* MoveIndirectRelPt */
SRP0[ ]	/* SetRefPoint0 */
MIRP[11101]	/* MoveIndirectRelPt */
MIRP[11101]	/* MoveIndirectRelPt */
MIRP[10110]	/* MoveIndirectRelPt */
MIRP[01101]	/* MoveIndirectRelPt */
MIRP[11100]	/* MoveIndirectRelPt */
MIRP[01101]	/* MoveIndirectRelPt */
IUP[1]	/* InterpolateUntPts */
IUP[0]	/* InterpolateUntPts */";
};
width = 1826;
}
);
note = two;
unicode = 107;
}
{
color = 5;
glyphname = three;
layers = (
{
layerId = m01;
shapes = (
{
closed = 1;
nodes = (
(1093,269,o),
(1220,370,o),
(1220,532,cs),
(1220,650,o),
(1154,736,o),
(1041,758,c),
(1150,792,o),
(1206,860,o),
(1206,966,cs),
(1206,1115,o),
(1096,1211,o),
(922,1211,cs),
(748,1211,o),
(627,1115,o),
(627,973,cs),
(627,966,l),
(757,966,l),
(760,1051,o),
(820,1103,o),
(918,1103,cs),
(1017,1103,o),
(1076,1053,o),
(1076,963,cs),
(1076,868,o),
(1008,808,o),
(872,808,cs),
(836,808,l),
(836,704,l),
(868,704,ls),
(1012,704,o),
(1094,643,o),
(1094,535,cs),
(1094,436,o),
(1026,379,o),
(917,379,cs),
(809,379,o),
(746,435,o),
(746,528,c),
(609,528,l),
(609,517,ls),
(609,366,o),
(721,269,o),
(900,269,cs)
);
},
{
closed = 1;
nodes = (
(1323,0,o),
(1653,330,o),
(1653,740,cs),
(1653,1150,o),
(1323,1480,o),
(913,1480,cs),
(503,1480,o),
(173,1150,o),
(173,740,cs),
(173,330,o),
(503,0,o),
(913,0,cs)
);
},
{
closed = 1;
nodes = (
(559,101,o),
(274,386,o),
(274,740,cs),
(274,1094,o),
(559,1379,o),
(913,1379,cs),
(1267,1379,o),
(1552,1094,o),
(1552,740,cs),
(1552,386,o),
(1267,101,o),
(913,101,cs)
);
}
);
userData = {
assembly = "PUSHB[ ]	/* 8 values pushed */
60 37 124 40 40 66 54 51
PUSHW[ ]	/* 3 values pushed */
544 52 577
NPUSHB[ ]	/* 10 values pushed */
46 124 54 127 21 200 3 123 9 25
PUSHW[ ]	/* 3 values pushed */
544 24 577
NPUSHB[ ]	/* 14 values pushed */
31 124 66 127 15 200 9 0 60 63 24 43 245 57
PUSHW[ ]	/* 1 value pushed */
401
PUSHB[ ]	/* 3 values pushed */
34 245 63
PUSHW[ ]	/* 1 value pushed */
580
PUSHB[ ]	/* 6 values pushed */
18 127 6 140 0 38
PUSHW[ ]	/* 1 value pushed */
545
PUSHB[ ]	/* 3 values pushed */
51 141 24
PUSHW[ ]	/* 1 value pushed */
450
PUSHB[ ]	/* 8 values pushed */
12 127 0 100 12 127 0 100
SCVTCI[ ]	/* SetCVTCutIn */
MDAP[1]	/* MoveDirectAbsPt */
MIRP[01101]	/* MoveIndirectRelPt */
SCVTCI[ ]	/* SetCVTCutIn */
MDAP[1]	/* MoveDirectAbsPt */
MIRP[11101]	/* MoveIndirectRelPt */
MIRP[10110]	/* MoveIndirectRelPt */
MIRP[00100]	/* MoveIndirectRelPt */
MIRP[00100]	/* MoveIndirectRelPt */
SRP0[ ]	/* SetRefPoint0 */
MIRP[11101]	/* MoveIndirectRelPt */
MIRP[11101]	/* MoveIndirectRelPt */
MIRP[10110]	/* MoveIndirectRelPt */
MIRP[01101]	/* MoveIndirectRelPt */
MIRP[10100]	/* MoveIndirectRelPt */
MIRP[01101]	/* MoveIndirectRelPt */
SRP1[ ]	/* SetRefPoint1 */
SRP2[ ]	/* SetRefPoint2 */
IP[ ]	/* InterpolatePts */
SVTCA[0]	/* SetFreedomAndProjectionVectorToAxis */
MIAP[1]	/* MoveIndirectAbsPt */
MIRP[11101]	/* MoveIndirectRelPt */
MIRP[10110]	/* MoveIndirectRelPt */
MIRP[01101]	/* MoveIndirectRelPt */
MIRP[10100]	/* MoveIndirectRelPt */
MIRP[01101]	/* MoveIndirectRelPt */
SRP0[ ]	/* SetRefPoint0 */
MIRP[11101]	/* MoveIndirectRelPt */
MIRP[11101]	/* MoveIndirectRelPt */
MIRP[10110]	/* MoveIndirectRelPt */
MIRP[01101]	/* MoveIndirectRelPt */
MIRP[10100]	/* MoveIndirectRelPt */
MIRP[01101]	/* MoveIndirectRelPt */
SRP1[ ]	/* SetRefPoint1 */
SRP2[ ]	/* SetRefPoint2 */
IP[ ]	/* InterpolatePts */
MDAP[1]	/* MoveDirectAbsPt */
MIRP[01101]	/* MoveIndirectRelPt */
IP[ ]	/* InterpolatePts */
IUP[1]	/* InterpolateUntPts */
IUP[0]	/* InterpolateUntPts */";
};
width = 1826;
}
);
note = three;
unicode = 108;
}
{
color = 5;
glyphname = four;
layers = (
{
layerId = m01;
shapes = (
{
closed = 1;
nodes = (
(173,330.667,o),
(503.667,0,o),
(913,0,cs),
(1322.333,0,o),
(1653,330.667,o),
(1653,740,cs),
(1653,1149.333,o),
(1322.333,1480,o),
(913,1480,cs),
(503.667,1480,o),
(173,1149.333,o),
(173,740,cs)
);
},
{
closed = 1;
nodes = (
(272,1094.667,o),
(558.333,1382,o),
(913,1382,cs),
(1267.667,1382,o),
(1555,1094.667,o),
(1555,740,cs),
(1555,385.333,o),
(1267.667,99,o),
(913,99,cs),
(558.333,99,o),
(272,385.333,o),
(272,740,cs)
);
},
{
closed = 1;
nodes = (
(1054,548,l),
(1179,548,l),
(1179,649,l),
(1054,649,l),
(1054,1216,l),
(938,1216,l),
(518,641,l),
(518,548,l),
(938,548,l),
(938,284,l),
(1054,284,l),
(1054,284,l)
);
},
{
closed = 1;
nodes = (
(946,649,l),
(640,649,l),
(946,1064,l),
(946,1064,l)
);
}
);
userData = {
assembly = "NPUSHB[ ]	/* 29 values pushed */
49 47 47 28 27 26 26 103 47 49 20 47 47 49 49 27 47 26 29 32 29 47 32 25 37 40 105 39 47
PUSHW[ ]	/* 7 values pushed */
411 25 25 430 38 39 626
PUSHB[ ]	/* 5 values pushed */
15 92 9 27 28
PUSHW[ ]	/* 1 value pushed */
587
NPUSHB[ ]	/* 25 values pushed */
21 92 3 96 9 0 27 29 48 49 46 47 39 26 25 12 29 33 31 31 18 38 48 46 25
PUSHW[ ]	/* 4 values pushed */
627 12 39 414
NPUSHB[ ]	/* 16 values pushed */
46 38 241 46 242 33 33 18 12 93 0 18 93 6 109 0
MDAP[1]	/* MoveDirectAbsPt */
MIRP[11101]	/* MoveIndirectRelPt */
MIRP[01101]	/* MoveIndirectRelPt */
SRP0[ ]	/* SetRefPoint0 */
MIRP[11101]	/* MoveIndirectRelPt */
SRP1[ ]	/* SetRefPoint1 */
IP[ ]	/* InterpolatePts */
MDAP[1]	/* MoveDirectAbsPt */
MIRP[01101]	/* MoveIndirectRelPt */
MIRP[00100]	/* MoveIndirectRelPt */
SRP0[ ]	/* SetRefPoint0 */
MIRP[00100]	/* MoveIndirectRelPt */
SRP0[ ]	/* SetRefPoint0 */
MIRP[00110]	/* MoveIndirectRelPt */
SRP0[ ]	/* SetRefPoint0 */
ALIGNRP[ ]	/* AlignRelativePt */
SRP1[ ]	/* SetRefPoint1 */
SRP2[ ]	/* SetRefPoint2 */
IP[ ]	/* InterpolatePts */
MDAP[1]	/* MoveDirectAbsPt */
SRP0[ ]	/* SetRefPoint0 */
ALIGNRP[ ]	/* AlignRelativePt */
SRP1[ ]	/* SetRefPoint1 */
SRP2[ ]	/* SetRefPoint2 */
IP[ ]	/* InterpolatePts */
SRP1[ ]	/* SetRefPoint1 */
IP[ ]	/* InterpolatePts */
SRP2[ ]	/* SetRefPoint2 */
IP[ ]	/* InterpolatePts */
SRP1[ ]	/* SetRefPoint1 */
SRP2[ ]	/* SetRefPoint2 */
IP[ ]	/* InterpolatePts */
SVTCA[0]	/* SetFreedomAndProjectionVectorToAxis */
MIAP[1]	/* MoveIndirectAbsPt */
MIRP[11101]	/* MoveIndirectRelPt */
MIRP[11101]	/* MoveIndirectRelPt */
MIRP[10110]	/* MoveIndirectRelPt */
ALIGNRP[ ]	/* AlignRelativePt */
SRP0[ ]	/* SetRefPoint0 */
MIRP[11101]	/* MoveIndirectRelPt */
MIRP[10110]	/* MoveIndirectRelPt */
ALIGNRP[ ]	/* AlignRelativePt */
MIRP[11100]	/* MoveIndirectRelPt */
MDAP[1]	/* MoveDirectAbsPt */
MIRP[01101]	/* MoveIndirectRelPt */
SRP0[ ]	/* SetRefPoint0 */
MIRP[11101]	/* MoveIndirectRelPt */
ALIGNRP[ ]	/* AlignRelativePt */
SRP0[ ]	/* SetRefPoint0 */
ALIGNRP[ ]	/* AlignRelativePt */
SRP0[ ]	/* SetRefPoint0 */
ALIGNRP[ ]	/* AlignRelativePt */
SRP1[ ]	/* SetRefPoint1 */
SRP2[ ]	/* SetRefPoint2 */
IP[ ]	/* InterpolatePts */
SRP1[ ]	/* SetRefPoint1 */
SRP2[ ]	/* SetRefPoint2 */
IP[ ]	/* InterpolatePts */
SDPVTL[1]	/* SetDualPVectorToLine */
MDAP[0]	/* MoveDirectAbsPt */
CALL[ ]	/* CallFunction */
SFVTCA[1]	/* SetFVectorToAxis */
RDTG[ ]	/* RoundDownToGrid */
SRP0[ ]	/* SetRefPoint0 */
MDRP[00100]	/* MoveDirectRelPt */
SPVTL[1]	/* SetPVectorToLine */
SFVTCA[0]	/* SetFVectorToAxis */
SRP0[ ]	/* SetRefPoint0 */
ALIGNRP[ ]	/* AlignRelativePt */
IUP[1]	/* InterpolateUntPts */
IUP[0]	/* InterpolateUntPts */";
};
width = 1826;
}
);
note = four;
unicode = 109;
}
{
color = 5;
glyphname = five;
layers = (
{
layerId = m01;
shapes = (
{
closed = 1;
nodes = (
(1323,0,o),
(1653,330,o),
(1653,740,cs),
(1653,1150,o),
(1323,1480,o),
(913,1480,cs),
(503,1480,o),
(173,1150,o),
(173,740,cs),
(173,330,o),
(503,0,o),
(913,0,cs)
);
},
{
closed = 1;
nodes = (
(560,100,o),
(273,387,o),
(273,740,cs),
(273,1093,o),
(560,1380,o),
(913,1380,cs),
(1266,1380,o),
(1553,1093,o),
(1553,740,cs),
(1553,387,o),
(1266,100,o),
(913,100,cs)
);
},
{
closed = 1;
nodes = (
(1089,343,o),
(1188,437,o),
(1188,605,cs),
(1188,745,o),
(1080,842,o),
(911,842,cs),
(886,842,o),
(852,838,o),
(809,831,c),
(825,1029,l),
(1152,1029,l),
(1152,1128,l),
(722,1128,l),
(696,752,l),
(749,717,l),
(804,731,o),
(850,738,o),
(888,738,cs),
(1001,738,o),
(1064,686,o),
(1064,594,cs),
(1064,496,o),
(1006,446,o),
(892,446,cs),
(829,446,o),
(740,467,o),
(678,508,c),
(678,388,l),
(726,359,o),
(798,343,o),
(895,343,cs)
);
}
);
userData = {
assembly = "NPUSHB[ ]	/* 13 values pushed */
24 48 25 166 30 108 48 11 48 15 41 105 36
PUSHW[ ]	/* 1 value pushed */
311
NPUSHB[ ]	/* 42 values pushed */
40 40 37 15 37 37 21 92 3 15 92 3 96 9 0 39 253 41 143 36 36 24 27 149 26 94 24 24 12 33 110 45 45 18 12 93 0 18 93 6 109 0
MDAP[1]	/* MoveDirectAbsPt */
MIRP[11101]	/* MoveIndirectRelPt */
MIRP[01101]	/* MoveIndirectRelPt */
SRP0[ ]	/* SetRefPoint0 */
MIRP[11101]	/* MoveIndirectRelPt */
SRP1[ ]	/* SetRefPoint1 */
IP[ ]	/* InterpolatePts */
MDAP[1]	/* MoveDirectAbsPt */
MIRP[01101]	/* MoveIndirectRelPt */
SRP1[ ]	/* SetRefPoint1 */
IP[ ]	/* InterpolatePts */
MDAP[1]	/* MoveDirectAbsPt */
MIRP[11101]	/* MoveIndirectRelPt */
MIRP[00100]	/* MoveIndirectRelPt */
SRP2[ ]	/* SetRefPoint2 */
IP[ ]	/* InterpolatePts */
MDAP[1]	/* MoveDirectAbsPt */
MIRP[11101]	/* MoveIndirectRelPt */
MIRP[00100]	/* MoveIndirectRelPt */
SVTCA[0]	/* SetFreedomAndProjectionVectorToAxis */
MIAP[1]	/* MoveIndirectAbsPt */
MIRP[01101]	/* MoveIndirectRelPt */
MIRP[01101]	/* MoveIndirectRelPt */
SRP0[ ]	/* SetRefPoint0 */
MIRP[01101]	/* MoveIndirectRelPt */
SRP0[ ]	/* SetRefPoint0 */
ALIGNRP[ ]	/* AlignRelativePt */
SRP1[ ]	/* SetRefPoint1 */
SRP2[ ]	/* SetRefPoint2 */
IP[ ]	/* InterpolatePts */
MDAP[1]	/* MoveDirectAbsPt */
MIRP[10100]	/* MoveIndirectRelPt */
MIRP[01101]	/* MoveIndirectRelPt */
SRP2[ ]	/* SetRefPoint2 */
IP[ ]	/* InterpolatePts */
MIAP[1]	/* MoveIndirectAbsPt */
MIRP[11101]	/* MoveIndirectRelPt */
MIRP[00100]	/* MoveIndirectRelPt */
SRP2[ ]	/* SetRefPoint2 */
IP[ ]	/* InterpolatePts */
IUP[1]	/* InterpolateUntPts */
IUP[0]	/* InterpolateUntPts */";
};
width = 1826;
}
);
note = five;
unicode = 110;
}
{
color = 5;
glyphname = six;
layers = (
{
layerId = m01;
shapes = (
{
closed = 1;
nodes = (
(1078,341,o),
(1179,445,o),
(1179,611,cs),
(1179,765,o),
(1085,851,o),
(945,851,cs),
(854,851,o),
(791,821,o),
(753,762,c),
(746,762,l),
(759,956,o),
(845,1036,o),
(1003,1036,cs),
(1048,1036,o),
(1085,1031,o),
(1116,1020,c),
(1116,1126,l),
(1085,1135,o),
(1050,1139,o),
(1010,1139,cs),
(757,1139,o),
(629,988,o),
(629,686,cs),
(629,471,o),
(737,341,o),
(913,341,cs)
);
},
{
closed = 1;
nodes = (
(818,444,o),
(751,519,o),
(751,625,cs),
(751,688,o),
(812,753,o),
(915,753,cs),
(1010,753,o),
(1058,704,o),
(1058,607,cs),
(1058,496,o),
(1001,444,o),
(909,444,cs)
);
},
{
closed = 1;
nodes = (
(1323,0,o),
(1653,330,o),
(1653,740,cs),
(1653,1150,o),
(1323,1480,o),
(913,1480,cs),
(503,1480,o),
(173,1150,o),
(173,740,cs),
(173,330,o),
(503,0,o),
(913,0,cs)
);
},
{
closed = 1;
nodes = (
(559,101,o),
(274,386,o),
(274,740,cs),
(274,1094,o),
(559,1379,o),
(913,1379,cs),
(1267,1379,o),
(1552,1094,o),
(1552,740,cs),
(1552,386,o),
(1267,101,o),
(913,101,cs)
);
}
);
userData = {
assembly = "PUSHW[ ]	/* 5 values pushed */
24 412 27 50 581
PUSHB[ ]	/* 7 values pushed */
59 124 27 27 39 33 42
PUSHW[ ]	/* 3 values pushed */
544 41 577
NPUSHB[ ]	/* 19 values pushed */
47 124 39 127 21 200 3 123 9 53 124 33 127 15 200 9 0 41 43
PUSHW[ ]	/* 3 values pushed */
579 42 401
PUSHB[ ]	/* 3 values pushed */
56 245 30
PUSHW[ ]	/* 1 value pushed */
580
PUSHB[ ]	/* 8 values pushed */
18 127 6 140 0 50 24 36
PUSHW[ ]	/* 1 value pushed */
575
PUSHB[ ]	/* 4 values pushed */
12 127 0 100
SCVTCI[ ]	/* SetCVTCutIn */
MDAP[1]	/* MoveDirectAbsPt */
MIRP[11101]	/* MoveIndirectRelPt */
MIRP[10110]	/* MoveIndirectRelPt */
SHP[0]	/* ShiftPointByLastPoint */
SHP[0]	/* ShiftPointByLastPoint */
SRP0[ ]	/* SetRefPoint0 */
MIRP[11101]	/* MoveIndirectRelPt */
MIRP[11101]	/* MoveIndirectRelPt */
MIRP[10110]	/* MoveIndirectRelPt */
MIRP[01101]	/* MoveIndirectRelPt */
MIRP[10100]	/* MoveIndirectRelPt */
MIRP[01101]	/* MoveIndirectRelPt */
ALIGNRP[ ]	/* AlignRelativePt */
SVTCA[0]	/* SetFreedomAndProjectionVectorToAxis */
MIAP[1]	/* MoveIndirectAbsPt */
MIRP[11101]	/* MoveIndirectRelPt */
MIRP[10110]	/* MoveIndirectRelPt */
MIRP[01101]	/* MoveIndirectRelPt */
SRP0[ ]	/* SetRefPoint0 */
MIRP[11101]	/* MoveIndirectRelPt */
MIRP[11101]	/* MoveIndirectRelPt */
MIRP[10110]	/* MoveIndirectRelPt */
MIRP[01101]	/* MoveIndirectRelPt */
MIRP[10100]	/* MoveIndirectRelPt */
MIRP[01101]	/* MoveIndirectRelPt */
SRP1[ ]	/* SetRefPoint1 */
SRP2[ ]	/* SetRefPoint2 */
IP[ ]	/* InterpolatePts */
MDAP[1]	/* MoveDirectAbsPt */
MIRP[11101]	/* MoveIndirectRelPt */
MIRP[00110]	/* MoveIndirectRelPt */
SRP0[ ]	/* SetRefPoint0 */
MIRP[00100]	/* MoveIndirectRelPt */
IUP[1]	/* InterpolateUntPts */
IUP[0]	/* InterpolateUntPts */";
};
width = 1826;
}
);
note = six;
unicode = 111;
}
{
color = 5;
glyphname = seven;
layers = (
{
layerId = m01;
shapes = (
{
closed = 1;
nodes = (
(899,357,l),
(1199,1038,l),
(1199,1126,l),
(680,1126,l),
(680,1018,l),
(1069,1018,l),
(769,357,l),
(769,357,l)
);
},
{
closed = 1;
nodes = (
(1323,0,o),
(1653,330,o),
(1653,740,cs),
(1653,1150,o),
(1323,1480,o),
(913,1480,cs),
(503,1480,o),
(173,1150,o),
(173,740,cs),
(173,330,o),
(503,0,o),
(913,0,cs)
);
},
{
closed = 1;
nodes = (
(559,101,o),
(274,386,o),
(274,740,cs),
(274,1094,o),
(559,1379,o),
(913,1379,cs),
(1267,1379,o),
(1552,1094,o),
(1552,740,cs),
(1552,386,o),
(1267,101,o),
(913,101,cs)
);
}
);
userData = {
assembly = "NPUSHB[ ]	/* 19 values pushed */
32 28 208 31 128 21 200 3 123 9 24 128 15 200 9 0 28 127 32
PUSHW[ ]	/* 1 value pushed */
575
PUSHB[ ]	/* 8 values pushed */
18 127 6 140 0 34 168 24
PUSHW[ ]	/* 3 values pushed */
401 29 578
PUSHB[ ]	/* 3 values pushed */
12 127 0
MDAP[1]	/* MoveDirectAbsPt */
MIRP[11101]	/* MoveIndirectRelPt */
MIRP[10110]	/* MoveIndirectRelPt */
MIRP[10100]	/* MoveIndirectRelPt */
MIRP[01101]	/* MoveIndirectRelPt */
SRP0[ ]	/* SetRefPoint0 */
MIRP[11101]	/* MoveIndirectRelPt */
MIRP[11101]	/* MoveIndirectRelPt */
MIRP[10110]	/* MoveIndirectRelPt */
MIRP[01101]	/* MoveIndirectRelPt */
SVTCA[0]	/* SetFreedomAndProjectionVectorToAxis */
MIAP[1]	/* MoveIndirectAbsPt */
MIRP[11101]	/* MoveIndirectRelPt */
MIRP[00110]	/* MoveIndirectRelPt */
SRP0[ ]	/* SetRefPoint0 */
MIRP[11101]	/* MoveIndirectRelPt */
MIRP[11101]	/* MoveIndirectRelPt */
RDTG[ ]	/* RoundDownToGrid */
MIRP[10110]	/* MoveIndirectRelPt */
RTG[ ]	/* RoundToGrid */
MIRP[01101]	/* MoveIndirectRelPt */
IP[ ]	/* InterpolatePts */
IUP[1]	/* InterpolateUntPts */
IUP[0]	/* InterpolateUntPts */";
};
width = 1826;
}
);
note = seven;
unicode = 112;
}
{
color = 5;
glyphname = eight;
layers = (
{
layerId = m01;
shapes = (
{
closed = 1;
nodes = (
(1069,341,o),
(1175,427,o),
(1175,562,cs),
(1175,650,o),
(1125,718,o),
(1024,763,c),
(1107,810,o),
(1150,871,o),
(1150,945,cs),
(1150,1065,o),
(1055,1141,o),
(913,1141,cs),
(773,1141,o),
(671,1062,o),
(671,939,cs),
(671,848,o),
(710,806,o),
(782,758,c),
(692,709,o),
(647,643,o),
(647,557,cs),
(647,420,o),
(741,341,o),
(913,341,cs)
);
},
{
closed = 1;
nodes = (
(814,442,o),
(768,480,o),
(768,557,cs),
(768,621,o),
(805,672,o),
(884,709,c),
(908,700,ls),
(1005,666,o),
(1053,620,o),
(1053,557,cs),
(1053,480,o),
(1005,442,o),
(909,442,cs)
);
},
{
closed = 1;
nodes = (
(832,846,o),
(791,889,o),
(791,941,cs),
(791,1004,o),
(834,1042,o),
(911,1042,cs),
(985,1042,o),
(1032,1004,o),
(1032,941,cs),
(1032,885,o),
(992,842,o),
(915,812,c)
);
},
{
closed = 1;
nodes = (
(1323,0,o),
(1653,330,o),
(1653,740,cs),
(1653,1150,o),
(1323,1480,o),
(913,1480,cs),
(503,1480,o),
(173,1150,o),
(173,740,cs),
(173,330,o),
(503,0,o),
(913,0,cs)
);
},
{
closed = 1;
nodes = (
(559,101,o),
(274,386,o),
(274,740,cs),
(274,1094,o),
(559,1379,o),
(913,1379,cs),
(1267,1379,o),
(1552,1094,o),
(1552,740,cs),
(1552,386,o),
(1267,101,o),
(913,101,cs)
);
}
);
userData = {
assembly = "NPUSHB[ ]	/* 33 values pushed */
24 34 44 55 4 39 49 124 29 127 21 200 3 123 9 60 124 39 127 15 200 9 0 24 34 44 55 4 36 42 46 127 32
PUSHW[ ]	/* 1 value pushed */
401
PUSHB[ ]	/* 3 values pushed */
63 245 36
PUSHW[ ]	/* 1 value pushed */
580
PUSHB[ ]	/* 8 values pushed */
18 127 6 140 0 52 127 26
PUSHW[ ]	/* 1 value pushed */
401
PUSHB[ ]	/* 3 values pushed */
57 245 42
PUSHW[ ]	/* 1 value pushed */
575
PUSHB[ ]	/* 4 values pushed */
12 127 0 100
SCVTCI[ ]	/* SetCVTCutIn */
MDAP[1]	/* MoveDirectAbsPt */
MIRP[11101]	/* MoveIndirectRelPt */
MIRP[10110]	/* MoveIndirectRelPt */
MIRP[01101]	/* MoveIndirectRelPt */
MIRP[10100]	/* MoveIndirectRelPt */
MIRP[01101]	/* MoveIndirectRelPt */
SRP0[ ]	/* SetRefPoint0 */
MIRP[11101]	/* MoveIndirectRelPt */
MIRP[11101]	/* MoveIndirectRelPt */
MIRP[10110]	/* MoveIndirectRelPt */
MIRP[01101]	/* MoveIndirectRelPt */
MIRP[10100]	/* MoveIndirectRelPt */
MIRP[01101]	/* MoveIndirectRelPt */
SRP1[ ]	/* SetRefPoint1 */
SRP2[ ]	/* SetRefPoint2 */
SLOOP[ ]	/* SetLoopVariable */
IP[ ]	/* InterpolatePts */
SVTCA[0]	/* SetFreedomAndProjectionVectorToAxis */
MIAP[1]	/* MoveIndirectAbsPt */
MIRP[11101]	/* MoveIndirectRelPt */
MIRP[10110]	/* MoveIndirectRelPt */
MIRP[01101]	/* MoveIndirectRelPt */
SRP0[ ]	/* SetRefPoint0 */
MIRP[11101]	/* MoveIndirectRelPt */
MIRP[11101]	/* MoveIndirectRelPt */
MIRP[10110]	/* MoveIndirectRelPt */
MIRP[01101]	/* MoveIndirectRelPt */
SRP2[ ]	/* SetRefPoint2 */
SLOOP[ ]	/* SetLoopVariable */
IP[ ]	/* InterpolatePts */
IUP[1]	/* InterpolateUntPts */
IUP[0]	/* InterpolateUntPts */";
};
width = 1826;
}
);
note = eight;
unicode = 113;
}
{
color = 5;
glyphname = nine;
layers = (
{
layerId = m01;
shapes = (
{
closed = 1;
nodes = (
(1082,341,o),
(1208,494,o),
(1208,797,cs),
(1208,1009,o),
(1102,1139,o),
(924,1139,cs),
(762,1139,o),
(658,1031,o),
(658,875,cs),
(658,724,o),
(750,632,o),
(900,632,cs),
(983,632,o),
(1042,661,o),
(1084,720,c),
(1093,720,l),
(1082,524,o),
(990,444,o),
(839,444,cs),
(787,444,o),
(748,449,o),
(721,462,c),
(721,354,l),
(751,345,o),
(789,341,o),
(832,341,cs)
);
},
{
closed = 1;
nodes = (
(825,731,o),
(778,788,o),
(778,880,cs),
(778,982,o),
(839,1036,o),
(924,1036,cs),
(1037,1036,o),
(1085,956,o),
(1085,857,cs),
(1085,794,o),
(1021,731,o),
(920,731,cs)
);
},
{
closed = 1;
nodes = (
(1323,0,o),
(1654,330,o),
(1654,741,cs),
(1654,1150,o),
(1323,1480,o),
(913,1480,cs),
(503,1480,o),
(172,1150,o),
(172,741,cs),
(172,330,o),
(503,0,o),
(913,0,cs)
);
},
{
closed = 1;
nodes = (
(559,101,o),
(274,386,o),
(274,741,cs),
(274,1095,o),
(559,1379,o),
(913,1379,cs),
(1267,1379,o),
(1552,1095,o),
(1552,741,cs),
(1552,386,o),
(1267,101,o),
(913,101,cs)
);
}
);
userData = {
assembly = "PUSHW[ ]	/* 5 values pushed */
50 581 59 24 412
NPUSHB[ ]	/* 15 values pushed */
59 124 27 27 39 53 124 33 127 21 200 3 123 9 42
PUSHW[ ]	/* 3 values pushed */
544 41 577
NPUSHB[ ]	/* 13 values pushed */
47 124 39 127 15 200 9 0 24 141 50 168 36
PUSHW[ ]	/* 1 value pushed */
575
PUSHB[ ]	/* 6 values pushed */
18 127 6 140 0 43
PUSHW[ ]	/* 3 values pushed */
579 41 401
PUSHB[ ]	/* 3 values pushed */
56 245 30
PUSHW[ ]	/* 1 value pushed */
580
PUSHB[ ]	/* 4 values pushed */
12 127 0 100
SCVTCI[ ]	/* SetCVTCutIn */
MDAP[1]	/* MoveDirectAbsPt */
MIRP[11101]	/* MoveIndirectRelPt */
MIRP[10110]	/* MoveIndirectRelPt */
MIRP[01101]	/* MoveIndirectRelPt */
MIRP[10100]	/* MoveIndirectRelPt */
MIRP[01101]	/* MoveIndirectRelPt */
SRP0[ ]	/* SetRefPoint0 */
MIRP[11101]	/* MoveIndirectRelPt */
MIRP[11101]	/* MoveIndirectRelPt */
MIRP[10110]	/* MoveIndirectRelPt */
MIRP[11101]	/* MoveIndirectRelPt */
MIRP[00100]	/* MoveIndirectRelPt */
SVTCA[0]	/* SetFreedomAndProjectionVectorToAxis */
MIAP[1]	/* MoveIndirectAbsPt */
MIRP[11101]	/* MoveIndirectRelPt */
MIRP[10110]	/* MoveIndirectRelPt */
MIRP[01101]	/* MoveIndirectRelPt */
MIRP[10100]	/* MoveIndirectRelPt */
MIRP[01101]	/* MoveIndirectRelPt */
SRP0[ ]	/* SetRefPoint0 */
MIRP[11101]	/* MoveIndirectRelPt */
MIRP[11101]	/* MoveIndirectRelPt */
MIRP[10110]	/* MoveIndirectRelPt */
MIRP[01101]	/* MoveIndirectRelPt */
SRP2[ ]	/* SetRefPoint2 */
IP[ ]	/* InterpolatePts */
MDAP[1]	/* MoveDirectAbsPt */
MIRP[01101]	/* MoveIndirectRelPt */
MIRP[00100]	/* MoveIndirectRelPt */
SRP0[ ]	/* SetRefPoint0 */
MIRP[00110]	/* MoveIndirectRelPt */
IUP[1]	/* InterpolateUntPts */
IUP[0]	/* InterpolateUntPts */";
};
width = 1826;
}
);
note = nine;
unicode = 114;
}
{
color = 5;
glyphname = ten;
layers = (
{
layerId = m01;
shapes = (
{
closed = 1;
nodes = (
(1267,269,o),
(1357,420,o),
(1357,720,cs),
(1357,1051,o),
(1288,1207,o),
(1085,1207,cs),
(900,1207,o),
(816,1060,o),
(816,735,cs),
(816,404,o),
(902,269,o),
(1089,269,cs)
);
},
{
closed = 1;
nodes = (
(730,287,l),
(730,1196,l),
(617,1196,l),
(557,1128,o),
(503,1085,o),
(453,1067,c),
(453,936,l),
(512,957,o),
(579,991,o),
(617,1045,c),
(617,287,l),
(617,287,l)
);
},
{
closed = 1;
nodes = (
(954,374,o),
(929,553,o),
(929,735,cs),
(929,923,o),
(954,1106,o),
(1085,1106,cs),
(1217,1106,o),
(1243,936,o),
(1243,745,cs),
(1243,498,o),
(1191,374,o),
(1089,374,cs)
);
},
{
closed = 1;
nodes = (
(1323,0,o),
(1653,330,o),
(1653,740,cs),
(1653,1150,o),
(1323,1480,o),
(913,1480,cs),
(503,1480,o),
(173,1150,o),
(173,740,cs),
(173,330,o),
(503,0,o),
(913,0,cs)
);
},
{
closed = 1;
nodes = (
(559,101,o),
(274,386,o),
(274,740,cs),
(274,1094,o),
(559,1379,o),
(913,1379,cs),
(1267,1379,o),
(1552,1094,o),
(1552,740,cs),
(1552,386,o),
(1267,101,o),
(913,101,cs)
);
}
);
userData = {
assembly = "PUSHB[ ]	/* 3 values pushed */
41 124 42
PUSHW[ ]	/* 3 values pushed */
577 24 577
PUSHB[ ]	/* 3 values pushed */
61 124 49
PUSHW[ ]	/* 1 value pushed */
550
NPUSHB[ ]	/* 9 values pushed */
21 200 3 123 9 29 32 124 31
PUSHW[ ]	/* 1 value pushed */
577
PUSHB[ ]	/* 3 values pushed */
55 124 43
PUSHW[ ]	/* 1 value pushed */
550
PUSHB[ ]	/* 7 values pushed */
15 200 9 0 64 245 46
PUSHW[ ]	/* 1 value pushed */
593
PUSHB[ ]	/* 4 values pushed */
25 58 245 52
PUSHW[ ]	/* 1 value pushed */
549
PUSHB[ ]	/* 6 values pushed */
18 127 6 140 0 30
PUSHW[ ]	/* 1 value pushed */
545
PUSHB[ ]	/* 6 values pushed */
25 245 37 36 42 31
PUSHW[ ]	/* 3 values pushed */
545 36 450
PUSHB[ ]	/* 4 values pushed */
12 127 0 100
SCVTCI[ ]	/* SetCVTCutIn */
MDAP[1]	/* MoveDirectAbsPt */
MIRP[11101]	/* MoveIndirectRelPt */
RDTG[ ]	/* RoundDownToGrid */
MIRP[10110]	/* MoveIndirectRelPt */
RTG[ ]	/* RoundToGrid */
MIRP[10100]	/* MoveIndirectRelPt */
ALIGNRP[ ]	/* AlignRelativePt */
SRP0[ ]	/* SetRefPoint0 */
ALIGNRP[ ]	/* AlignRelativePt */
MIRP[11101]	/* MoveIndirectRelPt */
MIRP[00100]	/* MoveIndirectRelPt */
SRP0[ ]	/* SetRefPoint0 */
MIRP[11101]	/* MoveIndirectRelPt */
MIRP[11101]	/* MoveIndirectRelPt */
MIRP[10110]	/* MoveIndirectRelPt */
MIRP[01101]	/* MoveIndirectRelPt */
SRP0[ ]	/* SetRefPoint0 */
MIRP[11110]	/* MoveIndirectRelPt */
MIRP[01101]	/* MoveIndirectRelPt */
SVTCA[0]	/* SetFreedomAndProjectionVectorToAxis */
MIAP[1]	/* MoveIndirectAbsPt */
MIRP[11101]	/* MoveIndirectRelPt */
RUTG[ ]	/* RoundUpToGrid */
MIRP[10110]	/* MoveIndirectRelPt */
RTG[ ]	/* RoundToGrid */
MIRP[01101]	/* MoveIndirectRelPt */
MIRP[10100]	/* MoveIndirectRelPt */
MIRP[11101]	/* MoveIndirectRelPt */
ALIGNRP[ ]	/* AlignRelativePt */
SRP0[ ]	/* SetRefPoint0 */
MIRP[11101]	/* MoveIndirectRelPt */
MIRP[11101]	/* MoveIndirectRelPt */
RUTG[ ]	/* RoundUpToGrid */
MIRP[10110]	/* MoveIndirectRelPt */
RTG[ ]	/* RoundToGrid */
MIRP[01101]	/* MoveIndirectRelPt */
MIRP[10100]	/* MoveIndirectRelPt */
MIRP[10100]	/* MoveIndirectRelPt */
MIRP[01101]	/* MoveIndirectRelPt */
IUP[1]	/* InterpolateUntPts */
IUP[0]	/* InterpolateUntPts */";
};
width = 1826;
}
);
note = ten;
unicode = 115;
}
